<svg xmlns="http://www.w3.org/2000/svg" width="24" height="24" viewBox="0 0 24 24"><defs><style>.a,.b{fill:#de0322;}.b{opacity:0.4;}</style></defs><g transform="translate(2 2.5)"><path class="a" d="M5.1,2.088H3.9V.912a.9.9,0,1,0-1.8,0V2.088H.9a.912.912,0,0,0,0,1.823H2.1V5.088a.9.9,0,1,0,1.8,0V3.911H5.1a.912.912,0,0,0,0-1.823" transform="translate(14 5)"/><path class="a" d="M7.5,0C3.454,0,0,.647,0,3.231S3.433,6.484,7.5,6.484c4.045,0,7.5-.647,7.5-3.231S11.567,0,7.5,0" transform="translate(0 12.516)"/><path class="b" d="M4.963,10.054A4.977,4.977,0,0,0,9.925,5.028,4.963,4.963,0,1,0,0,5.028a4.977,4.977,0,0,0,4.963,5.027" transform="translate(2.537 0)"/></g></svg>