<svg xmlns="http://www.w3.org/2000/svg" width="30" height="30" viewBox="0 0 30 30"><defs><style>.a,.b{fill:#de0322;}.b{opacity:0.4;}</style></defs><g transform="translate(2.5 3.75)"><path class="a" d="M1.438,8.677A4.914,4.914,0,0,1,0,5.207,4.838,4.838,0,0,1,1.426,1.747a4.908,4.908,0,1,1,.012,6.93ZM2.751,3.071a2.917,2.917,0,0,0-.875,2.123v.012A3.029,3.029,0,0,0,4.913,8.241,3.054,3.054,0,0,0,7.951,5.207a3.041,3.041,0,0,0-5.2-2.135ZM10.8,1.136A1.131,1.131,0,1,1,11.925,2.26,1.131,1.131,0,0,1,10.8,1.136Z" transform="translate(7.587 7.704)"/><path class="b" d="M19.3,4.046l-.125-.275c-.337-.712-.725-1.536-.963-2.01A3.052,3.052,0,0,0,15.438,0H9.55A3.035,3.035,0,0,0,6.787,1.761c-.25.5-.675,1.4-1.025,2.135l-.075.15a.245.245,0,0,1-.238.15A5.452,5.452,0,0,0,0,9.639v7.417A5.452,5.452,0,0,0,5.45,22.5h14.1A5.46,5.46,0,0,0,25,17.056V9.639A5.46,5.46,0,0,0,19.55,4.2.284.284,0,0,1,19.3,4.046Z"/></g></svg>