<svg xmlns="http://www.w3.org/2000/svg" width="22.117" height="21.617" viewBox="0 0 22.117 21.617"><defs><style>.a{fill:none;stroke:#1a1a1a;stroke-linecap:round;stroke-linejoin:round;stroke-miterlimit:10;stroke-width:1.5px;}.b{fill:#de0322;}.c{fill:#fff;font-size:12px;font-family:NunitoSans-SemiBold, Nunito Sans;font-weight:600;letter-spacing:-0.01em;}</style></defs><g transform="translate(0.867 0.867)"><path class="a" d="M.764,0A.765.765,0,1,1,0,.765.766.766,0,0,1,.764,0Z" transform="translate(3.908 16.57)"/><path class="a" d="M.765,0A.765.765,0,1,1,0,.765.766.766,0,0,1,.765,0Z" transform="translate(15.16 16.57)"/><path class="a" d="M0,0,2.08.36l.963,11.473a1.8,1.8,0,0,0,1.8,1.653H15.752a1.8,1.8,0,0,0,1.785-1.546l.949-6.558a1.341,1.341,0,0,0-1.327-1.533H2.414"/><path class="a" d="M0,.5H2.773" transform="translate(11.376 7.045)"/><g transform="translate(523.25 -520.25)"><circle class="b" cx="7" cy="7" r="7" transform="translate(-516 526)"/><text class="c" transform="translate(-506 537)"><tspan x="-7.2" y="0">1</tspan></text></g></g></svg>