<svg xmlns="http://www.w3.org/2000/svg" width="21.149" height="21.149" viewBox="0 0 21.149 21.149"><defs><style>.a,.b{fill:none;stroke-linecap:round;}.a{stroke:#1a1a1a;stroke-linejoin:round;stroke-miterlimit:10;}.c,.d{stroke:none;}.d{fill:#1a1a1a;}</style></defs><g transform="translate(10.574 -0.354) rotate(45)"><path class="a" d="M6.977,0A6.977,6.977,0,1,1,0,6.977,6.978,6.978,0,0,1,6.977,0Z" transform="translate(0.75 0.75)"/><g transform="translate(3.084 3.079)"><g class="b" transform="translate(0 3.736)"><path class="c" d="M.844,0h7.6a.878.878,0,0,1,.844.908.878.878,0,0,1-.844.908H.844A.878.878,0,0,1,0,.908.878.878,0,0,1,.844,0Z"/><path class="d" d="M 0.8444099426269531 -1.430511474609375e-06 L 8.444049835205078 -1.430511474609375e-06 C 8.910409927368164 -1.430511474609375e-06 9.288459777832031 0.4067386388778687 9.288459777832031 0.9084786176681519 C 9.288459777832031 1.410218596458435 8.910409927368164 1.816958665847778 8.444049835205078 1.816958665847778 L 0.8444099426269531 1.816958665847778 C 0.3780498504638672 1.816958665847778 0 1.410218596458435 0 0.9084786176681519 C 0 0.4067386388778687 0.3780498504638672 -1.430511474609375e-06 0.8444099426269531 -1.430511474609375e-06 Z"/></g><g class="b" transform="translate(5.553) rotate(90)"><path class="c" d="M.844,0h7.6a.878.878,0,0,1,.844.908.878.878,0,0,1-.844.908H.844A.878.878,0,0,1,0,.908.878.878,0,0,1,.844,0Z"/><path class="d" d="M 0.8444099426269531 -1.430511474609375e-06 L 8.444049835205078 -1.430511474609375e-06 C 8.910409927368164 -1.430511474609375e-06 9.288459777832031 0.4067386388778687 9.288459777832031 0.9084786176681519 C 9.288459777832031 1.410218596458435 8.910409927368164 1.816958665847778 8.444049835205078 1.816958665847778 L 0.8444099426269531 1.816958665847778 C 0.3780498504638672 1.816958665847778 0 1.410218596458435 0 0.9084786176681519 C 0 0.4067386388778687 0.3780498504638672 -1.430511474609375e-06 0.8444099426269531 -1.430511474609375e-06 Z"/></g></g></g></svg>