<svg xmlns="http://www.w3.org/2000/svg" width="23.42" height="20.652" viewBox="0 0 23.42 20.652">
  <g id="Logo_Single" data-name="Logo Single" transform="translate(-1341.439 -101.423)">
    <g id="Group_1" data-name="Group 1" transform="translate(1349.359 110.303)">
      <circle id="Ellipse_1" data-name="Ellipse 1" cx="1.208" cy="1.208" r="1.208" fill="#fff"/>
    </g>
    <g id="Group_2" data-name="Group 2" transform="translate(1341.439 102.829)">
      <path id="Path_1" data-name="Path 1" d="M1359.931,112.485c-1.917-.9-3.843-1.792-5.765-2.687a2.161,2.161,0,0,0-.992-.217,2.248,2.248,0,0,0-1.1.355c-.806.487-2.758,1.658-5.364,3.264a1.547,1.547,0,0,0-.137.073l-4.416,2.676a1.494,1.494,0,0,0-.5,2.047l6.128,10.113a1.5,1.5,0,0,0,2.047.5l4.416-2.676a1.52,1.52,0,0,0,.161-.115c1.789-1.073,3.573-2.155,5.361-3.232a2.071,2.071,0,0,0,1.068-1.767c.1-2.118.2-4.235.293-6.353A1.957,1.957,0,0,0,1359.931,112.485Zm-1.455,4.31a1.782,1.782,0,1,1,.6-2.447A1.782,1.782,0,0,1,1358.476,116.8Z" transform="translate(-1341.439 -109.58)" fill="#de0322"/>
      <rect id="Rectangle_5121" data-name="Rectangle 5121" width="8.258" height="2.064" rx="1" transform="translate(2.837 8.163) rotate(-31)" fill="#f296a2"/>
      <rect id="Rectangle_5122" data-name="Rectangle 5122" width="8.258" height="2.064" rx="1" transform="translate(4.701 11.392) rotate(-31)" fill="#f296a2"/>
      <rect id="Rectangle_5123" data-name="Rectangle 5123" width="8.258" height="2.064" rx="1" transform="translate(6.566 14.622) rotate(-31)" fill="#f296a2"/>
    </g>
    <g id="Group_3" data-name="Group 3" transform="translate(1357.553 101.423)">
      <path id="Path_2" data-name="Path 2" d="M1441.46,101.905c-1.24-1.033-3.451-.355-5.032,1.544a6.9,6.9,0,0,0-.46.62.332.332,0,0,0,.554.365,6.2,6.2,0,0,1,.415-.56c1.3-1.56,3.176-2.228,4.1-1.459s.607,2.736-.691,4.295a5.861,5.861,0,0,1-1.2,1.1l-.657.372a3.856,3.856,0,0,1-.4.163,2.623,2.623,0,0,1-.942.144,1.076,1.076,0,0,0,0-.166,1.108,1.108,0,1,0-.252.81,2.688,2.688,0,0,0,.6.012,3.576,3.576,0,0,0,.8-.17,6.265,6.265,0,0,0,3.911-4.7A2.513,2.513,0,0,0,1441.46,101.905Z" transform="translate(-1434.927 -101.423)"/>
    </g>
  </g>
</svg>
