<svg id="Iconly_Bulk_Delete" data-name="Iconly/Bulk/Delete" xmlns="http://www.w3.org/2000/svg" width="15.317" height="17.019" viewBox="0 0 15.317 17.019">
  <g id="Delete">
    <path id="Fill_1" data-name="Fill 1" d="M13.01.674c0,.058-.454,5.794-.713,8.208a2.483,2.483,0,0,1-2.55,2.406c-1.1.025-2.178.033-3.238.033-1.126,0-2.226-.009-3.295-.033A2.482,2.482,0,0,1,.721,8.882C.454,6.459.009.732,0,.674A.676.676,0,0,1,.163.2.6.6,0,0,1,.608,0h11.8a.621.621,0,0,1,.445.2.636.636,0,0,1,.154.475" transform="translate(1.152 5.698)" fill="#918888" opacity="0.4"/>
    <path id="Fill_4" data-name="Fill 4" d="M15.317,3.384a.615.615,0,0,0-.607-.624H12.229a1.09,1.09,0,0,1-1.056-.865l-.139-.62A1.689,1.689,0,0,0,9.415,0H5.9A1.691,1.691,0,0,0,4.274,1.316l-.13.58a1.092,1.092,0,0,1-1.056.865H.607A.615.615,0,0,0,0,3.384v.323a.62.62,0,0,0,.607.624h14.1a.62.62,0,0,0,.607-.624Z" transform="translate(0 0)" fill="#918888"/>
  </g>
</svg>
