<svg xmlns="http://www.w3.org/2000/svg" width="20.024" height="20.024" viewBox="0 0 20.024 20.024"><defs><style>.a{fill:#1976d2;}.b{fill:#fafafa;}</style></defs><path class="a" d="M17.521,0H2.5A2.506,2.506,0,0,0,0,2.5V17.521a2.506,2.506,0,0,0,2.5,2.5H17.521a2.506,2.506,0,0,0,2.5-2.5V2.5A2.506,2.506,0,0,0,17.521,0Z"/><path class="b" d="M201.386,102.258h-3.129v-2.5c0-.691.561-.626,1.252-.626h1.252V96h-2.5a3.754,3.754,0,0,0-3.755,3.755v2.5H192v3.129h2.5v6.883h3.755v-6.883h1.877Z" transform="translate(-184.491 -92.245)"/></svg>