<svg xmlns="http://www.w3.org/2000/svg" xmlns:xlink="http://www.w3.org/1999/xlink" width="40.019" height="39.996" viewBox="0 0 40.019 39.996"><defs><style>.a{fill:none;}.b{clip-path:url(#a);}.c{fill:#de0322;}.d{opacity:0.08;}.d,.g{isolation:isolate;}.e{clip-path:url(#c);}.f{fill:#de0332;}.g{opacity:0.4;}.h{clip-path:url(#d);}.i{clip-path:url(#e);}.j{clip-path:url(#f);}</style><clipPath id="a"><rect class="a" width="40.019" height="39.996"/></clipPath><clipPath id="c"><rect class="a" width="17.395" height="17.395"/></clipPath><clipPath id="d"><rect class="a" width="8.068" height="8.068"/></clipPath><clipPath id="e"><rect class="a" width="10.707" height="14.959"/></clipPath><clipPath id="f"><rect class="a" width="6.995" height="6.995"/></clipPath></defs><g class="b"><g class="b"><path class="c" d="M41.036,239.725a9.036,9.036,0,1,0,9.036,9.036,9.042,9.042,0,0,0-9.036-9.036m0,16.782a7.746,7.746,0,1,1,7.746-7.746,7.758,7.758,0,0,1-7.746,7.746" transform="translate(-29.418 -220.383)"/><path class="c" d="M85.164,287.725a5.164,5.164,0,1,0,5.164,5.164,5.168,5.168,0,0,0-5.164-5.164m0,9.036a3.873,3.873,0,1,1,3.873-3.873,3.874,3.874,0,0,1-3.873,3.873" transform="translate(-73.545 -264.511)"/><path class="c" d="M39.373,29.4l-1.67-1.67,1.025-1.025a2.2,2.2,0,0,0,0-3.114L37.7,22.569l.379-.379a2.2,2.2,0,0,0,0-3.114l-1.67-1.67a2.257,2.257,0,0,0-3.114,0l-2.961,2.961L19.63,9.66,22.591,6.7a2.2,2.2,0,0,0,0-3.114l-1.67-1.67a2.257,2.257,0,0,0-3.114,0l-.379.379L16.4,1.269a2.257,2.257,0,0,0-3.114,0L12.264,2.293,10.594.623a2.257,2.257,0,0,0-3.114,0L4.518,3.584a2.2,2.2,0,0,0,0,3.114l1.67,1.67L5.164,9.393a2.2,2.2,0,0,0,0,3.114l1.025,1.025-.379.379a2.2,2.2,0,0,0,0,3.114l.855.855A11.611,11.611,0,1,0,22.115,33.332l.855.855a2.2,2.2,0,0,0,3.114,0l.379-.379,1.025,1.025a2.2,2.2,0,0,0,3.114,0l1.025-1.025,1.67,1.67a2.2,2.2,0,0,0,3.114,0l2.961-2.961a2.2,2.2,0,0,0,0-3.114m-9.948-8.125L25.173,25.53l-5.148-5.148c-.129-.137-.266-.274-.4-.4l-5.156-5.156,4.252-4.252ZM23.2,27.507a11.329,11.329,0,0,0-.5-2.63l1.565,1.565ZM13.555,15.735,15.12,17.3a11.849,11.849,0,0,0-2.63-.5ZM5.43,5.787a.916.916,0,0,1,0-1.291L8.391,1.535a.947.947,0,0,1,1.291,0l1.67,1.67L7.1,7.457ZM6.075,11.6a.916.916,0,0,1,0-1.291L14.2,2.18a.947.947,0,0,1,1.291,0l1.025,1.025L7.1,12.621Zm.645,4.518a.916.916,0,0,1,0-1.291l12-12a.947.947,0,0,1,1.291,0l1.67,1.67a.916.916,0,0,1,0,1.291L10.658,16.808a11.923,11.923,0,0,0-2.695.549Zm4.9,22.591A10.327,10.327,0,1,1,18.7,20.883l.42.42a10.313,10.313,0,0,1-7.5,17.4m12.264-5.43-1.243-1.243a11.833,11.833,0,0,0,.549-2.695L34.209,18.317a.947.947,0,0,1,1.291,0l1.67,1.67a.916.916,0,0,1,0,1.291l-12,12a.947.947,0,0,1-1.291,0m5.809.645a.947.947,0,0,1-1.291,0L27.376,32.9l9.416-9.416,1.025,1.025a.915.915,0,0,1,0,1.291Zm8.77-2.316L35.5,34.566a.947.947,0,0,1-1.291,0l-1.67-1.67,4.252-4.252,1.67,1.67a.915.915,0,0,1,0,1.291" transform="translate(0 0)"/><g class="d" transform="translate(15.37 8.175)"><g class="e"><path class="f" d="M199.657,101.825A8.657,8.657,0,1,1,191,110.482a8.657,8.657,0,0,1,8.657-8.657" transform="translate(-190.96 -101.785)"/><circle class="a" cx="8.657" cy="8.657" r="8.657" transform="translate(0.04 0.04)"/></g></g><g class="g" transform="translate(7.584 24.344)"><g class="h"><path class="f" d="M98.034,301.725A4.034,4.034,0,1,1,94,305.759a4.034,4.034,0,0,1,4.034-4.034" transform="translate(-94 -301.725)"/></g></g><g class="g" transform="translate(18.718 10.571)"><g class="i"><path class="f" d="M232,131.025l6.455,14.959,4.252-4.252Z" transform="translate(-232 -131.025)"/></g></g><g class="g" transform="translate(4.357 0.462)"><g class="j"><path class="f" d="M56.743,12.72,61,8.468l-2.13-2.743L54,10.324Z" transform="translate(-54 -5.725)"/></g></g></g></g></svg>