<svg xmlns="http://www.w3.org/2000/svg" xmlns:xlink="http://www.w3.org/1999/xlink" width="45.558" height="45.558" viewBox="0 0 45.558 45.558"><defs><style>.a,.c,.d{fill:#de0322;}.a{opacity:0.396;mix-blend-mode:multiply;isolation:isolate;}.b{fill:url(#a);}.c{opacity:0.404;}.d{opacity:0.202;}</style><linearGradient id="a" x1="-0.125" y1="1.284" x2="-0.125" y2="1.508" gradientUnits="objectBoundingBox"><stop offset="0" stop-color="#de0322"/><stop offset="1" stop-color="#00e7f0"/></linearGradient></defs><g transform="translate(0 0)"><path class="a" d="M5.53.308c1.187-1.435,8.462,2.315,9.309,7.822s-4.78,9.287-10.353,9.287-5.567-7.228-2.106-7.4S4.343,1.743,5.53.308Z" transform="matrix(-0.407, 0.914, -0.914, -0.407, 22.318, 25.51)"/><g transform="translate(0 0)"><path class="b" d="M28.1,218.633H25.817V211.8a3.8,3.8,0,0,0-3.8-3.8H6.835a3.8,3.8,0,0,0-3.8,3.8v6.834H.76a.759.759,0,0,0-.759.759v10.63a.759.759,0,0,0,.759.759H1.52v2.278a.759.759,0,0,0,.759.759H5.316a.759.759,0,0,0,.759-.759v-2.278h16.7v2.278a.759.759,0,0,0,.759.759h3.037a.759.759,0,0,0,.759-.759v-2.278H28.1a.759.759,0,0,0,.759-.759v-10.63A.759.759,0,0,0,28.1,218.633ZM4.557,211.8a2.278,2.278,0,0,1,2.278-2.278H22.021A2.278,2.278,0,0,1,24.3,211.8v6.834H22.021a.759.759,0,0,0-.759.759v3.8H7.594v-3.8a.759.759,0,0,0-.759-.759H4.557V211.8ZM1.52,220.152H6.075v9.112H1.52ZM4.557,232.3H3.038v-1.519H4.557Zm3.037-7.593H21.261v4.556H7.594v-4.556ZM25.817,232.3H24.3v-1.519h1.519Zm1.519-3.037H22.78v-9.112h4.556Z" transform="translate(-0.001 -188.261)"/><path class="b" d="M335.15,12.683,331.353.535A.759.759,0,0,0,330.629,0h-6.074a.759.759,0,0,0-.724.532l-3.8,12.149a.759.759,0,0,0,.724.987h6.074V41.005h-5.315a.759.759,0,0,0-.759.759V44.8a.759.759,0,0,0,.759.759h12.149a.759.759,0,0,0,.759-.759V41.764a.759.759,0,0,0-.759-.759h-5.315V13.67h6.074a.759.759,0,0,0,.759-.759A.748.748,0,0,0,335.15,12.683Zm-2.243,29.84v1.519h-10.63V42.524ZM321.791,12.152l3.322-10.63h4.958l3.322,10.63Z" transform="translate(-289.627 -0.003)"/><g transform="translate(3.796)"><path class="b" d="M61.261,3.037H54.695L51.106.167a.759.759,0,0,0-.949,0L46.567,3.037H40V16.7h21.26ZM50.631,1.731l1.632,1.306H49Zm9.112,13.455H41.52V4.556H59.743Z" transform="translate(-40.001 0)"/><path class="b" d="M64,65.115h16.7V56H64Zm1.519-7.593H79.187V63.6H65.52Z" transform="translate(-61.723 -50.688)"/></g></g><path class="c" d="M0,.675H5.668V11.084L0,11.36Z" transform="translate(22.175 30.734)"/><path class="c" d="M0,.006,11.916-.039l-.329,3.1L0,3.443Z" transform="translate(32.487 42.088)"/><path class="c" d="M-.239,7.069,8.893-4.4,12.211,7.069Z" transform="translate(32.162 5.648)"/><path class="d" d="M-8.944,7.922,10.844-3.171,10.41,8.287H3.141Z" transform="translate(13.347 7.383)"/></g></svg>