<svg xmlns="http://www.w3.org/2000/svg" width="20.025" height="20.025" viewBox="0 0 20.025 20.025"><defs><style>.a{fill:#fbbb00;}.b{fill:#518ef8;}.c{fill:#28b446;}.d{fill:#f14336;}</style></defs><path class="a" d="M4.438,144.962l-.7,2.6-2.548.054a10.03,10.03,0,0,1-.074-9.35h0l2.268.416.994,2.255a5.975,5.975,0,0,0,.056,4.023Z" transform="translate(0 -132.86)"/><path class="b" d="M271.245,208.176a10.009,10.009,0,0,1-3.569,9.679h0l-2.857-.146-.4-2.524a5.967,5.967,0,0,0,2.567-3.047h-5.354v-3.961h9.617Z" transform="translate(-251.395 -200.034)"/><path class="c" d="M45.6,315.128h0a10.016,10.016,0,0,1-15.088-3.063l3.245-2.656a5.955,5.955,0,0,0,8.581,3.049Z" transform="translate(-29.316 -297.308)"/><path class="d" d="M43.908,2.305,40.664,4.961a5.954,5.954,0,0,0-8.778,3.118l-3.262-2.67h0a10.015,10.015,0,0,1,15.284-3.1Z" transform="translate(-27.504)"/></svg>