<svg xmlns="http://www.w3.org/2000/svg" xmlns:xlink="http://www.w3.org/1999/xlink" width="182" height="43.368" viewBox="0 0 182 43.368"><defs><style>.a{fill:#6e6e6e;}.b{fill:#fff;}.c{fill:#40bff2;}.d{fill:url(#a);}.e{fill:url(#b);}.f{fill:url(#c);}</style><linearGradient id="a" x1="0.808" y1="0.5" x2="-1.573" y2="0.5" gradientUnits="objectBoundingBox"><stop offset="0" stop-color="gold"/><stop offset="0.075" stop-color="#fece00"/><stop offset="0.48" stop-color="#fca704"/><stop offset="0.803" stop-color="#fa8e07"/><stop offset="1" stop-color="#fa8608"/></linearGradient><linearGradient id="b" x1="0.862" y1="0.178" x2="-0.501" y2="1.948" gradientUnits="objectBoundingBox"><stop offset="0" stop-color="#e82b36"/><stop offset="1" stop-color="#b4005a"/></linearGradient><linearGradient id="c" x1="-0.507" y1="-0.956" x2="0.606" y2="0.489" gradientUnits="objectBoundingBox"><stop offset="0" stop-color="#2f8e5b"/><stop offset="0.39" stop-color="#4ea157"/><stop offset="0.768" stop-color="#67b054"/><stop offset="1" stop-color="#70b653"/></linearGradient></defs><g transform="translate(-0.485 -0.485)"><g transform="translate(0.485 0.485)"><g transform="translate(0 0)"><rect class="a" width="182" height="43.368" rx="7.382"/></g><g transform="translate(10.711 7.457)"><path class="b" d="M121.926,127.307a4.752,4.752,0,1,0,4.77,4.752A4.684,4.684,0,0,0,121.926,127.307Zm0,7.631a2.887,2.887,0,1,1,2.682-2.88A2.749,2.749,0,0,1,121.926,134.939Zm-10.4-7.631a4.752,4.752,0,1,0,4.769,4.752A4.683,4.683,0,0,0,111.521,127.307Zm0,7.631a2.887,2.887,0,1,1,2.681-2.88A2.749,2.749,0,0,1,111.521,134.939Zm-12.377-6.173v2.016h4.823a4.207,4.207,0,0,1-1.1,2.538,4.941,4.941,0,0,1-3.726,1.475,5.364,5.364,0,0,1,0-10.726,5.141,5.141,0,0,1,3.635,1.44l1.422-1.422a7.032,7.032,0,0,0-5.057-2.034,7.38,7.38,0,1,0,0,14.758,6.748,6.748,0,0,0,5.148-2.07,6.663,6.663,0,0,0,1.745-4.715,6.553,6.553,0,0,0-.108-1.26Zm50.616,1.566a4.417,4.417,0,0,0-4.068-3.024,4.515,4.515,0,0,0-4.481,4.752,4.65,4.65,0,0,0,4.715,4.752,4.726,4.726,0,0,0,3.96-2.106l-1.62-1.08a2.715,2.715,0,0,1-2.34,1.314,2.416,2.416,0,0,1-2.3-1.44l6.353-2.628Zm-6.48,1.584a2.607,2.607,0,0,1,2.484-2.772,1.839,1.839,0,0,1,1.764,1.008Zm-5.165,4.607H140.2V122.556h-2.087Zm-3.42-8.153h-.072a3.294,3.294,0,0,0-2.5-1.062,4.756,4.756,0,0,0,0,9.5,3.241,3.241,0,0,0,2.5-1.08h.072v.683c0,1.818-.972,2.79-2.537,2.79a2.629,2.629,0,0,1-2.394-1.692l-1.818.756a4.529,4.529,0,0,0,4.212,2.808c2.448,0,4.518-1.44,4.518-4.95V127.6H134.7Zm-2.394,6.569a2.89,2.89,0,0,1,0-5.759,2.9,2.9,0,0,1,0,5.759Zm27.237-12.382h-4.995v13.966h2.084v-5.291h2.911a4.344,4.344,0,1,0,0-8.675Zm.054,6.731h-2.965V124.5h2.965a2.394,2.394,0,1,1,0,4.788Zm12.882-2.006a3.914,3.914,0,0,0-3.719,2.138l1.851.773a1.974,1.974,0,0,1,1.9-1.025,2.007,2.007,0,0,1,2.192,1.8v.144a4.619,4.619,0,0,0-2.175-.539c-1.994,0-4.024,1.1-4.024,3.144a3.226,3.226,0,0,0,3.468,3.072,2.94,2.94,0,0,0,2.659-1.366h.072V136.5h2.012v-5.354C176.717,128.665,174.866,127.281,172.477,127.281Zm-.251,7.654c-.683,0-1.635-.342-1.635-1.186,0-1.078,1.186-1.492,2.21-1.492a3.714,3.714,0,0,1,1.9.467A2.527,2.527,0,0,1,172.225,134.936Zm11.822-7.349-2.39,6.055h-.072l-2.48-6.055h-2.246l3.719,8.463-2.12,4.707h2.174l5.732-13.17Zm-18.776,8.935h2.084V122.556h-2.084Z" transform="translate(-44.979 -110.995)"/><path class="c" d="M42.2,106.737a2.236,2.236,0,0,0-.516,1.568v24.687a2.234,2.234,0,0,0,.516,1.568l.083.081,13.829-13.829v-.326L42.286,106.656Z" transform="translate(-41.687 -106.293)"/><path class="d" d="M67.068,129.476l-4.609-4.611v-.326l4.611-4.611.1.059,5.462,3.1c1.56.886,1.56,2.337,0,3.223l-5.462,3.1Z" transform="translate(-48.031 -110.347)"/><path class="e" d="M61.056,131.516,56.342,126.8,42.43,140.712a1.816,1.816,0,0,0,2.32.069l16.306-9.265" transform="translate(-41.914 -112.446)"/><path class="f" d="M61.056,115.774,44.75,106.509a1.816,1.816,0,0,0-2.32.068l13.912,13.912Z" transform="translate(-41.914 -106.133)"/></g><g transform="translate(59.626 7.231)"><path class="b" d="M97.228,107.267a2.387,2.387,0,0,0-1.583-.611,2.525,2.525,0,0,0,0,5.046,1.906,1.906,0,0,0,2.1-1.775H95.875v-.772h2.88c0,2.309-1.231,3.4-3.11,3.4a3.372,3.372,0,0,1,0-6.744,3.248,3.248,0,0,1,2.223.868Z" transform="translate(-92.326 -105.808)"/><path class="b" d="M107.22,105.918v.829h-3v2.1h2.623v.83h-2.623v1.984h3.1v.83h-3.987v-6.572Z" transform="translate(-95.686 -105.842)"/><path class="b" d="M115.065,105.918v.839h-1.994v5.733h-.9v-5.733h-1.994v-.839Z" transform="translate(-97.779 -105.842)"/><path class="b" d="M122.95,105.918v6.572h-.887v-6.572Z" transform="translate(-101.408 -105.842)"/><path class="b" d="M129.9,105.918v.839h-1.994v5.733h-.9v-5.733h-1.994v-.839Z" transform="translate(-102.31 -105.842)"/><path class="b" d="M139.6,105.808a3.372,3.372,0,1,1-3.319,3.377A3.333,3.333,0,0,1,139.6,105.808Zm0,5.885a2.515,2.515,0,1,0-2.432-2.508A2.45,2.45,0,0,0,139.6,111.693Z" transform="translate(-105.75 -105.808)"/><path class="b" d="M151.712,112.49l-3-4.95v4.95h-.887v-6.572h.877l2.967,4.912v-4.912h.887v6.572Z" transform="translate(-109.278 -105.842)"/></g></g></g></svg>