<?xml version="1.0" standalone="no"?>
<!DOCTYPE svg PUBLIC "-//W3C//DTD SVG 20010904//EN"
 "http://www.w3.org/TR/2001/REC-SVG-20010904/DTD/svg10.dtd">
<svg version="1.0" xmlns="http://www.w3.org/2000/svg"
 width="640.000000pt" height="960.000000pt" viewBox="0 0 640.000000 960.000000"
 preserveAspectRatio="xMidYMid meet">
<metadata>
Created by potrace 1.16, written by Peter Selinger 2001-2019
</metadata>
<g transform="translate(0.000000,960.000000) scale(0.100000,-0.100000)"
fill="#000000" stroke="none">
<path d="M0 8265 c0 -883 3 -1335 10 -1335 6 0 10 -6 10 -14 0 -8 5 -18 11
-22 8 -5 10 2 6 22 -5 27 -4 28 9 9 8 -11 13 -27 11 -36 -2 -9 1 -16 7 -16 7
0 11 13 9 31 -1 17 0 24 3 16 6 -21 59 -43 84 -35 11 4 20 2 20 -4 0 -6 10
-11 23 -11 12 0 46 -9 75 -20 50 -19 213 -49 297 -55 54 -3 94 -11 130 -25 17
-6 75 -16 130 -21 55 -5 110 -11 122 -12 12 -1 25 -5 29 -9 4 -5 63 -8 130 -8
77 0 125 -4 130 -11 3 -6 17 -8 29 -5 13 3 35 2 49 -4 14 -5 88 -12 164 -14
77 -3 156 -8 178 -11 111 -16 894 -38 894 -25 0 4 138 10 308 13 169 3 339 11
377 16 67 10 351 23 463 21 30 -1 52 3 52 9 0 6 16 11 35 11 27 0 38 -5 45
-22 10 -23 10 -23 7 2 -2 22 3 26 43 33 68 12 243 28 257 23 6 -3 13 -1 15 5
2 5 17 7 35 3 30 -6 31 -7 18 -28 -15 -22 -14 -22 45 -18 40 3 60 0 60 -7 0
-7 -28 -11 -81 -11 -51 0 -78 4 -74 10 4 6 -12 10 -39 10 -25 0 -46 -4 -46
-10 0 -5 15 -10 34 -10 19 0 38 -4 41 -10 4 -6 -5 -10 -19 -10 -24 0 -25 -2
-14 -20 11 -18 24 -20 105 -20 73 0 93 3 93 14 0 11 22 16 88 20 48 4 137 12
197 18 61 6 147 13 193 15 45 3 82 9 82 14 0 5 18 9 39 9 22 0 41 5 43 12 3 8
39 12 121 11 64 0 117 4 117 9 0 4 24 8 53 8 29 0 58 5 64 11 5 5 36 13 67 16
31 3 56 9 56 13 0 5 36 11 80 15 67 6 80 10 80 25 0 20 27 30 85 30 26 0 35 3
26 9 -22 14 4 23 91 28 53 4 81 10 85 19 4 11 8 11 20 -1 16 -17 73 -20 73 -5
0 6 -4 10 -10 10 -18 0 -11 20 8 21 9 1 -1 5 -23 8 -22 4 -51 3 -65 -2 -30
-10 -170 -1 -183 12 -15 15 80 26 98 11 8 -6 18 -9 24 -6 5 3 11 1 13 -6 3 -8
9 -8 22 -1 16 9 14 11 -13 16 -49 10 -39 31 12 23 23 -4 62 -10 87 -13 51 -7
75 -24 58 -41 -19 -19 -3 -24 49 -16 l48 7 -35 13 -35 12 38 -1 c21 0 40 -4
43 -9 7 -11 44 -10 44 2 0 5 41 11 92 12 78 3 92 6 94 21 1 9 -2 15 -7 11 -5
-3 -12 2 -15 10 -3 9 -14 16 -23 16 -17 0 -46 38 -36 48 3 3 26 0 52 -6 40
-11 48 -11 64 4 18 17 19 60 19 1266 l0 1248 -3200 0 -3200 0 0 -1335z m5440
-1353 c0 -26 -3 -28 -37 -28 -20 0 -38 -5 -41 -12 -2 -8 -36 -12 -108 -12 -75
0 -103 -3 -101 -12 3 -18 -99 -33 -129 -19 -15 6 -48 8 -84 4 -56 -5 -60 -4
-60 15 0 17 8 21 46 24 25 2 51 0 59 -4 19 -11 134 -17 137 -7 2 5 17 9 34 11
24 2 30 6 26 20 -4 16 3 18 47 18 28 0 51 -4 51 -10 0 -12 50 -13 69 -1 8 5
10 14 6 21 -6 10 -2 11 16 7 13 -3 31 -2 39 3 24 15 30 12 30 -18z"/>
<path d="M6171 6736 c-6 -7 -9 -30 -7 -49 3 -20 1 -39 -4 -42 -15 -9 -12 -35
6 -53 15 -14 15 -16 -5 -24 -11 -4 -21 -12 -21 -18 0 -5 -7 -10 -15 -10 -18 0
-19 -12 -4 -27 9 -9 8 -16 -5 -28 -9 -9 -19 -14 -24 -11 -21 12 -36 -14 -33
-58 1 -28 -2 -46 -8 -46 -7 0 -9 -10 -5 -25 6 -25 -9 -35 -21 -14 -7 10 -58
33 -62 27 -1 -2 -8 6 -16 16 -8 11 -19 16 -25 12 -7 -4 -12 -2 -12 3 0 6 -5
11 -10 11 -6 0 -10 -6 -9 -12 4 -33 -2 -47 -17 -41 -14 5 -14 3 -3 -15 10 -16
10 -23 0 -36 -7 -8 -9 -20 -5 -27 5 -9 0 -10 -19 -5 -14 3 -29 1 -32 -4 -8
-14 12 -40 28 -36 7 1 9 1 5 -1 -5 -3 -8 -12 -8 -22 0 -12 -8 -17 -32 -16 -29
0 -33 3 -32 28 1 31 -2 33 -22 12 -9 -8 -21 -15 -27 -14 -9 0 -8 2 1 6 6 2 12
10 12 16 0 5 -3 7 -6 4 -4 -4 -14 8 -23 26 -9 17 -24 34 -35 35 -11 3 -16 0
-12 -7 4 -6 0 -11 -9 -11 -12 0 -15 6 -10 20 3 11 2 20 -3 20 -5 0 -12 10 -15
22 l-6 22 -21 -24 c-26 -29 -25 -50 1 -79 12 -12 18 -25 14 -29 -4 -4 -12 0
-18 8 -12 15 -47 16 -47 1 0 -18 -33 -5 -41 16 -5 13 -13 29 -19 36 -6 6 -17
21 -26 32 -14 19 -14 18 -13 -15 0 -19 0 -37 -1 -40 -7 -16 -8 -60 -1 -60 4 0
8 -7 8 -15 0 -8 -4 -15 -9 -15 -4 0 -8 -7 -8 -15 0 -8 -4 -15 -10 -15 -5 0
-10 4 -10 9 0 5 -7 11 -15 15 -22 8 -18 -9 10 -42 33 -39 32 -52 -4 -49 -16 1
-27 5 -25 9 2 4 0 9 -6 13 -6 4 -10 -6 -10 -24 0 -16 -5 -31 -12 -33 -18 -6
45 -59 65 -54 10 2 17 -2 17 -10 0 -8 -6 -14 -14 -12 -8 2 -15 -1 -15 -7 -1
-5 7 -10 17 -10 10 -1 29 -9 42 -18 14 -10 26 -13 28 -7 5 15 42 12 42 -3 0
-23 -33 -34 -60 -20 -14 7 -20 13 -15 13 11 0 -16 20 -28 20 -5 0 -5 -5 -1
-11 5 -8 2 -9 -11 -1 -14 7 -23 5 -38 -9 -21 -19 -37 -17 -37 6 0 9 -12 12
-42 9 l-43 -4 30 15 c27 14 28 15 6 13 -18 -2 -25 2 -27 20 -3 14 0 21 6 17 5
-3 10 -1 10 4 0 6 -5 11 -11 11 -5 0 -7 5 -4 10 3 6 -1 10 -10 10 -11 0 -15
-5 -12 -14 3 -7 0 -19 -6 -25 -9 -9 -9 -14 2 -20 8 -5 11 -16 8 -24 -3 -8 0
-20 6 -27 10 -10 6 -11 -15 -6 -14 3 -34 9 -44 13 -15 6 -15 2 5 -25 13 -19
17 -32 10 -32 -8 0 -8 -4 1 -16 8 -9 25 -14 44 -12 24 2 33 -2 41 -19 5 -13
16 -23 23 -23 8 0 10 5 5 13 -22 35 -8 40 44 15 l22 -11 -22 -18 c-21 -18 -21
-18 -2 -19 17 0 16 -3 -7 -18 -16 -9 -28 -20 -28 -24 0 -5 -14 -8 -30 -8 -27
0 -30 -2 -20 -20 9 -16 8 -18 -5 -14 -8 4 -15 10 -15 14 0 13 -52 22 -63 11
-16 -16 11 -41 43 -41 37 0 61 -10 54 -21 -3 -5 10 -9 30 -9 19 0 43 -3 53 -6
15 -5 15 -4 3 5 -9 7 -10 11 -3 11 19 0 27 -21 12 -31 -12 -8 -12 -11 1 -19
11 -8 8 -10 -15 -6 -16 2 -39 8 -50 12 -18 7 -18 6 -7 -9 12 -14 11 -17 -10
-21 -38 -7 -68 -2 -68 11 0 7 -9 13 -21 13 -18 0 -20 -4 -14 -30 5 -25 3 -30
-11 -30 -13 0 -15 3 -7 11 16 16 -3 34 -44 42 -27 5 -32 3 -37 -19 -6 -23 -9
-24 -23 -12 -15 11 -16 11 -10 -4 5 -16 -5 -18 -101 -20 l-107 -3 -5 -64 -5
-65 -64 -44 c-73 -49 -116 -59 -116 -27 0 11 -6 21 -13 21 -37 4 -37 4 -24 13
9 5 1 10 -24 14 -24 4 -41 2 -45 -5 -5 -8 -12 -9 -21 -2 -7 6 -32 16 -55 24
-37 11 -48 11 -80 -3 -62 -26 -83 -30 -84 -15 0 7 -4 3 -9 -8 -5 -12 -21 -25
-36 -28 -15 -4 -36 -13 -46 -20 -18 -13 -18 -15 -2 -30 13 -14 14 -20 4 -29
-8 -8 -11 -8 -7 -1 4 6 -2 19 -13 29 -15 13 -17 21 -9 31 8 10 4 13 -18 16
-24 4 -26 5 -9 13 11 5 26 4 37 -4 16 -9 19 -8 19 5 0 12 7 15 30 12 34 -5 36
9 4 26 -10 6 -21 13 -24 16 -3 3 -17 11 -32 19 -22 11 -32 12 -58 1 -41 -17
-48 -31 -13 -26 15 2 20 1 11 -1 -9 -2 -15 -10 -12 -18 3 -7 14 -11 26 -7 14
3 19 1 14 -6 -11 -17 -43 -15 -50 4 -4 10 -12 14 -22 10 -9 -4 -32 3 -51 14
-30 17 -34 18 -40 4 -3 -9 0 -20 7 -24 10 -6 9 -9 -1 -12 -15 -5 -65 12 -110
37 -23 13 -30 13 -56 0 -27 -13 -35 -13 -65 -1 -18 8 -76 26 -127 41 -52 14
-111 35 -132 46 -62 31 -205 62 -229 49 -11 -6 -25 -8 -30 -5 -5 3 -11 1 -15
-4 -3 -5 -20 -17 -37 -26 -29 -14 -33 -14 -47 0 -12 12 -13 18 -4 23 8 5 1 12
-20 21 -18 8 -42 25 -53 37 -20 21 -23 22 -45 6 -13 -9 -28 -22 -32 -29 -11
-18 -23 -16 -46 8 -17 18 -27 20 -64 15 -24 -4 -59 -18 -78 -31 -18 -14 -41
-25 -50 -25 -10 0 -25 -8 -34 -17 -16 -15 -32 -20 -78 -22 -10 -1 -16 -5 -12
-10 3 -5 -7 -9 -23 -9 -15 1 -39 -5 -52 -12 -14 -8 -66 -24 -117 -36 -79 -18
-93 -19 -98 -7 -3 8 -12 13 -20 9 -8 -3 -14 -2 -13 2 4 14 -47 59 -74 66 -21
5 -28 3 -28 -9 0 -8 -6 -14 -12 -12 -9 1 -12 -9 -11 -31 1 -31 0 -32 -16 -18
-20 18 -41 21 -41 5 0 -5 -5 -7 -11 -3 -7 4 -10 -1 -7 -12 2 -11 -6 -30 -18
-43 -21 -22 -22 -22 -42 -5 -16 14 -18 20 -9 27 9 7 9 10 0 14 -7 2 -13 10
-13 16 0 7 -17 12 -42 12 -24 0 -59 3 -78 7 -42 9 -75 -6 -50 -22 13 -8 13
-10 -1 -10 -19 0 -29 -20 -29 -56 0 -13 -5 -24 -11 -24 -6 0 -8 8 -5 18 5 14
3 13 -9 -3 -15 -19 -32 -20 -268 -26 -199 -4 -258 -3 -281 8 -32 14 -70 8 -63
-10 19 -47 21 -45 -29 -40 -26 2 -55 8 -65 13 -11 7 -19 6 -21 -1 -2 -5 -11
-7 -19 -4 -17 6 -23 55 -8 55 5 0 9 -6 9 -12 0 -9 4 -8 10 2 6 10 10 11 10 3
0 -7 4 -13 10 -13 6 0 6 9 0 24 -5 13 -6 33 -3 45 3 13 1 21 -7 21 -7 0 -10
11 -8 28 2 22 -1 28 -19 30 -23 3 -33 22 -12 22 5 0 8 4 4 10 -10 16 -37 -1
-30 -19 13 -32 13 -59 -1 -54 -8 3 -14 10 -15 17 0 6 -4 2 -8 -8 -7 -18 -8
-18 -14 -2 -5 12 0 19 16 26 14 6 17 9 6 9 -16 1 -59 41 -44 41 5 0 0 6 -10
14 -19 14 -55 10 -55 -6 0 -5 -5 -6 -11 -3 -6 4 -13 -2 -16 -14 -3 -12 -12
-21 -19 -21 -8 0 -14 -4 -14 -10 0 -5 5 -10 11 -10 6 0 9 -7 5 -15 -3 -8 -1
-15 4 -15 6 0 10 5 10 12 0 6 3 9 6 5 8 -8 -18 -80 -33 -90 -7 -4 -13 -19 -13
-32 0 -14 -6 -25 -12 -25 -7 0 -24 -3 -38 -6 l-25 -6 24 21 c13 12 18 21 12
21 -7 0 -9 5 -6 10 3 6 1 10 -4 10 -6 0 -11 11 -11 25 0 14 -7 28 -16 32 -8 3
-13 11 -10 18 8 21 -5 25 -30 9 -13 -9 -28 -13 -34 -9 -5 3 -10 1 -10 -6 0 -6
-8 -9 -20 -6 -16 4 -20 0 -20 -21 0 -15 -4 -33 -9 -41 -5 -8 -3 -27 5 -47 l14
-34 -57 5 c-35 3 -62 11 -69 20 -6 8 -17 15 -23 15 -7 0 -9 4 -6 10 3 5 1 19
-5 30 -7 13 -7 20 0 20 5 0 10 6 10 14 0 8 -6 14 -12 13 -52 -2 -63 4 -65 30
-1 26 19 57 31 46 14 -15 4 19 -11 37 -19 22 -45 27 -42 8 3 -29 -2 -49 -11
-43 -8 5 -7 11 1 21 14 17 -2 19 -20 2 -10 -11 -11 -10 -6 4 5 11 -2 22 -19
33 -16 11 -26 27 -26 41 0 13 -4 24 -9 24 -5 0 -17 3 -27 7 -11 4 -15 3 -11
-4 4 -6 4 -19 0 -29 -6 -15 -7 -14 -15 6 -6 17 -4 28 9 42 17 19 17 20 -1 33
-10 8 -15 18 -12 24 4 5 -3 15 -14 21 -11 6 -20 8 -20 4 0 -3 -7 -1 -15 6 -8
7 -13 16 -10 20 3 5 -2 16 -11 24 -14 15 -14 16 5 16 11 0 23 -5 26 -10 4 -6
11 -8 16 -4 13 8 -8 34 -27 34 -19 0 -18 10 4 27 16 14 16 14 -1 9 -20 -6 -22
9 -6 51 8 23 8 26 -2 16 -20 -20 -31 -15 -19 7 6 11 7 20 3 20 -13 0 -34 -40
-28 -50 4 -6 1 -10 -4 -10 -6 0 -11 -9 -11 -21 0 -15 5 -19 15 -15 8 3 15 2
15 -3 0 -11 -53 -22 -60 -12 -3 4 -21 13 -40 21 -49 19 -56 27 -19 22 21 -3
30 -1 25 6 -4 6 -14 8 -23 5 -13 -5 -15 -2 -10 11 4 10 3 15 -3 11 -5 -3 -18
-1 -27 5 -17 11 -17 11 1 6 20 -7 46 9 46 29 0 8 -9 10 -25 7 -14 -2 -25 0
-25 7 0 5 7 8 15 5 11 -5 13 -2 9 10 -4 11 -1 16 13 16 10 0 24 9 30 19 10 16
9 20 -5 24 -14 4 -13 6 6 12 12 4 22 14 22 21 0 8 7 14 15 14 8 0 15 5 15 10
0 6 -5 10 -11 10 -6 0 -9 6 -7 12 3 7 -1 19 -9 26 -19 19 -17 46 3 38 9 -3 25
0 36 8 11 8 27 12 34 9 8 -3 14 0 14 6 0 6 6 11 14 11 7 0 16 9 19 20 6 23 -1
25 -28 6 -11 -7 -28 -10 -39 -6 -17 6 -18 7 -3 13 9 3 17 11 17 17 0 7 -6 7
-21 0 -11 -7 -23 -9 -26 -6 -3 3 6 10 21 15 30 12 36 36 6 26 -15 -5 -18 -3
-14 9 3 9 11 16 18 16 6 0 13 11 14 25 2 28 -9 32 -27 11 -6 -7 -22 -11 -35
-9 -18 4 -26 -1 -32 -19 -4 -12 -7 -26 -6 -30 3 -11 -16 -10 -22 1 -4 5 0 12
6 15 10 5 10 7 1 12 -19 9 -16 31 8 47 33 23 30 77 -6 113 -16 16 -39 29 -52
29 l-22 1 0 -364 c0 -318 2 -364 15 -369 13 -5 13 -7 2 -14 -10 -7 -14 -102
-16 -494 -2 -331 1 -484 8 -480 5 3 10 2 10 -4 0 -5 -4 -13 -10 -16 -16 -10
-13 -78 4 -72 7 3 24 -5 38 -18 18 -17 29 -20 41 -13 11 6 17 5 17 -2 0 -6 -7
-13 -16 -17 -8 -3 -13 -12 -10 -19 4 -9 -2 -14 -17 -15 l-22 0 23 -9 c21 -9
31 -21 15 -19 -32 5 -63 -3 -58 -13 4 -7 -1 -4 -9 6 -15 19 -16 15 -16 -47 0
-67 0 -68 30 -73 39 -8 39 -22 0 -16 l-30 4 0 -372 c0 -251 4 -378 11 -392 6
-12 7 -23 2 -27 -5 -3 -8 -26 -8 -51 2 -66 4 -72 18 -64 6 4 4 -2 -6 -13 -13
-15 -17 -38 -17 -105 0 -60 4 -88 13 -91 9 -4 9 -6 0 -6 -10 -1 -13 -340 -13
-1661 l0 -1660 3200 0 3200 0 0 1050 0 1050 -26 10 c-15 6 -41 12 -58 14 -17
3 -44 9 -59 15 -16 6 -44 11 -63 11 -19 0 -34 5 -34 11 0 7 -18 10 -47 8 -34
-2 -63 5 -98 21 -27 13 -70 25 -95 27 -184 14 -189 14 -183 29 3 9 -2 14 -15
14 -12 0 -23 4 -27 10 -3 6 -15 6 -29 0 -25 -9 -66 -3 -66 10 0 5 -14 11 -30
15 -17 4 -37 13 -45 22 -16 16 -51 10 -40 -6 3 -6 12 -8 20 -4 9 3 15 -1 15
-9 0 -10 -10 -13 -34 -10 -25 3 -33 8 -29 18 3 9 -2 14 -14 14 -10 0 -24 5
-31 12 -9 9 -15 9 -24 0 -16 -16 -28 -15 -28 2 0 15 -47 29 -94 28 -16 0 -46
8 -67 19 -24 12 -59 19 -93 19 -57 0 -103 15 -122 39 -6 8 -16 11 -21 8 -12
-8 -75 12 -84 25 -3 5 -30 10 -60 10 -30 1 -60 7 -67 15 -9 9 -26 11 -53 7
-21 -4 -44 -2 -51 4 -15 11 -74 21 -175 28 -40 3 -73 9 -73 14 0 9 -50 19
-135 27 -33 2 -68 12 -77 20 -12 11 -27 13 -50 9 -18 -4 -42 -7 -53 -7 -11 0
-69 -5 -129 -11 -83 -8 -111 -8 -114 0 -2 7 -18 12 -35 12 -18 0 -50 5 -72 10
-46 10 -85 4 -85 -15 0 -7 10 -16 23 -20 l22 -8 -24 -4 c-13 -3 -27 0 -30 6
-5 8 -112 30 -153 31 -5 0 -8 9 -8 20 0 13 -7 20 -20 20 -11 0 -20 -7 -20 -15
0 -23 -69 -47 -117 -42 -32 3 -43 1 -43 -9 0 -8 -7 -14 -15 -14 -8 0 -15 4
-15 10 0 5 -11 12 -25 16 -14 3 -25 12 -25 20 0 8 -9 14 -20 14 -11 0 -20 -4
-20 -9 0 -5 9 -13 20 -16 11 -3 20 -13 20 -22 0 -11 -6 -13 -20 -9 -11 3 -29
9 -40 12 -12 4 -20 2 -20 -5 0 -6 -10 -11 -22 -11 -12 0 -18 -3 -15 -7 9 -9
-12 -33 -29 -33 -8 0 -14 9 -14 20 0 11 -7 20 -15 20 -9 0 -15 -9 -15 -22 0
-17 -3 -19 -9 -10 -7 11 -13 9 -30 -9 -11 -12 -21 -17 -21 -11 0 7 -5 12 -11
12 -5 0 -7 -4 -4 -10 3 -5 1 -10 -4 -10 -20 0 -11 31 12 40 22 10 22 10 -3 7
-15 -1 -29 -11 -35 -24 -11 -25 -50 -32 -59 -10 -3 9 -8 7 -19 -5 -11 -14 -19
-15 -43 -8 l-29 10 27 -4 c24 -3 27 0 22 20 -4 16 -1 23 13 27 10 3 -15 5 -54
6 -43 1 -73 -3 -73 -9 0 -5 7 -10 15 -10 8 0 15 -4 15 -10 0 -5 -20 -10 -45
-10 -39 0 -45 3 -45 22 0 12 -3 18 -7 14 -5 -4 -8 -12 -8 -17 0 -5 -4 -8 -10
-6 -5 1 -9 5 -8 9 2 5 -1 8 -6 8 -5 0 -11 -5 -13 -11 -2 -6 -47 -10 -118 -10
-129 -1 -220 -15 -220 -36 0 -9 -13 -13 -39 -13 -33 0 -40 4 -44 22 -2 13 -3
8 -1 -10 3 -31 1 -33 -21 -28 -13 3 -30 9 -39 12 -12 5 -16 0 -16 -20 0 -24
-3 -26 -46 -26 -31 0 -54 -7 -71 -20 -31 -24 -43 -25 -43 -3 0 23 -13 7 -17
-20 -3 -22 1 -23 64 -25 77 -3 101 -9 121 -28 7 -8 28 -14 45 -14 l32 -1 -40
-15 c-40 -14 -186 -21 -205 -9 -5 3 -10 -1 -10 -10 0 -8 16 -23 35 -32 19 -9
35 -20 35 -25 0 -14 -33 -9 -52 9 -18 16 -18 16 -12 0 7 -20 -13 -30 -53 -24
l-28 4 30 7 c20 5 31 14 32 27 2 23 -12 25 -21 4 -3 -8 -13 -15 -23 -15 -14 0
-15 2 -4 9 10 7 8 15 -15 40 -15 17 -36 31 -46 31 -10 0 -18 4 -18 10 0 5 -3
9 -7 9 -27 -4 -83 2 -79 9 3 5 -8 6 -24 4 -46 -7 -80 5 -80 28 0 11 -4 20 -10
20 -5 0 -10 -9 -10 -20 0 -13 -8 -21 -25 -25 -14 -3 -36 -7 -49 -10 -39 -8
-84 -52 -82 -79 0 -13 4 -22 8 -19 5 2 8 0 8 -6 0 -5 13 -12 30 -16 16 -4 30
-13 30 -20 0 -16 24 -28 70 -34 8 -1 -3 -8 -25 -16 -21 -8 -46 -23 -55 -34 -8
-11 -40 -26 -70 -34 -58 -16 -194 -47 -203 -47 -3 0 -15 33 -27 73 -12 39 -30
86 -41 103 -23 39 -25 62 -3 40 25 -26 30 -18 5 8 -12 13 -36 26 -52 30 -18 3
-33 14 -38 28 -10 26 -37 52 -64 61 -16 6 -15 9 10 31 19 17 30 21 35 13 6 -9
8 -8 8 1 0 7 5 10 12 6 7 -4 8 -3 4 5 -4 6 -12 8 -18 5 -6 -4 -9 -1 -6 7 3 8
18 17 34 20 16 4 21 7 11 8 -16 1 -15 4 7 23 25 23 25 24 9 57 -16 33 -85 91
-107 91 -6 0 -5 -4 3 -9 7 -5 10 -14 7 -20 -4 -6 0 -11 8 -11 9 0 16 -6 16
-14 0 -8 3 -21 6 -30 5 -14 3 -14 -22 -1 -20 10 -30 11 -35 3 -4 -6 -12 5 -19
24 -15 39 -52 72 -43 37 3 -11 9 -22 14 -25 12 -7 12 -54 0 -54 -5 0 -18 -8
-27 -17 -17 -17 -18 -17 -11 0 4 11 1 20 -8 23 -9 4 -15 19 -15 39 0 40 -9 65
-22 65 -6 0 -31 -14 -56 -31 -37 -25 -47 -28 -53 -16 -5 8 -34 32 -66 53 -32
21 -85 60 -118 85 -115 89 -359 196 -422 184 -24 -4 -33 -3 -28 5 4 6 -4 20
-16 31 -18 16 -20 22 -10 28 18 11 3 34 -16 26 -14 -5 -14 -3 -2 12 7 10 14
19 15 21 0 1 15 -11 32 -28 20 -19 42 -30 59 -30 22 0 25 2 13 10 -8 5 -11 10
-6 10 5 0 2 7 -5 16 -12 15 -11 16 9 10 13 -5 22 -3 22 3 0 6 -6 11 -14 11 -8
0 -18 5 -22 11 -4 8 0 9 15 4 12 -4 21 -2 21 4 0 6 -7 11 -15 11 -25 0 -17 17
10 22 14 3 30 -1 36 -8 15 -18 29 -18 29 1 0 8 -7 15 -15 15 -8 0 -15 4 -15 8
0 10 -41 9 -57 -1 -8 -5 -13 -4 -13 2 0 6 5 11 11 11 5 0 7 5 3 11 -3 6 -17 8
-30 5 -14 -4 -24 -2 -24 4 0 13 30 62 44 72 5 3 2 13 -7 23 -10 9 -22 25 -27
36 -6 10 -20 19 -30 19 -27 0 -25 18 2 22 20 3 21 4 5 20 -9 9 -21 18 -25 20
-5 1 -13 13 -16 25 -6 17 -3 23 8 23 19 0 20 5 6 31 -7 13 -7 19 0 19 5 0 10
7 10 15 0 8 5 15 10 15 6 0 15 10 20 23 7 17 9 18 9 5 1 -10 6 -18 12 -18 6 0
17 -7 25 -15 9 -8 24 -15 35 -15 23 0 23 1 3 -39 -15 -31 -15 -34 1 -49 17
-16 17 -16 12 1 -4 10 -1 17 7 17 9 0 12 9 8 26 -3 16 1 30 9 35 9 6 10 9 2 9
-7 0 -11 15 -10 42 2 36 6 43 27 48 20 5 25 12 25 38 0 20 5 32 13 32 10 0 12
6 7 18 -14 33 -10 45 18 53 16 4 25 4 21 -2 -3 -5 0 -9 5 -9 6 0 11 7 11 16 0
13 -7 15 -35 11 -28 -5 -32 -3 -23 6 30 28 68 46 85 40 10 -3 14 -2 10 2 -4 5
3 15 15 23 14 8 16 11 5 8 -11 -4 -16 -2 -12 5 8 12 -14 41 -26 33 -5 -3 -9 4
-9 15 0 11 5 23 10 26 6 3 10 -3 10 -14 0 -27 45 -29 59 -3 5 10 20 23 33 30
28 16 49 59 42 88 -3 12 3 30 14 44 18 22 22 23 38 10 16 -14 17 -13 11 4 -5
12 -3 23 5 28 9 5 6 8 -9 8 -14 0 -23 6 -23 15 0 18 17 20 22 3 3 -9 9 -8 21
4 21 20 23 35 2 18 -8 -6 -19 -8 -26 -4 -16 10 44 34 69 27 11 -2 32 3 46 12
21 14 26 14 26 3 0 -18 60 -42 65 -25 11 40 16 48 25 42 5 -3 19 -1 30 5 17 9
22 7 30 -12 8 -21 9 -21 9 8 1 54 50 54 51 1 0 -16 6 -18 42 -13 23 3 50 13
60 22 11 11 18 13 18 5 0 -9 5 -9 20 -1 16 8 20 8 18 -2 -2 -7 6 -14 18 -16
18 -3 20 1 16 28 -3 24 -1 30 14 30 15 0 16 2 5 9 -7 5 -10 14 -7 20 12 19 -4
33 -22 19 -13 -11 -15 -10 -10 9 3 12 1 24 -6 27 -8 3 -7 7 2 14 8 5 13 12 13
16 -1 7 8 8 32 0 11 -3 24 1 30 9 7 9 31 17 55 20 43 4 43 4 37 -24 -8 -36 16
-49 41 -24 12 12 25 15 43 10 14 -4 134 -11 266 -15 231 -7 275 -12 275 -31 0
-5 8 -9 18 -9 16 -1 16 -2 -2 -15 -16 -12 -17 -17 -5 -44 10 -23 23 -33 46
-37 17 -3 37 -3 44 2 7 4 27 8 46 10 18 1 39 7 47 13 7 6 16 8 19 4 4 -3 7 -1
7 5 0 7 -6 12 -14 12 -9 0 -12 7 -9 20 3 11 9 18 13 15 4 -3 13 2 20 10 11 14
15 13 27 -5 8 -11 11 -24 8 -30 -4 -6 1 -7 11 -3 12 4 15 3 10 -5 -4 -7 -1
-21 7 -32 12 -18 16 -18 33 -5 26 20 36 18 29 -4 -8 -25 24 -59 53 -57 11 0
33 15 49 32 15 17 33 29 40 27 7 -3 15 8 18 24 4 15 8 33 10 40 2 6 -3 14 -11
17 -24 9 -31 7 -14 -4 9 -6 10 -10 3 -10 -22 0 -25 21 -4 27 11 3 18 10 14 16
-3 5 -1 7 4 4 14 -9 30 11 38 46 4 15 9 27 12 27 20 0 142 -36 158 -47 11 -7
31 -13 45 -13 33 0 120 -29 120 -40 0 -5 15 -12 32 -16 18 -3 48 -18 67 -32
31 -25 34 -25 46 -8 7 9 17 18 22 18 4 0 18 4 31 9 13 5 28 9 33 9 5 0 9 8 9
18 0 15 -6 18 -28 14 -18 -2 -35 2 -45 13 -19 18 -23 55 -6 55 6 0 8 -9 4 -20
-8 -24 -3 -25 35 -5 17 9 30 11 30 6 0 -16 40 -8 41 9 0 9 4 5 10 -8 l9 -23
27 19 c18 12 39 17 60 15 17 -2 34 1 38 8 5 8 1 9 -16 4 -21 -7 -22 -6 -10 9
8 9 19 15 25 13 6 -2 17 3 24 12 10 12 15 13 18 3 9 -19 23 -4 17 18 -7 25
-19 25 -35 0 -18 -28 -23 -25 -25 16 -1 30 1 33 13 23 9 -7 14 -8 14 -1 0 16
58 77 66 69 4 -4 2 -7 -4 -7 -7 0 -12 -4 -12 -10 0 -5 7 -10 15 -10 8 0 15 -4
15 -10 0 -5 -8 -7 -17 -4 -14 5 -15 4 -4 -4 12 -9 12 -14 -3 -36 -30 -46 1
-27 38 23 42 57 65 79 62 59 -1 -7 -5 -19 -10 -26 -4 -7 -5 -16 -2 -19 3 -4 6
0 6 8 0 11 2 11 10 -1 8 -13 10 -12 10 3 0 10 8 17 20 17 12 0 35 7 52 16 24
12 36 14 49 6 12 -8 28 -8 54 1 31 9 34 12 19 19 -11 4 3 5 31 2 46 -4 51 -3
67 23 10 15 18 22 18 15 0 -9 5 -10 19 -2 17 8 20 7 18 -10 -1 -11 -6 -20 -12
-20 -5 0 -22 -6 -37 -14 -15 -8 -53 -20 -85 -26 -32 -7 -90 -28 -130 -46 -39
-19 -75 -34 -80 -34 -15 0 -113 -53 -113 -61 0 -5 -7 -6 -15 -3 -8 3 -17 0
-20 -8 -3 -8 -11 -15 -18 -15 -17 0 -67 -33 -67 -44 0 -5 5 -9 11 -9 6 0 3 -7
-6 -16 -12 -13 -19 -14 -30 -4 -13 10 -15 8 -15 -11 0 -15 -10 -30 -25 -40
-23 -13 -24 -17 -11 -34 14 -19 15 -18 49 18 20 20 41 37 47 37 6 0 15 11 20
25 12 31 29 31 83 3 77 -40 77 -40 93 -23 9 8 26 18 40 21 13 3 24 11 24 16 0
6 7 7 16 4 8 -3 12 -2 9 4 -3 6 -1 10 5 10 6 0 25 15 43 34 33 34 68 49 93 39
8 -3 11 -9 8 -14 -3 -5 3 -9 12 -9 14 0 15 -3 6 -12 -6 -6 -24 -11 -40 -10
-20 0 -37 -8 -51 -24 -11 -13 -26 -24 -33 -24 -6 0 -9 -2 -6 -5 3 -3 47 10 97
30 51 19 99 35 107 35 8 0 13 3 13 8 -3 19 2 26 10 13 8 -12 18 -11 68 6 69
24 91 31 80 25 -5 -2 3 -10 18 -18 24 -12 32 -11 83 15 64 32 118 37 144 14
16 -14 20 -13 52 15 19 16 32 33 29 36 -3 3 -12 -2 -20 -12 -12 -16 -13 -16
-6 2 4 13 3 17 -5 12 -7 -4 -12 -2 -12 5 0 10 -3 10 -12 1 -8 -8 -8 -15 2 -27
10 -12 10 -15 -3 -15 -9 0 -23 10 -32 22 -15 22 -14 23 11 32 18 6 34 5 46 -3
15 -9 20 -8 24 4 4 8 13 15 21 15 8 0 11 5 8 10 -3 6 -2 10 3 10 6 0 12 -7 16
-15 3 -9 0 -15 -10 -15 -22 0 -8 -37 27 -73 28 -28 37 -47 21 -47 -4 0 -8 -18
-8 -39 -1 -37 1 -41 37 -55 24 -10 39 -23 40 -33 0 -10 3 -13 5 -7 4 9 20 6
57 -7 57 -21 112 -25 122 -9 4 6 10 8 15 5 4 -3 14 2 21 11 11 14 14 14 24 1
7 -9 21 -13 44 -9 23 3 29 7 20 13 -10 6 -8 9 9 9 15 0 26 9 32 25 8 21 14 24
38 19 17 -4 32 -1 36 5 4 6 16 11 27 11 21 0 26 16 7 22 -6 2 -12 13 -13 24
-1 10 -5 30 -9 45 -6 20 -1 31 21 54 15 16 23 25 17 22 -7 -4 -14 2 -17 13 -4
17 0 20 24 20 16 0 29 5 29 10 0 15 57 12 110 -7 45 -16 48 -19 43 -45 -5 -26
-4 -27 31 -23 27 4 36 1 36 -10 0 -8 -4 -15 -10 -15 -5 0 -10 -16 -10 -35 0
-28 -3 -33 -17 -28 -13 5 -15 2 -10 -18 4 -13 7 -28 7 -33 0 -4 8 -6 18 -4 10
3 19 0 20 -6 0 -6 4 -22 7 -36 4 -15 3 -20 -2 -13 -14 19 -31 1 -30 -32 0 -16
2 -24 4 -17 3 6 10 12 17 12 17 0 38 42 36 71 -4 49 -1 61 18 55 9 -2 249 -7
532 -11 283 -3 533 -9 555 -12 22 -4 46 -6 53 -4 6 1 12 -7 12 -19 0 -11 -7
-20 -15 -20 -11 0 -14 -7 -10 -23 5 -20 -1 -26 -45 -45 -30 -13 -50 -28 -47
-35 5 -13 5 -13 52 -4 17 4 24 4 18 1 -19 -8 -16 -24 5 -24 13 0 14 -2 3 -9
-7 -5 -11 -13 -7 -19 4 -6 -3 -8 -16 -5 -23 5 -23 5 -3 -10 17 -14 18 -16 3
-17 -9 0 -21 6 -25 13 -4 6 -28 12 -53 12 -41 0 -45 3 -45 25 0 18 -6 26 -23
28 -21 3 -22 0 -22 -76 l0 -79 -81 -7 c-76 -7 -460 0 -504 9 -19 4 -20 12 -20
137 l0 132 -62 4 -63 4 -1 -124 c-1 -67 -1 -126 0 -130 1 -11 -58 -18 -136
-15 l-73 2 -2 45 c0 25 0 67 1 94 2 32 -1 46 -8 41 -6 -3 -11 -13 -11 -22 0
-9 -6 -13 -14 -10 -8 3 -17 -1 -20 -9 -3 -8 1 -17 9 -20 19 -8 19 -29 -1 -48
-14 -15 -14 -16 0 -16 9 0 16 7 16 15 0 8 4 15 8 15 5 0 7 -26 5 -57 -5 -62
-8 -66 -109 -147 -20 -17 -41 -40 -47 -53 -5 -13 -16 -23 -22 -23 -17 0 -25
-33 -25 -111 l0 -67 166 -7 c138 -6 164 -10 160 -22 -3 -8 -1 -11 4 -8 6 3 10
1 10 -5 0 -14 38 -4 61 17 14 11 18 12 21 1 3 -7 -1 -17 -9 -23 -10 -8 -7 -10
11 -10 22 0 24 3 19 25 -3 14 -2 21 3 17 5 -5 9 -12 9 -15 0 -4 4 -13 8 -19 5
-7 5 -13 1 -13 -4 0 6 -11 22 -25 26 -22 27 -25 9 -25 -18 -1 -18 -1 -3 -11
14 -8 15 -13 6 -28 -6 -11 -17 -17 -24 -14 -6 2 -15 0 -18 -5 -3 -6 -24 -6
-53 -1 -37 7 -50 6 -62 -6 -11 -11 -12 -15 -2 -15 8 0 5 -10 -9 -30 l-21 -30
41 6 c41 6 41 6 34 -23 -4 -15 -11 -31 -16 -34 -5 -3 -3 -13 6 -21 8 -9 12
-19 9 -22 -11 -11 -13 -46 -3 -46 10 0 14 14 11 38 -1 6 3 12 9 12 5 0 10 5
10 11 0 5 -5 7 -10 4 -11 -7 -9 23 3 42 4 6 1 14 -5 16 -7 3 1 6 17 7 29 1 29
2 8 12 -27 13 -31 31 -5 26 9 -2 21 -13 27 -26 5 -12 15 -20 21 -18 6 2 17 -1
23 -7 8 -8 11 -8 11 1 0 7 -7 15 -15 18 -16 6 -21 24 -7 24 5 0 17 -8 28 -19
16 -14 25 -16 38 -9 24 14 46 -7 27 -24 -11 -11 -13 -10 -8 3 5 14 2 15 -19 5
-29 -13 -31 -26 -5 -26 10 0 21 -7 25 -15 4 -12 0 -14 -17 -10 -13 3 -32 -2
-45 -13 -21 -16 -22 -22 -14 -53 6 -19 11 -28 11 -21 1 16 61 16 61 0 0 -7
-12 -24 -26 -39 -16 -17 -22 -29 -15 -34 6 -3 14 1 17 9 7 19 28 22 21 4 -2
-7 5 -18 15 -24 18 -9 18 -12 5 -25 -12 -13 -16 -50 -7 -69 1 -3 1 -21 0 -40
l-2 -35 36 50 c20 28 39 58 42 67 4 14 8 15 18 5 8 -6 11 -18 9 -24 -3 -7 0
-13 6 -13 6 0 11 6 11 13 0 8 4 7 10 -3 6 -10 10 -11 10 -2 0 6 7 12 15 12 13
0 12 -4 -5 -22 -25 -27 -25 -49 -2 -76 18 -20 18 -20 35 19 9 21 24 39 33 39
8 0 12 -4 9 -10 -3 -5 -2 -10 3 -10 15 0 35 28 37 53 1 12 3 25 4 30 2 12 19
8 35 -9 15 -14 16 -13 16 15 0 34 2 36 30 21 15 -8 23 -5 40 12 11 12 20 19
20 15 0 -9 -21 -47 -38 -69 -19 -23 -6 -39 24 -32 20 5 23 3 18 -10 -3 -9 -1
-23 6 -31 10 -12 10 -18 -1 -32 -12 -15 -12 -16 4 -10 17 6 22 -6 18 -40 -1
-7 3 -13 9 -13 5 0 10 5 10 11 0 5 4 7 10 4 5 -3 19 1 31 9 12 8 27 12 35 9 8
-3 16 2 20 10 8 21 39 10 42 -16 2 -12 3 -42 4 -67 2 -48 25 -79 41 -57 6 9
10 9 14 0 2 -7 12 -13 20 -13 12 0 13 -3 3 -15 -6 -8 -9 -19 -5 -25 3 -5 1
-10 -4 -10 -6 0 -11 -7 -11 -15 0 -8 7 -15 15 -15 8 0 15 -7 15 -16 0 -10 6
-14 15 -10 19 7 19 -13 0 -38 -12 -15 -12 -22 -2 -34 6 -8 12 -35 12 -60 l0
-45 37 -1 c24 -1 40 4 43 13 4 9 15 12 36 7 18 -3 45 0 65 9 19 8 41 12 49 9
11 -5 15 2 15 25 0 18 -5 31 -12 31 -10 0 -10 2 0 8 8 6 12 28 10 64 -1 31 -6
54 -10 52 -4 -3 -6 -18 -4 -34 3 -23 -1 -30 -20 -34 -37 -10 -75 4 -85 31 -13
36 -11 53 6 47 14 -6 20 10 16 43 -1 9 5 10 21 5 13 -4 34 -7 48 -7 l25 0 1
396 2 396 -56 2 c-77 2 -80 11 -4 11 l62 0 0 320 c-1 220 -5 322 -12 326 -7 4
-8 2 -4 -4 4 -7 -4 -14 -20 -18 -31 -8 -44 7 -44 54 0 31 2 32 40 32 l40 0 0
250 0 250 -40 0 c-34 0 -40 3 -40 20 0 26 24 36 55 22 l24 -11 0 355 c1 279
-1 354 -11 354 -7 1 -227 2 -488 3 -261 0 -372 3 -245 4 132 2 234 8 239 13
13 13 29 13 22 1 -3 -5 17 -9 44 -9 28 -1 50 3 50 9 0 5 -7 9 -16 9 -8 0 -12
5 -9 10 11 18 35 11 35 -10 0 -11 6 -20 14 -20 29 0 76 23 81 40 3 11 16 22
28 26 12 4 25 11 28 15 3 5 20 6 37 3 25 -5 32 -12 32 -29 0 -19 -7 -24 -38
-30 -51 -8 -74 -24 -31 -20 19 2 78 3 131 4 l97 1 1 455 c0 429 -1 455 -17
453 -40 -3 -53 3 -59 28 -4 17 -11 23 -21 19 -12 -4 -14 0 -8 22 11 46 25 56
67 49 l38 -6 0 58 0 58 -32 2 c-18 2 -37 7 -42 12 -5 5 -18 5 -32 0 -17 -7
-28 -5 -39 6 -8 8 -19 13 -25 9 -5 -3 -18 -1 -29 4 -14 8 -22 7 -30 -3z m-6
-1588 c25 1 27 0 12 -9 -15 -9 -16 -13 -5 -27 11 -14 10 -15 -7 -9 -19 7 -19
6 -2 -7 9 -7 17 -18 17 -25 0 -6 -8 -11 -17 -11 -14 0 -15 -2 -5 -9 10 -6 7
-10 -13 -13 -19 -4 -25 -2 -21 8 4 10 -2 14 -19 14 -18 0 -24 6 -27 28 -2 19
-9 27 -23 27 -18 0 -20 -7 -20 -70 0 -65 2 -70 23 -73 12 -2 22 1 22 6 0 5 17
9 39 8 21 0 50 6 64 13 23 12 29 12 51 -3 14 -9 34 -16 45 -16 11 0 23 -5 27
-12 5 -8 0 -9 -14 -6 -12 4 -22 2 -22 -3 0 -5 12 -9 28 -9 31 0 60 -15 49 -26
-4 -4 -2 -13 4 -21 8 -9 8 -13 1 -13 -11 0 -27 19 -27 33 0 16 -19 0 -21 -18
-2 -28 6 -38 20 -26 6 5 18 6 25 2 9 -6 5 -10 -13 -13 -32 -6 -72 29 -81 73
-4 16 -13 29 -22 29 -12 0 -12 -2 1 -16 20 -19 20 -24 2 -24 -16 0 -46 26 -46
41 0 5 8 9 17 9 9 0 14 3 10 6 -3 4 -14 3 -24 -1 -10 -5 -24 -7 -32 -6 -18 3
-9 -20 14 -33 11 -6 25 -17 33 -23 7 -7 19 -13 25 -14 7 -1 1 -5 -13 -9 l-25
-8 25 -2 c24 -2 23 -3 -5 -10 -29 -7 -29 -8 -4 -9 32 -1 63 -31 40 -39 -11 -4
-11 -6 0 -14 9 -6 -208 -8 -573 -6 l-588 3 0 167 0 167 477 1 c262 0 479 3
482 6 3 3 24 2 46 -2 22 -5 54 -7 70 -6z"/>
<path d="M5315 5123 c-6 -5 -11 -59 -11 -130 l0 -123 63 0 64 0 -3 128 -3 127
-50 3 c-27 1 -55 -1 -60 -5z"/>
</g>
</svg>
