<svg id="Group_10051" data-name="Group 10051" xmlns="http://www.w3.org/2000/svg" xmlns:xlink="http://www.w3.org/1999/xlink" width="19" height="19" viewBox="0 0 19 19">
  <defs>
    <clipPath id="clip-path">
      <rect id="Rectangle_1281" data-name="Rectangle 1281" width="19" height="19" fill="#de0322"/>
    </clipPath>
  </defs>
  <g id="Group_8517" data-name="Group 8517" clip-path="url(#clip-path)">
    <path id="Path_157" data-name="Path 157" d="M23.672,23.154c0-.416.006-.79,0-1.163a.783.783,0,0,0-.959-.789.765.765,0,0,0-.608.736c-.006,1.066-.008,2.133,0,3.2a.749.749,0,0,0,.741.743q1.608.013,3.217,0a.764.764,0,0,0,.744-.779.775.775,0,0,0-.75-.775c-.214-.008-.429,0-.643,0h-.672c.081-.069.123-.107.168-.141a7.059,7.059,0,1,1,5.552,12.57,9.634,9.634,0,0,1-1.26.119.789.789,0,1,0,.03,1.575A8.626,8.626,0,0,0,30.7,21.33a8.442,8.442,0,0,0-6.851,1.693l-.176.131" transform="translate(-19.788 -20.222)" fill="#de0322"/>
    <path id="Path_158" data-name="Path 158" d="M235.2,109.465c0-.8-.005-1.593,0-2.39a.775.775,0,0,1,1.463-.33,1.138,1.138,0,0,1,.092.46q.011,2.05,0,4.1a.408.408,0,0,0,.133.321q.993.983,1.976,1.976a.779.779,0,0,1-.3,1.317.728.728,0,0,1-.767-.176q-1.2-1.189-2.392-2.391a.787.787,0,0,1-.209-.59c0-.766,0-1.532,0-2.3h0" transform="translate(-226.961 -102.231)" fill="#de0322"/>
    <path id="Path_159" data-name="Path 159" d="M385.53,385.282a.785.785,0,1,0,1.569-.029.785.785,0,0,0-1.569.029" transform="translate(-382.482 -370.141)" fill="rgba(222,3,34,0.4)"/>
    <path id="Path_160" data-name="Path 160" d="M317.34,431.147a.784.784,0,0,0-.01,1.568.784.784,0,1,0,.01-1.568" transform="translate(-310.968 -415.085)" fill="rgba(222,3,34,0.4)"/>
    <path id="Path_161" data-name="Path 161" d="M448.873,234.33a.781.781,0,1,0,.788.773.779.779,0,0,0-.788-.773" transform="translate(-447.348 -225.518)" fill="rgba(222,3,34,0.4)"/>
    <path id="Path_162" data-name="Path 162" d="M432.88,316.066a.78.78,0,1,0,.785.778.776.776,0,0,0-.785-.778" transform="translate(-430.763 -304.243)" fill="rgba(222,3,34,0.4)"/>
  </g>
</svg>
