<svg xmlns="http://www.w3.org/2000/svg" width="18" height="18" viewBox="0 0 18 18"><defs><style>.a,.b{fill:#de0322;}.b{opacity:0.4;}</style></defs><g transform="translate(3.75 1.5)"><path class="a" d="M5.281,12.75h0a.618.618,0,0,1-.293-.089A13.841,13.841,0,0,1,1.359,9.25,6.92,6.92,0,0,1,0,5.351,5.375,5.375,0,0,1,2.649.7,5.167,5.167,0,0,1,7.925.746,5.441,5.441,0,0,1,9.819,2.751,5.564,5.564,0,0,1,10.5,5.446a7.886,7.886,0,0,1-2.394,5.081,14.063,14.063,0,0,1-2.519,2.115.88.88,0,0,1-.305.108ZM5.244,3.636a1.757,1.757,0,0,0-1.259.529A1.834,1.834,0,0,0,3.6,6.146,1.777,1.777,0,0,0,5.243,7.269h.012a1.745,1.745,0,0,0,1.251-.527,1.841,1.841,0,0,0-.576-2.967A1.746,1.746,0,0,0,5.244,3.636Z" transform="translate(0 0)"/><ellipse class="b" cx="3.75" cy="0.75" rx="3.75" ry="0.75" transform="translate(1.5 13.5)"/></g></svg>