<svg xmlns="http://www.w3.org/2000/svg" width="18.503" height="18.503" viewBox="0 0 18.503 18.503"><defs><style>.a,.b{fill:none;stroke-linecap:round;}.a{stroke:#de0322;stroke-linejoin:round;stroke-miterlimit:10;stroke-width:1.5px;}.c,.d{stroke:none;}.d{fill:#de0322;}</style></defs><g transform="translate(0 0)"><path class="a" d="M8.5,0A8.5,8.5,0,1,1,0,8.5,8.5,8.5,0,0,1,8.5,0Z" transform="translate(0.75 0.75)"/><g transform="translate(3.594 3.588)"><g class="b" transform="translate(0 4.552)"><path class="c" d="M1.029,0h9.26a1.07,1.07,0,0,1,1.029,1.107,1.07,1.07,0,0,1-1.029,1.107H1.029A1.07,1.07,0,0,1,0,1.107,1.07,1.07,0,0,1,1.029,0Z"/><path class="d" d="M 1.028904914855957 -2.384185791015625e-06 L 10.2890453338623 -2.384185791015625e-06 C 10.85729503631592 -2.384185791015625e-06 11.31794548034668 0.4956077337265015 11.31794548034668 1.106977701187134 C 11.31794548034668 1.718347668647766 10.85729503631592 2.213957786560059 10.2890453338623 2.213957786560059 L 1.028904914855957 2.213957786560059 C 0.4606552124023438 2.213957786560059 -4.76837158203125e-06 1.718347668647766 -4.76837158203125e-06 1.106977701187134 C -4.76837158203125e-06 0.4956077337265015 0.4606552124023438 -2.384185791015625e-06 1.028904914855957 -2.384185791015625e-06 Z"/></g></g></g></svg>