<?xml version="1.0" standalone="no"?>
<!DOCTYPE svg PUBLIC "-//W3C//DTD SVG 20010904//EN"
 "http://www.w3.org/TR/2001/REC-SVG-20010904/DTD/svg10.dtd">
<svg version="1.0" xmlns="http://www.w3.org/2000/svg"
 width="640.000000pt" height="427.000000pt" viewBox="0 0 640.000000 427.000000"
 preserveAspectRatio="xMidYMid meet">
<metadata>
Created by potrace 1.16, written by Peter Selinger 2001-2019
</metadata>
<g transform="translate(0.000000,427.000000) scale(0.100000,-0.100000)"
fill="#000000" stroke="none">
<path d="M0 2745 c0 -1393 1 -1524 16 -1518 27 10 64 53 64 73 0 17 7 20 40
20 23 0 40 5 40 11 0 8 19 10 65 5 86 -9 93 -12 115 -57 25 -47 25 -49 0 -49
-16 0 -13 -6 18 -38 20 -21 38 -46 40 -55 4 -24 48 -66 77 -73 14 -3 34 -19
46 -35 11 -16 26 -29 33 -29 17 0 86 -68 86 -84 0 -8 7 -16 15 -19 13 -5 13
-10 0 -41 -8 -20 -15 -43 -14 -53 1 -12 3 -10 9 7 8 25 8 25 9 2 1 -13 6 -20
11 -17 19 12 10 -7 -12 -26 -13 -10 -18 -18 -11 -19 6 0 15 5 19 11 5 8 9 7
15 -4 6 -9 3 -28 -7 -49 -14 -32 -14 -12 1 25 6 13 3 16 -9 11 -9 -3 -16 -14
-17 -23 0 -9 -2 -31 -3 -49 -2 -25 1 -31 12 -27 7 3 16 5 18 5 2 0 4 8 4 18 0
13 2 14 9 3 7 -11 20 -7 65 20 34 21 54 39 51 47 -3 7 -1 11 3 8 4 -2 12 7 19
20 14 29 1 31 -26 3 -13 -15 -21 -17 -26 -9 -4 7 -1 16 6 21 10 6 8 10 -11 18
-19 8 -21 10 -6 10 12 1 16 6 12 16 -4 10 1 15 16 15 17 0 18 -2 8 -15 -10
-12 -9 -15 7 -15 22 0 43 18 43 37 0 7 -6 10 -14 7 -8 -3 -17 0 -21 5 -3 6
-11 9 -16 6 -5 -4 -15 -3 -21 2 -7 4 -17 8 -22 8 -5 0 -10 13 -12 29 -2 23 -1
26 9 14 18 -23 47 -30 47 -12 0 8 -6 14 -13 12 -7 -2 -14 2 -15 7 -1 6 1 10 6
10 19 1 32 19 28 41 -3 14 -1 22 5 19 5 -4 9 -1 9 6 0 7 3 9 6 6 4 -4 1 -13
-6 -22 -7 -8 -8 -15 -2 -15 5 0 10 -11 10 -25 0 -22 -3 -24 -16 -13 -13 11
-14 10 -10 -2 2 -8 16 -22 31 -30 22 -12 28 -13 39 -1 11 12 10 13 -2 9 -18
-6 -25 27 -9 38 16 10 69 -7 69 -22 0 -8 6 -14 14 -14 8 0 16 -7 20 -15 3 -8
13 -15 22 -15 14 0 15 -2 3 -17 -13 -17 -13 -17 7 0 22 18 44 23 44 8 0 -5 7
-12 16 -15 8 -3 12 -2 9 3 -3 5 0 13 7 17 7 5 3 10 -13 16 -24 9 -24 10 -4 24
11 9 19 20 18 25 -2 5 2 9 7 9 5 0 9 3 9 8 -3 18 2 32 12 32 5 0 8 -4 4 -9 -3
-5 0 -13 6 -16 6 -5 10 0 8 11 -2 11 1 29 5 42 6 18 11 21 21 12 18 -15 36 -4
28 16 -3 9 -1 19 5 23 15 9 17 29 8 101 -4 36 -9 85 -11 109 -2 24 -10 48 -17
52 -9 6 -8 10 5 15 9 3 17 14 17 23 0 25 46 65 66 57 13 -5 15 -17 11 -69 -3
-34 -10 -74 -16 -89 -6 -16 -7 -28 -1 -28 11 0 1 -70 -14 -89 -9 -12 -8 -13 3
-6 11 6 13 4 8 -9 -4 -10 -7 -22 -7 -27 0 -6 -5 -7 -10 -4 -7 4 -8 -3 -4 -22
4 -15 11 -29 16 -31 4 -2 8 -16 8 -31 0 -15 7 -36 16 -47 14 -17 15 -17 10 -1
-8 24 10 57 32 58 10 0 12 3 5 6 -7 2 -13 9 -13 15 0 5 -7 16 -15 24 -10 10
-12 21 -6 32 33 65 36 75 24 79 -22 8 -14 40 13 62 28 22 50 28 39 12 -3 -5
-1 -12 5 -16 6 -4 8 -11 4 -16 -3 -5 -7 -28 -8 -50 -3 -34 2 -45 28 -71 27
-27 29 -32 15 -41 -14 -9 -14 -14 -3 -36 17 -33 27 -62 28 -80 1 -8 7 -16 15
-19 9 -3 11 0 7 7 -4 7 -2 19 6 28 11 15 11 16 -4 10 -23 -8 -22 -6 2 41 22
41 26 122 15 242 -3 30 -6 63 -6 72 0 10 -4 20 -9 23 -6 4 -4 15 3 26 10 17 9
22 -7 35 -11 8 -14 14 -8 14 7 0 12 6 12 14 0 8 5 16 11 18 9 3 9 14 0 41 -7
21 -10 44 -7 52 3 8 -1 18 -8 22 -25 15 -27 44 -4 75 23 34 31 105 10 100 -7
-1 -12 1 -12 5 1 15 49 63 64 63 28 0 46 -12 46 -32 0 -15 -5 -18 -20 -13 -14
4 -20 2 -20 -9 0 -8 13 -17 29 -21 16 -3 32 -13 35 -21 3 -8 10 -14 17 -14 6
0 9 7 5 15 -3 9 0 15 10 15 10 0 14 -6 10 -15 -3 -10 1 -15 13 -15 26 0 35
-30 14 -45 -15 -11 -15 -15 -4 -29 12 -14 11 -16 -8 -16 -21 0 -21 -1 -5 -37
9 -21 23 -66 31 -101 8 -34 19 -62 24 -62 5 0 9 -4 9 -10 0 -5 -6 -10 -14 -10
-9 0 -12 -7 -9 -20 4 -15 0 -20 -13 -20 -14 0 -15 3 -6 12 9 9 6 20 -10 50
-12 21 -25 38 -29 38 -18 0 -33 -117 -19 -141 11 -17 58 -20 64 -3 3 8 -1 14
-11 14 -25 0 -8 11 21 14 27 3 37 -18 14 -28 -7 -3 3 -4 22 -3 26 1 36 -2 38
-15 2 -11 -3 -18 -13 -18 -12 0 -15 -6 -10 -20 3 -11 3 -25 -2 -32 -4 -7 -8
-27 -10 -45 -1 -17 -12 -50 -25 -73 -13 -24 -31 -59 -42 -79 -17 -32 -20 -34
-26 -16 -6 16 -8 12 -11 -17 -4 -30 -2 -35 8 -26 11 8 12 7 7 -8 -4 -10 -13
-28 -21 -39 -7 -11 -13 -26 -13 -35 0 -8 -18 -51 -40 -95 -22 -44 -40 -88 -40
-97 0 -56 -35 -186 -58 -213 -35 -43 -142 -136 -151 -131 -4 3 -12 -14 -18
-37 -7 -24 -30 -74 -52 -112 -23 -38 -41 -75 -41 -82 0 -7 -5 -13 -10 -13 -6
0 -8 12 -5 28 6 26 6 26 -9 8 -10 -12 -12 -24 -7 -29 5 -5 7 -16 4 -25 -5 -11
-3 -13 8 -7 25 15 88 79 84 85 -3 4 7 22 21 41 13 18 22 39 20 46 -3 6 2 17
10 24 8 7 14 8 13 3 -3 -20 2 -26 14 -16 10 8 13 5 15 -15 2 -20 -2 -24 -16
-21 -11 3 -25 -5 -36 -20 -11 -14 -14 -22 -8 -18 7 4 12 1 12 -9 0 -9 4 -13
10 -10 5 3 10 16 10 27 0 12 3 18 7 15 13 -14 33 17 34 52 0 32 1 33 9 13 6
-13 6 -32 0 -47 -6 -16 -6 -25 0 -25 8 0 13 11 9 23 0 1 4 14 10 28 6 18 6 30
-1 37 -8 8 -8 19 1 39 l13 28 11 -23 c8 -17 7 -32 -1 -56 -7 -18 -12 -43 -12
-55 0 -26 -130 -157 -140 -141 -3 5 -14 -5 -25 -22 -10 -18 -20 -27 -22 -21
-6 17 27 64 51 73 20 8 20 8 2 16 -13 5 -21 3 -24 -4 -9 -28 -84 -101 -98 -95
-11 4 -12 9 -3 19 7 8 7 14 2 14 -6 0 -18 -11 -28 -24 -10 -13 -24 -22 -30
-20 -7 3 -18 -2 -25 -11 -11 -13 -8 -15 23 -15 19 0 38 6 41 13 5 9 7 9 12 0
4 -10 543 -13 2645 -13 l2639 0 0 2135 0 2135 -3200 0 -3200 0 0 -1525z m3969
818 c66 -50 85 -129 47 -201 -20 -39 -74 -66 -113 -56 -39 10 -100 77 -113
123 -6 23 -15 41 -20 41 -5 0 -8 6 -6 13 3 6 7 25 11 40 13 60 134 84 194 40z
m-743 -349 c27 -9 57 -24 68 -33 24 -21 56 -95 56 -131 0 -22 7 -32 31 -44 17
-9 36 -13 41 -10 5 3 12 -2 14 -12 3 -11 35 -36 72 -57 37 -20 78 -46 92 -57
15 -11 45 -21 75 -24 53 -4 148 16 172 35 11 10 21 5 49 -22 29 -28 36 -31 44
-19 5 8 10 21 10 28 0 6 7 12 15 12 8 0 15 -4 15 -10 0 -15 78 -49 100 -43 10
3 22 13 25 22 3 10 18 29 33 43 l27 26 58 -23 c32 -13 74 -38 93 -55 19 -16
39 -30 45 -30 6 0 24 -9 40 -21 48 -34 85 -40 105 -18 12 13 31 19 63 19 38 0
52 -5 73 -27 35 -38 51 -49 76 -57 12 -4 22 -11 22 -16 0 -15 72 -31 86 -20
16 14 41 3 94 -40 41 -34 120 -79 195 -111 36 -16 95 -57 113 -78 10 -13 10
-17 -5 -22 -14 -6 -10 -10 22 -23 88 -36 83 -33 55 -43 -16 -7 -39 -6 -70 2
-25 7 -54 9 -64 5 -26 -9 -91 3 -91 17 0 6 -3 15 -7 19 -5 4 -8 -2 -8 -14 0
-11 8 -26 18 -31 9 -6 12 -11 5 -11 -6 0 -15 5 -18 10 -9 15 -42 12 -60 -6
-18 -18 -17 -18 -34 14 -11 21 -13 21 -29 6 -9 -10 -21 -26 -27 -37 -19 -37
-39 -42 -66 -16 -62 60 -76 67 -123 65 -25 -1 -51 -8 -58 -15 -11 -12 -10 -13
7 -8 18 6 18 5 3 -5 -16 -11 -15 -14 10 -24 26 -12 25 -12 -19 -13 -31 -1 -51
4 -60 15 -7 9 -21 13 -33 10 -20 -5 -20 -4 2 14 31 26 28 31 -9 13 -31 -15
-55 -9 -29 7 23 15 -13 13 -45 -2 -17 -7 -29 -8 -33 -2 -6 8 -56 34 -67 34 -3
0 -5 -7 -5 -15 0 -8 5 -15 10 -15 6 0 10 -4 10 -10 0 -5 -6 -7 -14 -4 -8 3
-17 1 -20 -5 -8 -13 -45 22 -43 41 1 7 -2 14 -8 15 -5 1 -10 -7 -9 -17 1 -26
-4 -25 -27 3 -16 18 -20 20 -28 7 -9 -12 -12 -12 -28 1 -26 23 -63 31 -63 13
0 -20 -27 -7 -80 36 -25 20 -60 45 -79 54 -26 14 -31 20 -20 27 11 7 9 9 -8 9
-61 0 -189 70 -241 131 -11 12 -18 15 -23 8 -5 -8 -15 -7 -35 4 -16 9 -58 30
-94 46 -36 16 -90 46 -120 65 -30 19 -68 37 -83 39 -16 2 -32 9 -37 16 -10 17
0 53 18 67 13 9 11 12 -9 17 -13 4 -25 2 -27 -3 -2 -5 -10 -6 -19 -3 -13 5
-13 2 2 -20 14 -21 14 -27 4 -28 -10 0 -11 -2 -1 -6 15 -6 16 -23 1 -23 -7 0
-18 -8 -26 -17 -8 -10 -12 -12 -8 -5 3 6 3 12 -2 12 -15 -1 -43 -27 -43 -41 0
-10 3 -10 12 -1 16 16 28 15 28 -3 0 -8 -5 -15 -12 -15 -6 0 -8 -3 -5 -7 4 -3
2 -12 -3 -18 -8 -9 -6 -14 5 -19 8 -3 15 -13 15 -23 0 -16 -2 -16 -11 -3 -9
12 -10 11 -6 -7 3 -13 0 -23 -5 -23 -6 0 -8 -12 -4 -30 3 -19 1 -30 -5 -30 -8
0 -8 -5 1 -14 9 -12 8 -15 -8 -13 -12 0 -18 6 -15 14 3 9 0 11 -10 8 -15 -6
-47 19 -47 36 0 5 -4 9 -9 9 -4 0 -7 -21 -5 -46 4 -47 -3 -56 -11 -16 -5 28
-24 62 -34 62 -4 0 -16 -9 -26 -20 -19 -21 -7 -28 13 -8 18 18 23 4 6 -20 -8
-11 -20 -19 -27 -16 -7 2 -17 -9 -24 -26 -10 -26 -9 -30 7 -30 10 0 20 -6 23
-13 6 -16 -82 -20 -102 -4 -11 9 -13 9 -8 0 4 -6 2 -15 -3 -18 -8 -5 -6 -13 5
-25 9 -10 14 -24 10 -29 -13 -23 7 -32 32 -16 18 12 28 14 36 6 8 -8 2 -14
-20 -22 -39 -13 -47 -32 -23 -54 18 -16 18 -19 3 -41 -8 -13 -33 -34 -54 -46
-42 -23 -49 -43 -53 -134 -2 -51 8 -71 20 -39 4 8 10 15 15 15 11 0 -19 -62
-35 -72 -8 -5 -7 -11 2 -20 6 -6 13 -21 13 -33 1 -17 2 -17 6 -2 3 12 10 16
24 12 23 -8 27 20 3 29 -8 3 -12 2 -9 -4 4 -6 -1 -7 -11 -3 -16 6 -15 8 3 22
11 9 18 21 16 27 -2 6 7 19 19 30 12 10 17 12 11 4 -8 -10 -9 -21 -3 -30 8
-13 10 -12 10 3 0 9 4 17 10 17 5 0 7 7 4 15 -4 8 -1 15 5 15 6 0 8 6 5 14 -3
8 -1 17 5 21 6 3 11 17 11 31 0 13 5 24 10 24 6 0 19 20 30 44 10 24 25 48 32
53 7 4 26 27 41 51 15 23 34 42 42 42 8 0 15 5 15 10 0 6 -11 8 -25 4 -27 -7
-28 -5 -19 20 8 22 104 89 104 73 1 -6 14 3 30 22 16 19 27 37 25 40 -3 2 -12
-4 -19 -15 -8 -10 -18 -15 -22 -11 -5 4 -2 12 6 17 10 7 11 10 3 10 -7 0 -13
7 -13 15 0 8 5 15 10 15 6 0 9 -6 8 -12 -2 -9 10 -12 35 -12 36 1 37 1 17 -13
-11 -8 -20 -19 -20 -25 0 -7 4 -7 13 0 8 7 19 6 37 -3 l25 -13 -35 -7 c-19 -3
-44 -8 -55 -10 -11 -2 -21 -4 -23 -4 -2 -1 -1 -5 2 -10 3 -4 25 -5 48 -1 45 9
45 9 -12 -30 -69 -47 -87 -70 -55 -70 22 0 19 -46 -4 -69 -13 -13 -16 -21 -8
-24 8 -3 7 -9 -5 -18 -10 -8 -24 -31 -33 -51 -8 -21 -20 -38 -26 -38 -8 0 -8
-4 -1 -13 12 -14 5 -57 -8 -57 -5 0 -11 6 -14 13 -3 6 -3 2 -1 -9 10 -39 -29
-24 -41 16 l-11 35 2 -49 c1 -32 7 -53 18 -61 25 -18 21 -30 -20 -60 -21 -16
-45 -36 -53 -46 -17 -21 -52 -26 -90 -15 -16 5 -20 4 -12 -2 14 -9 6 -42 -10
-42 -17 0 -63 -53 -50 -58 13 -4 7 -22 -8 -22 -15 0 -20 31 -9 53 12 22 12 22
-9 3 -12 -10 -27 -34 -34 -52 -11 -31 -39 -52 -61 -46 -5 2 -11 -7 -14 -18 -3
-11 -9 -20 -14 -20 -13 0 -11 57 1 65 8 5 7 12 -2 22 -6 8 -14 25 -15 36 -2
12 -8 23 -13 25 -6 2 -10 9 -10 16 0 7 -13 25 -30 41 -16 16 -30 34 -30 41 0
7 -5 16 -12 20 -7 5 -9 2 -5 -8 3 -9 0 -21 -6 -27 -8 -8 -4 -18 14 -38 39 -44
71 -94 65 -100 -3 -4 -6 -2 -6 4 0 18 -31 24 -46 8 -9 -8 -13 -18 -11 -22 9
-15 -28 -42 -43 -33 -13 8 -12 10 3 10 25 0 21 13 -9 27 -25 12 -26 11 -22
-17 4 -26 1 -30 -19 -30 -17 0 -22 -4 -17 -12 6 -10 5 -10 -8 -1 -8 7 -18 10
-21 6 -4 -3 -7 2 -7 12 0 13 3 15 13 7 10 -8 16 -6 25 9 12 18 11 21 -7 26
-12 3 -21 10 -22 17 0 6 -7 -5 -15 -25 -12 -29 -20 -36 -35 -32 -15 4 -20 -1
-25 -26 -4 -17 -10 -28 -15 -26 -4 3 -10 1 -14 -5 -5 -8 14 -15 36 -12 4 1 4
-9 1 -21 -5 -21 -5 -21 12 -4 19 19 31 23 21 7 -3 -5 -1 -10 4 -10 6 0 11 5
11 10 0 16 60 12 66 -5 4 -8 12 -15 20 -15 8 0 14 -4 14 -9 0 -22 32 -41 58
-35 24 5 25 4 9 -6 -11 -7 -30 -10 -44 -7 -17 3 -33 -2 -47 -15 -21 -19 -21
-20 -2 -34 14 -10 23 -11 33 -3 10 9 13 8 13 -5 0 -9 5 -16 11 -16 6 0 8 8 4
19 -3 11 -2 22 3 25 14 8 22 -30 9 -43 -6 -6 -19 -11 -28 -11 -9 0 -19 -7 -23
-15 -4 -11 1 -15 19 -15 14 0 25 -4 25 -10 0 -5 -9 -10 -20 -10 -11 0 -20 -4
-20 -9 0 -15 31 -22 67 -15 33 6 34 6 21 -15 -7 -11 -21 -21 -30 -21 -12 0
-15 -5 -11 -16 5 -14 3 -14 -21 1 -17 12 -30 15 -34 8 -4 -5 -17 -12 -29 -15
l-23 -6 20 25 c26 33 25 43 -2 42 -13 0 -17 -3 -10 -6 6 -2 12 -12 12 -21 0
-13 -2 -14 -9 -4 -6 11 -13 7 -31 -15 l-22 -28 24 -3 c47 -6 93 -42 53 -42
-25 0 -17 -30 8 -31 16 0 11 -4 -17 -15 -22 -8 -42 -11 -45 -7 -3 5 -21 13
-38 20 -27 9 -33 9 -33 -3 0 -11 -5 -11 -23 -3 -19 8 -22 16 -19 45 3 27 9 34
26 34 20 1 20 1 3 11 -13 7 -17 18 -13 32 4 18 -2 25 -35 39 -33 14 -41 15
-45 3 -3 -7 -14 -12 -25 -10 -11 2 -17 0 -14 -6 4 -5 10 -7 15 -4 4 3 7 -6 6
-19 0 -13 -4 -22 -8 -20 -10 6 -21 -42 -13 -55 12 -20 -6 -32 -22 -16 -8 9
-13 19 -9 22 3 3 2 11 -3 17 -16 21 -19 55 -5 75 8 10 11 27 7 37 -5 13 -3 15
8 9 12 -8 12 -6 0 9 -13 15 -13 19 -1 26 8 5 19 6 25 2 5 -3 3 5 -6 18 -16 25
-35 26 -33 3 1 -7 -2 -13 -6 -13 -5 0 -10 -10 -13 -22 -4 -24 -3 -25 -24 30
-3 9 -7 28 -8 42 -1 14 -4 39 -8 55 -8 36 6 91 22 87 6 -1 30 10 52 24 23 14
47 23 55 20 9 -3 14 1 14 12 0 9 5 24 10 32 8 12 12 13 19 2 4 -7 19 -15 32
-17 13 -2 34 -7 47 -10 18 -6 22 -3 22 14 0 11 -9 26 -19 33 -17 10 -17 13 -4
27 14 13 17 13 30 -5 12 -16 15 -17 23 -4 5 8 5 19 1 23 -5 5 -7 16 -4 26 6
22 40 44 48 31 8 -13 55 -13 55 1 0 6 -11 9 -24 7 -17 -2 -32 6 -51 27 l-26
30 3 -35 c3 -31 0 -35 -22 -38 -21 -3 -22 -2 -11 12 12 14 9 18 -23 31 -47 20
-46 29 4 21 39 -6 41 -5 46 24 4 16 11 27 17 23 5 -3 7 0 3 8 -3 8 -9 22 -12
32 -4 9 -9 17 -13 17 -3 0 -6 15 -7 33 0 25 4 33 18 33 10 0 18 -4 18 -8 0 -4
7 -4 17 -1 11 4 14 3 9 -5 -4 -7 -2 -12 4 -12 6 0 8 -5 5 -10 -3 -6 2 -13 12
-17 10 -3 26 -13 36 -21 14 -13 17 -13 17 -1 0 9 3 10 8 3 9 -14 52 -37 52
-28 0 4 -8 13 -17 20 -17 12 -16 13 5 14 23 0 23 0 -6 30 -17 17 -34 30 -38
30 -5 0 -3 -5 4 -12 7 -7 12 -19 12 -27 0 -11 -5 -10 -21 5 -12 10 -22 17 -23
14 -1 -3 -12 5 -26 18 -17 15 -19 22 -9 22 8 0 20 -5 26 -11 13 -13 33 -4 33
14 0 8 -3 8 -9 -1 -7 -12 -12 -12 -30 -1 -11 8 -21 17 -21 21 0 5 -5 8 -11 8
-5 0 -7 -5 -3 -11 4 -7 0 -9 -14 -5 -13 4 -22 1 -26 -9 -3 -8 -9 -15 -13 -14
-26 4 -34 -2 -28 -22 5 -16 3 -20 -6 -17 -8 3 -13 15 -12 27 3 19 0 20 -17 11
-26 -14 -28 7 -2 26 16 13 16 15 -5 33 -12 10 -20 21 -17 24 12 11 -7 45 -29
52 -14 4 -17 8 -9 12 7 3 19 0 26 -7 11 -8 16 -8 21 0 9 14 7 15 -30 26 -39
12 -75 7 -75 -12 0 -8 -4 -14 -10 -14 -5 0 -10 -15 -10 -32 0 -21 -3 -28 -8
-20 -6 9 -16 6 -38 -13 -16 -14 -43 -32 -61 -40 -21 -10 -30 -21 -27 -33 3
-12 -15 -31 -56 -61 -33 -25 -60 -51 -60 -58 0 -17 -11 -17 -35 1 -11 8 -16
19 -12 30 5 13 2 17 -10 14 -9 -2 -20 -14 -24 -28 -7 -24 -7 -24 -8 -2 -1 14
-7 22 -19 22 -18 0 -27 29 -10 31 4 1 13 3 18 4 6 1 15 3 20 4 6 0 10 8 10 17
0 13 7 15 31 10 25 -5 30 -3 25 9 -3 9 1 18 9 21 8 4 15 11 15 16 0 6 -6 8
-14 5 -8 -3 -16 0 -19 7 -3 7 -21 11 -48 10 -60 -3 -59 -3 -56 -16 1 -7 -8
-14 -20 -16 -13 -2 -23 2 -23 8 0 6 5 8 10 5 6 -3 10 -1 10 4 0 6 -6 11 -14
11 -7 0 -19 7 -26 15 -11 13 -15 12 -29 -8 -25 -32 -33 -59 -20 -67 7 -5 8
-14 2 -26 -6 -11 -8 -38 -6 -60 5 -39 8 -42 46 -54 23 -8 49 -19 57 -26 8 -6
26 -15 38 -19 l24 -7 -28 -29 c-38 -39 -25 -37 26 6 23 19 47 35 53 35 7 0 5
5 -3 10 -10 6 -11 10 -2 10 6 0 12 7 12 15 0 8 4 15 8 15 4 0 6 -15 4 -34 -3
-26 -9 -36 -26 -38 -13 -2 -21 -10 -21 -23 0 -12 -8 -21 -20 -24 -11 -2 -28
-13 -38 -24 -18 -21 -18 -21 -23 -1 -4 16 -12 19 -35 16 -24 -4 -29 -1 -29 16
0 24 -16 37 -25 22 -3 -5 -3 -10 2 -10 13 0 12 -48 -1 -53 -8 -3 -11 4 -8 24
3 21 0 29 -10 29 -18 0 -21 61 -4 73 8 6 8 10 -1 13 -7 3 -9 12 -6 20 3 8 0
21 -7 29 -7 8 -10 15 -7 15 4 0 -4 21 -17 48 -14 26 -27 76 -31 112 -6 65 -6
65 24 82 17 9 31 25 31 34 0 14 -2 15 -17 3 -15 -12 -16 -12 -10 4 4 9 2 17
-4 17 -7 0 -9 9 -6 21 3 12 -4 34 -19 56 -13 20 -24 43 -24 52 0 20 -26 58
-34 50 -3 -3 -7 -21 -10 -40 -2 -21 -9 -35 -20 -37 -10 -2 -16 -13 -16 -28 0
-14 -4 -22 -10 -19 -5 3 -10 1 -10 -4 0 -6 -12 -11 -26 -11 -28 0 -53 24 -54
52 0 9 -6 19 -12 21 -8 4 -7 6 3 6 12 1 15 9 13 31 -2 16 1 32 7 36 6 3 8 18
5 32 -9 39 3 49 64 55 30 3 66 9 79 13 20 6 23 4 18 -9 -4 -10 -10 -24 -13
-32 -3 -8 -1 -15 5 -15 6 0 11 6 11 14 0 13 49 56 64 56 3 0 6 -7 6 -17 0 -15
2 -14 20 2 28 26 95 21 112 -8 5 -10 21 -17 38 -17 17 0 30 -5 30 -10 0 -6 10
-15 23 -19 16 -7 27 -4 42 10 11 11 44 37 73 58 43 31 63 39 100 40 26 1 61 3
77 5 17 2 33 0 36 -6 4 -6 28 -6 65 1 57 11 64 16 157 106 54 52 104 95 111
95 7 0 40 13 72 30 32 16 63 30 68 30 6 0 21 11 35 24 15 13 49 37 76 52 28
15 75 49 105 75 95 83 127 92 216 63z m-855 -984 c12 0 17 -7 16 -20 -1 -20
-17 -29 -17 -10 0 6 -9 10 -19 10 -11 0 -23 -4 -26 -10 -3 -6 5 -10 19 -10 13
0 31 -6 38 -13 7 -8 20 -11 28 -9 13 5 13 3 1 -11 -12 -15 -11 -17 10 -18 17
0 20 -2 9 -7 -43 -20 -60 -38 -60 -65 0 -26 -3 -29 -26 -23 -15 4 -32 2 -40
-5 -11 -9 -15 -8 -20 5 -8 22 -21 20 -29 -4 -10 -32 34 -153 61 -168 24 -14
-33 -52 -61 -41 l-20 8 20 1 c11 2 23 2 28 1 4 0 7 3 7 9 0 5 -4 10 -10 10 -5
0 -10 9 -10 19 0 11 -5 23 -11 27 -8 4 -9 -3 -4 -25 4 -20 3 -31 -4 -31 -6 0
-11 5 -11 10 0 6 -5 10 -11 10 -6 0 -8 -8 -4 -19 3 -11 1 -22 -4 -25 -24 -15
-27 148 -3 173 7 7 10 16 7 20 -4 3 -36 -26 -72 -64 -35 -39 -62 -62 -59 -52
3 9 0 17 -6 17 -6 0 -9 3 -5 6 3 3 2 17 -4 31 -5 14 -5 22 0 19 5 -4 12 0 15
6 5 10 7 10 12 1 3 -7 12 -13 20 -13 9 0 13 4 10 9 -3 5 2 11 12 13 19 5 27
38 10 38 -5 0 -6 5 -3 10 4 6 12 4 22 -5 12 -12 18 -13 29 -4 22 18 17 27 -23
39 -49 16 -59 26 -34 33 12 3 21 1 21 -4 0 -5 12 -6 26 -3 44 11 79 9 77 -4
-2 -7 2 -12 8 -12 6 0 9 12 7 28 -2 22 1 28 22 31 25 3 25 3 6 -18 -24 -27
-17 -27 28 0 37 21 44 33 26 44 -5 3 -10 1 -10 -6 0 -8 -4 -8 -15 1 -12 10
-15 10 -16 -1 0 -8 -5 -3 -10 10 -5 14 -7 31 -5 38 3 7 2 13 -2 13 -5 0 -6 17
-4 37 4 33 6 35 13 15 11 -29 20 -28 16 1 -2 12 1 7 6 -10 7 -21 17 -33 28
-33z m317 -847 c2 -8 -5 -13 -17 -13 -11 0 -25 -9 -31 -19 -13 -25 -13 -31 3
-31 6 0 18 -4 25 -9 16 -9 2 -45 -37 -101 -14 -19 -26 -36 -27 -38 -4 -8 -74
-10 -79 -2 -9 15 -25 2 -25 -21 0 -26 21 -47 39 -41 10 3 8 -4 -5 -24 -31 -46
-43 -80 -37 -105 6 -21 5 -23 -10 -10 -9 7 -15 16 -13 20 3 4 0 13 -5 21 -8
13 -10 13 -18 0 -7 -10 -4 -18 10 -28 20 -14 26 -52 8 -52 -5 0 -7 -4 -4 -10
3 -5 1 -10 -4 -10 -6 0 -11 -8 -11 -19 0 -12 -14 -25 -37 -37 -45 -22 -54 -23
-70 -11 -7 5 -21 6 -30 1 -10 -4 -23 -8 -29 -9 -6 0 -20 -7 -30 -15 -17 -13
-18 -13 -7 0 14 19 1 46 -17 35 -6 -4 -10 -18 -7 -31 3 -16 0 -24 -9 -24 -16
0 -16 -5 -8 -37 5 -16 14 -23 33 -24 l26 0 -25 -17 c-13 -9 -37 -29 -54 -44
-16 -15 -34 -24 -40 -20 -21 13 -38 10 -56 -8 -17 -17 -17 -18 6 -23 14 -2 27
0 30 4 3 5 10 9 16 9 6 0 7 -18 3 -52 -8 -54 -23 -105 -24 -79 -1 8 -4 12 -7
9 -3 -3 0 -14 6 -25 10 -15 5 -28 -30 -81 -49 -72 -78 -91 -155 -96 -50 -3
-55 -2 -55 17 0 19 -1 19 -12 4 -9 -12 -17 -14 -28 -7 -13 8 -13 10 2 10 11 0
15 5 12 14 -3 8 -12 12 -20 9 -8 -3 -14 0 -14 7 0 6 -4 9 -9 5 -16 -9 -18 28
-4 58 14 27 6 36 -14 16 -6 -6 -9 -18 -6 -25 3 -8 0 -14 -7 -14 -6 0 -8 5 -5
10 9 14 -9 12 -24 -2 -10 -11 -12 -9 -9 7 2 11 7 18 12 17 10 -4 26 17 26 36
0 26 -20 10 -41 -33 -23 -45 -29 -51 -43 -37 -4 4 -13 7 -19 7 -7 0 -12 13
-11 30 0 17 1 56 2 88 1 33 7 57 13 57 6 0 8 -8 5 -17 -3 -10 -1 -25 4 -33 7
-11 10 -8 10 16 0 38 -26 66 -41 43 -5 -8 -9 -9 -9 -3 0 16 21 33 36 27 16 -6
18 2 4 26 -8 15 -6 17 13 14 16 -3 27 3 39 24 9 15 42 55 72 88 31 33 56 62
56 66 0 4 7 12 15 19 8 7 15 21 15 31 0 21 15 25 24 7 3 -7 4 -1 1 15 -3 16
-1 27 6 27 20 0 38 27 32 51 -5 23 -5 23 9 5 10 -13 17 -15 22 -8 4 6 13 9 21
5 9 -3 15 1 15 10 0 8 15 28 33 43 17 15 31 30 29 33 -2 3 0 7 5 8 4 2 9 -13
10 -32 1 -27 -2 -35 -15 -35 -13 0 -14 -2 -4 -8 7 -5 10 -17 6 -28 -4 -15 0
-13 19 8 14 15 28 24 32 20 3 -3 10 0 15 8 8 12 10 10 10 -9 0 -13 8 -29 17
-36 14 -11 20 -10 30 4 18 24 16 33 -7 21 -16 -9 -20 -8 -20 5 0 9 5 13 10 10
14 -9 13 8 -2 23 -6 6 -8 15 -4 19 4 4 15 -3 25 -16 11 -14 21 -19 24 -14 4 6
-2 22 -13 36 -26 32 -25 41 0 27 19 -10 20 -10 8 9 -7 12 -20 21 -29 21 -12 0
-15 7 -11 25 2 14 7 25 11 25 10 0 51 -47 51 -59 0 -14 6 -14 31 -1 22 13 25
36 5 56 -12 11 -12 20 -3 44 13 35 31 41 22 8 -6 -23 -6 -23 15 1 17 20 23 22
33 11 9 -10 9 -13 0 -17 -7 -3 -13 -13 -13 -23 0 -10 -5 -20 -10 -22 -7 -2 -7
-14 1 -36 6 -18 9 -46 7 -62 -3 -17 -1 -30 4 -30 5 0 4 -9 -2 -20 -6 -11 -7
-20 -3 -19 20 3 27 -2 13 -11 -12 -8 -10 -10 9 -10 18 0 22 4 16 18 -4 9 -8
24 -8 32 0 8 -4 18 -10 21 -5 4 3 14 19 23 20 10 24 15 12 16 -21 0 -22 8 -8
44 6 17 24 32 50 42 44 18 48 25 23 45 -15 12 -16 12 -10 -3 3 -10 2 -18 -3
-18 -6 0 -10 4 -10 10 0 5 -6 7 -13 4 -16 -6 -82 37 -82 53 0 6 -3 15 -7 19
-22 22 -3 23 25 2 39 -31 73 -42 82 -28 3 5 1 10 -4 10 -18 0 -12 19 8 30 16
8 25 5 45 -15 14 -14 36 -25 50 -25 13 0 26 -5 28 -12 9 -25 25 4 31 54 4 30
13 58 22 64 8 6 15 16 15 21 0 15 43 10 48 -4z m-844 -121 c8 -13 -36 -102
-48 -95 -7 3 -6 1 1 -7 10 -11 10 -17 0 -28 -10 -13 -8 -14 18 -8 28 7 29 6
10 -7 -11 -8 -29 -16 -39 -18 -11 -2 -23 -16 -27 -32 -6 -24 -5 -28 8 -22 9 3
20 0 25 -7 5 -9 8 -6 8 9 0 27 18 40 26 19 3 -9 12 -16 20 -16 7 0 11 -6 8
-14 -3 -8 -14 -13 -25 -11 -10 2 -19 1 -19 -3 0 -10 48 -31 55 -24 3 3 15 7
26 9 19 3 20 2 2 -22 -10 -13 -22 -23 -28 -21 -12 4 -16 -45 -5 -59 5 -6 2
-19 -7 -30 -11 -14 -17 -16 -20 -7 -6 15 -24 16 -20 1 1 -6 -4 -14 -12 -17
-10 -3 -12 0 -8 12 4 10 1 16 -8 16 -8 0 -15 -6 -15 -14 0 -21 -25 -27 -62
-14 -50 16 -53 23 -29 64 17 28 18 35 6 31 -17 -7 -21 8 -5 18 6 4 10 12 9 18
-3 27 2 48 10 43 5 -3 12 1 15 10 9 22 8 24 -9 24 -8 0 -15 2 -15 5 0 11 64
122 81 141 10 11 19 28 19 38 0 15 3 16 15 6 14 -11 19 -7 16 13 -1 9 16 9 23
-1z"/>
<path d="M617 607 c-12 -13 -44 -34 -71 -48 -27 -13 -68 -41 -92 -62 -24 -21
-44 -34 -44 -28 0 5 10 17 22 25 18 13 19 16 6 16 -22 0 -30 -15 -33 -59 -4
-50 -77 -201 -98 -201 -8 0 -7 4 3 10 10 7 11 10 2 10 -7 0 -15 -7 -19 -16 -4
-10 -13 -14 -26 -10 -23 6 -67 -20 -67 -40 0 -8 -7 -14 -15 -14 -8 0 -15 -4
-15 -10 0 -18 18 -11 38 15 13 16 34 27 63 31 l44 7 -25 -20 c-19 -16 -24 -29
-23 -61 1 -27 -3 -42 -13 -46 -8 -3 -14 -11 -14 -18 0 -10 3 -9 9 1 5 8 16 11
27 7 13 -5 15 -9 6 -18 -7 -7 -12 -27 -12 -45 0 -32 1 -33 40 -33 48 0 56 24
10 34 -37 7 -40 26 -4 26 21 0 24 3 19 21 -5 14 -2 25 6 30 12 8 12 10 0 18
-8 5 -9 11 -3 15 6 3 12 2 14 -3 3 -9 80 -15 129 -11 23 2 13 37 -13 43 -23 6
-48 -1 -48 -14 0 -17 -18 -9 -23 11 -6 24 -25 27 -23 3 1 -13 -7 -18 -31 -18
-34 0 -44 11 -19 21 8 3 12 12 9 20 -3 8 -1 14 3 14 5 1 27 17 49 36 22 20 34
33 28 29 -16 -8 -17 1 -3 18 6 7 17 21 25 32 14 19 14 18 9 -10 -5 -29 -4 -31
45 -47 29 -9 53 -12 57 -7 3 5 -2 12 -10 15 -9 3 -14 10 -11 14 8 13 -6 41
-17 34 -5 -3 -7 -12 -4 -20 7 -19 -10 -26 -23 -10 -9 11 -9 23 3 50 8 20 11
36 5 36 -5 0 -9 -6 -10 -12 0 -7 -4 -4 -9 7 -5 11 -9 14 -9 8 -1 -7 -5 -13
-11 -13 -5 0 -7 7 -4 15 4 9 14 14 23 13 10 -2 15 3 14 15 0 10 1 16 5 13 3
-3 10 1 16 8 6 8 26 17 44 21 32 7 32 6 21 -22 -6 -15 -11 -41 -11 -58 1 -16
-4 -35 -10 -42 -6 -8 -8 -16 -4 -20 3 -3 6 -1 6 5 0 7 7 12 15 12 19 0 19 -9
-1 -32 -16 -16 -16 -18 0 -24 9 -3 16 -13 16 -21 0 -8 5 -11 11 -8 6 4 7 19 4
35 -6 25 -4 28 19 26 14 0 26 -5 26 -9 0 -10 26 -37 36 -37 4 0 0 8 -8 18 -14
15 -30 92 -20 92 10 0 33 -31 30 -42 -6 -25 34 -25 58 -1 16 17 17 16 11 -24
-7 -43 -1 -73 14 -73 5 0 9 9 9 19 0 17 5 19 34 14 27 -4 34 -2 38 14 7 26 -8
63 -26 63 -9 0 -13 -6 -10 -14 3 -8 1 -17 -5 -21 -6 -3 -12 0 -13 7 0 7 -2 20
-3 28 -1 8 3 24 8 34 5 11 11 42 13 70 3 47 2 49 -11 32 -8 -11 -15 -23 -15
-28 0 -4 -4 -8 -10 -8 -5 0 -10 9 -10 21 0 12 -8 23 -20 26 -21 6 -26 18 -11
27 5 4 11 0 14 -6 2 -7 7 -10 11 -7 3 3 -1 20 -10 38 -12 24 -19 29 -29 21
-10 -8 -14 -7 -17 2 -8 22 -37 -9 -31 -32 3 -12 0 -20 -6 -20 -7 0 -9 -4 -6
-10 3 -5 2 -10 -3 -10 -17 0 -21 -38 -4 -45 8 -3 12 -8 9 -12 -4 -3 -2 -12 4
-19 12 -15 -2 -26 -20 -15 -14 9 -24 68 -14 85 10 15 13 56 5 56 -13 -1 -38
-25 -46 -45 -6 -15 -10 -17 -14 -6 -3 8 7 25 23 38 15 13 25 27 21 30 -3 3 4
21 15 40 24 38 18 43 -14 10z"/>
</g>
</svg>
