<svg xmlns="http://www.w3.org/2000/svg" xmlns:xlink="http://www.w3.org/1999/xlink" width="41.144" height="41.141" viewBox="0 0 41.144 41.141"><defs><style>.a{fill:none;}.b{clip-path:url(#a);}.c{opacity:0.08;}.c,.g{isolation:isolate;}.d{clip-path:url(#c);}.e{fill:#de0332;}.f{fill:#de0322;}.g{opacity:0.4;}.h{clip-path:url(#d);}.i{clip-path:url(#e);}.j{clip-path:url(#f);}</style><clipPath id="a"><rect class="a" width="41.144" height="41.141"/></clipPath><clipPath id="c"><rect class="a" width="17.326" height="17.326"/></clipPath><clipPath id="d"><rect class="a" width="7.667" height="7.667"/></clipPath><clipPath id="e"><rect class="a" width="22.089" height="21.072"/></clipPath><clipPath id="f"><rect class="a" width="6.47" height="3.327"/></clipPath></defs><g class="b"><g class="b"><g class="c" transform="translate(18.671 8.143)"><g class="d"><path class="e" d="M241.45,101.83a8.623,8.623,0,1,1-8.623,8.623,8.623,8.623,0,0,1,8.623-8.623" transform="translate(-232.787 -101.79)"/><circle class="a" cx="8.623" cy="8.623" r="8.623" transform="translate(-0.027 17.219) rotate(-89.552)"/></g></g><path class="f" d="M1.238,14.234a2.369,2.369,0,0,0,1.045.225,3.325,3.325,0,0,0,.675-.072,2.178,2.178,0,0,0,1.9-2.58L3.335,4.84l6.389-1.39,1.125,5.167a3.045,3.045,0,0,0-1.2.04,2.135,2.135,0,0,0-1.921,2.531A2.063,2.063,0,0,0,9.869,12.82a3.316,3.316,0,0,0,.667-.072,2.178,2.178,0,0,0,1.9-2.58L10.407.886A1.08,1.08,0,0,0,9.13.066L2.475,1.521a1.089,1.089,0,0,0-.675.466,1.055,1.055,0,0,0-.145.8l1.631,7.482a3.193,3.193,0,0,0-1.2.032,2.709,2.709,0,0,0-1.495.812,1.933,1.933,0,0,0-.426,1.72,1.97,1.97,0,0,0,1.069,1.4m9.025-2.676c-.273.056-1.181.193-1.366-.635-.161-.731.555-1,1-1.1a2.17,2.17,0,0,1,.466-.056.8.8,0,0,1,.876.643c.185.828-.7,1.085-.972,1.149M9.242,1.255l.217,1L3.07,3.65l-.217-1ZM1.487,11.9a1.557,1.557,0,0,1,.852-.434,2.172,2.172,0,0,1,.466-.056.8.8,0,0,1,.876.643c.177.828-.7,1.085-.972,1.149a1.483,1.483,0,0,1-.932-.056.773.773,0,0,1-.426-.579.673.673,0,0,1,.137-.667" transform="translate(-0.11 -0.039)"/><path class="f" d="M336.053,339.509a1.024,1.024,0,0,0-.595-.563l-6.349-2.467a1.062,1.062,0,0,0-1.382.611l-2.781,7.144a2.957,2.957,0,0,0-1.021-.643,2.746,2.746,0,0,0-1.7-.153,1.9,1.9,0,0,0-1.3,1.2,1.979,1.979,0,0,0,.129,1.768,2.664,2.664,0,0,0,1.35,1.077,2.821,2.821,0,0,0,1.053.209,2.026,2.026,0,0,0,1.953-1.31l2.58-6.646,6.1,2.371-1.913,4.934a2.828,2.828,0,0,0-1.021-.635,2.132,2.132,0,0,0-3,1.053,1.979,1.979,0,0,0,.129,1.768,2.664,2.664,0,0,0,1.35,1.077,2.821,2.821,0,0,0,1.053.209,2.022,2.022,0,0,0,1.953-1.318l3.44-8.856a1.175,1.175,0,0,0-.032-.828m-13.22,6.855a1.511,1.511,0,0,1-.747-.563.77.77,0,0,1-.04-.715.721.721,0,0,1,.49-.474.978.978,0,0,1,.273-.032,1.859,1.859,0,0,1,.675.145,1.528,1.528,0,0,1,.755.546.7.7,0,0,1,.032.683c-.3.78-1.173.514-1.439.41m5.593-7.747.37-.964,6.1,2.371-.37.964Zm1.631,10.552a1.511,1.511,0,0,1-.747-.563.77.77,0,0,1-.04-.715.747.747,0,0,1,.763-.506,1.938,1.938,0,0,1,.675.145,1.527,1.527,0,0,1,.755.547.7.7,0,0,1,.032.683c-.3.788-1.181.514-1.439.41" transform="translate(-295 -309.37)"/><path class="f" d="M17.7,225.2c-3.7,2.692-9.346,1.816-13.123-2.049A11.445,11.445,0,0,1,1.2,215.043a8.227,8.227,0,0,1,2.475-5.875,8.05,8.05,0,0,1,4.082-2.041,9.781,9.781,0,0,0,5.441-2.966.6.6,0,0,0-.884-.82,8.552,8.552,0,0,1-4.774,2.6,9.188,9.188,0,0,0-4.685,2.347A9.374,9.374,0,0,0,0,215.011a12.658,12.658,0,0,0,3.721,8.977,12.771,12.771,0,0,0,9,3.962,9.584,9.584,0,0,0,5.69-1.784.6.6,0,0,0,.137-.844.629.629,0,0,0-.852-.121" transform="translate(0 -186.824)"/><path class="f" d="M162.03,26.256a5.9,5.9,0,0,0,1.744-4.693,9.617,9.617,0,0,0-1.583-4.444l3.849-3.849a.6.6,0,0,0-.852-.852L154.524,23.082a4.544,4.544,0,0,0-1.021-1.535,4.836,4.836,0,0,0-1.535-1.021L164.522,7.974l2.556,2.556L167,10.6a.606.606,0,0,0,0,.852.6.6,0,0,0,.852,0l.153-.153a.925.925,0,0,0,.3.048h.032a.977.977,0,0,0,.715-.338l.643-.723.683.683a.6.6,0,0,0,.852,0,.606.606,0,0,0,0-.852l-.739-.739,1-1.141.715.715a.6.6,0,0,0,.852,0,.607.607,0,0,0,0-.852l-.772-.772,1-1.133.522.522a.6.6,0,0,0,.852,0,.606.606,0,0,0,0-.852l-.571-.571.723-.82a1,1,0,0,0-.04-1.366L171.955.291a1,1,0,0,0-1.366-.04l-.82.723L169.2.4a.6.6,0,0,0-.852.852l.522.522-1.133,1-.78-.78a.6.6,0,0,0-.852.852l.723.723-1.141,1-.739-.739a.6.6,0,1,0-.852.852l.683.683-.723.643a.991.991,0,0,0-.338.715,1.1,1.1,0,0,0,.04.321l-5.81,5.818c-3.391-2.178-6.8-2.194-8.993,0a7.824,7.824,0,0,0-1.318,1.68.6.6,0,0,0,.522.9.607.607,0,0,0,.522-.305,6.646,6.646,0,0,1,1.125-1.423c2.395-2.395,5.682-.932,7.265.024l-6.477,6.477c-.113-.008-.233-.016-.346-.016A4.621,4.621,0,1,0,153.52,28.1a4.568,4.568,0,0,0,1.35-3.271c0-.113-.008-.233-.016-.346L161.331,18c.948,1.591,2.371,4.9-.137,7.409a5.913,5.913,0,0,1-1.342,1,9.874,9.874,0,0,0-5.1,6.944,8.091,8.091,0,0,1-1.422,3.343.6.6,0,0,0,.129.844.586.586,0,0,0,.836-.129,9.287,9.287,0,0,0,1.639-3.841,8.665,8.665,0,0,1,4.5-6.108,7.566,7.566,0,0,0,1.6-1.214m9.21-24.985,2.548,2.548L168.3,10.055l-3.287-3.287Zm-18.6,25.958a3.434,3.434,0,1,1,1-2.419,3.332,3.332,0,0,1-1,2.419" transform="translate(-133.925 0.001)"/><path class="f" d="M56.761,327.641a2.09,2.09,0,0,0,0,2.949l6.156,6.156a2.088,2.088,0,1,0,2.957-2.949l-6.156-6.156a2.1,2.1,0,0,0-2.957,0m8.253,7.008a.881.881,0,0,1-1.246,1.246l-6.156-6.156a.878.878,0,0,1,0-1.246.868.868,0,0,1,.627-.257.882.882,0,0,1,.627.257Z" transform="translate(-51.639 -300.749)"/><path class="f" d="M355.339,129.645a.6.6,0,0,0,.426-.177.606.606,0,0,0,0-.852l-1.286-1.286a.6.6,0,0,0-.852.852l1.286,1.286a.6.6,0,0,0,.426.177" transform="translate(-325.047 -116.937)"/><path class="f" d="M333.139,151.845a.6.6,0,0,0,.426-.177.606.606,0,0,0,0-.852l-1.286-1.286a.6.6,0,0,0-.852.852l1.286,1.286a.6.6,0,0,0,.426.177" transform="translate(-304.631 -137.353)"/><path class="f" d="M311.039,174.045a.6.6,0,0,0,.426-.177.606.606,0,0,0,0-.852l-1.286-1.286a.6.6,0,1,0-.852.852l1.286,1.286a.6.6,0,0,0,.426.177" transform="translate(-284.307 -157.769)"/><path class="f" d="M288.839,196.145a.6.6,0,0,0,.426-.177.606.606,0,0,0,0-.852l-1.286-1.286a.6.6,0,0,0-.852.852l1.286,1.286a.6.6,0,0,0,.426.177" transform="translate(-263.891 -178.093)"/><path class="f" d="M264.927,216.031a.606.606,0,0,0,0,.852l1.286,1.286a.6.6,0,0,0,.852,0,.606.606,0,0,0,0-.852l-1.286-1.286a.606.606,0,0,0-.852,0" transform="translate(-243.475 -198.51)"/><path class="f" d="M405.779,74.33a.6.6,0,1,0,0,.852.606.606,0,0,0,0-.852" transform="translate(-372.224 -68.196)"/><path class="f" d="M423.779,92.231a.6.6,0,1,0,0,.852.606.606,0,0,0,0-.852" transform="translate(-388.778 -84.658)"/><path class="f" d="M428.279,51.83a.6.6,0,1,0,0,.852.592.592,0,0,0,0-.852" transform="translate(-392.916 -47.504)"/><path class="f" d="M446.279,69.731a.6.6,0,1,0,0,.852.592.592,0,0,0,0-.852" transform="translate(-409.47 -63.966)"/><path class="f" d="M450.779,29.33a.6.6,0,1,0,0,.852.6.6,0,0,0,0-.852" transform="translate(-413.608 -26.813)"/><path class="f" d="M468.779,47.131a.6.6,0,1,0,0,.852.6.6,0,0,0,0-.852" transform="translate(-430.162 -43.182)"/><g class="g" transform="translate(12.057 21.066)"><g class="h"><path class="e" d="M153.86,262.131a3.833,3.833,0,1,1-3.833,3.833,3.833,3.833,0,0,1,3.833-3.833" transform="translate(-150.027 -262.131)"/></g></g><g class="g" transform="translate(6.552 19.836)"><g class="i"><path class="e" d="M103.225,246.83l-21.7,18.138s4.187,6.325,11.138.4c0,0,4.227-2.467,3.584-6.244,0,0-.45-2.363,4.637-5.722,0,0,3.962-1.455,2.339-6.574" transform="translate(-81.527 -246.83)"/></g></g><g class="g" transform="translate(33.42 28.278)"><g class="j"><rect class="e" width="1.029" height="6.541" transform="matrix(0.362, -0.932, 0.932, 0.362, 0, 0.959)"/></g></g></g></g></svg>