<svg xmlns="http://www.w3.org/2000/svg" width="11.318" height="11.318" viewBox="0 0 11.318 11.318"><defs><style>.a{fill:#918888;}</style></defs><path class="a" d="M1.029,0h9.26a1.016,1.016,0,0,1,1.029,1,1.016,1.016,0,0,1-1.029,1H1.029A1.016,1.016,0,0,1,0,1,1.016,1.016,0,0,1,1.029,0Z" transform="translate(0 4.552)"/><path class="a" d="M1.029,0h9.26a1.014,1.014,0,0,1,1.029,1,1.014,1.014,0,0,1-1.029,1H1.029A1.014,1.014,0,0,1,0,1,1.014,1.014,0,0,1,1.029,0Z" transform="translate(6.55) rotate(90)"/></svg>