<svg xmlns="http://www.w3.org/2000/svg" width="29.384" height="23.985" viewBox="0 0 29.384 23.985">
  <path id="Path_1404" data-name="Path 1404" d="M19.033-75.8v12.214H6.642v-8.054a21.241,21.241,0,0,1,1.593-8.364,24.436,24.436,0,0,1,5.4-7.567l4.514,3.54a25.822,25.822,0,0,0-3.275,4.248,11.764,11.764,0,0,0-1.5,3.983Zm16.993,0v12.214H23.635v-8.054a21.241,21.241,0,0,1,1.593-8.364,24.436,24.436,0,0,1,5.4-7.567l4.514,3.54a25.822,25.822,0,0,0-3.275,4.248,11.764,11.764,0,0,0-1.5,3.983Z" transform="translate(-6.642 87.576)" fill="#de0322"/>
</svg>
