<svg id="Iconly_Light_Star" data-name="Iconly/Light/Star" xmlns="http://www.w3.org/2000/svg" width="9.501" height="9" viewBox="0 0 9.501 9">
  <g id="Star" transform="translate(0 0)">
    <path id="Star-2" data-name="Star" d="M5.107.22,6.265,2.55a.4.4,0,0,0,.3.218l2.592.375a.4.4,0,0,1,.264.153.385.385,0,0,1-.042.516L7.5,5.629a.381.381,0,0,0-.113.35l.45,2.564a.393.393,0,0,1-.326.446.434.434,0,0,1-.258-.04L4.944,7.739a.388.388,0,0,0-.371,0L2.247,8.956a.406.406,0,0,1-.538-.165.4.4,0,0,1-.041-.25l.45-2.564a.394.394,0,0,0-.113-.35L.116,3.81a.393.393,0,0,1,0-.556l0,0a.455.455,0,0,1,.226-.111l2.593-.375a.406.406,0,0,0,.3-.219L4.392.22a.393.393,0,0,1,.229-.2.4.4,0,0,1,.305.022A.41.41,0,0,1,5.107.22Z" transform="translate(0 0)" fill="#de0322"/>
  </g>
</svg>
