<svg xmlns="http://www.w3.org/2000/svg" width="90.046" height="79.403" viewBox="0 0 90.046 79.403"><defs><style>.a{fill:#de0322;}</style></defs><g transform="translate(30.449 34.14)"><circle class="a" cx="4.645" cy="4.645" r="4.645"/></g><g transform="translate(0 5.405)"><path class="a" d="M1412.536,120.75c-7.372-3.478-14.775-6.889-22.164-10.33a8.311,8.311,0,0,0-3.816-.836,8.642,8.642,0,0,0-4.233,1.366c-3.1,1.871-10.6,6.376-20.624,12.549a5.865,5.865,0,0,0-.526.282l-16.978,10.288a5.747,5.747,0,0,0-1.93,7.87l23.561,38.884a5.747,5.747,0,0,0,7.87,1.93l16.979-10.288a5.909,5.909,0,0,0,.619-.441c6.881-4.125,13.74-8.286,20.613-12.425a7.96,7.96,0,0,0,4.1-6.793c.387-8.142.785-16.284,1.126-24.427A7.526,7.526,0,0,0,1412.536,120.75Zm-41.765,33.365a24.192,24.192,0,0,1-4.594-5.529h0l12.551,20.714-6.081,3.685-18.786-31h0l-.042-.069,16.44-9.962a12.108,12.108,0,0,1,12.773,20.572,16.876,16.876,0,0,0,12.642-2l3.769,6.221A24.228,24.228,0,0,1,1370.771,154.115Zm36.172-16.793a6.851,6.851,0,1,1,2.308-9.409A6.851,6.851,0,0,1,1406.943,137.322Z" transform="translate(-1341.439 -109.58)"/></g><g transform="translate(61.953)"><path class="a" d="M1460.045,103.277c-4.768-3.97-13.267-1.365-19.345,5.938a26.669,26.669,0,0,0-1.769,2.384,1.275,1.275,0,0,0,2.13,1.4,23.847,23.847,0,0,1,1.6-2.153c4.992-6,12.21-8.566,15.754-5.61s2.335,10.52-2.657,16.512a22.578,22.578,0,0,1-4.628,4.223l-2.526,1.43a14.946,14.946,0,0,1-1.555.626,10.091,10.091,0,0,1-3.622.553,4.238,4.238,0,1,0-.964,2.476,10.333,10.333,0,0,0,2.324.048,13.73,13.73,0,0,0,3.057-.653,24.088,24.088,0,0,0,15.04-18.067C1463.413,108.478,1462.406,105.244,1460.045,103.277Z" transform="translate(-1434.926 -101.423)"/></g></svg>