<?xml version="1.0" standalone="no"?>
<!DOCTYPE svg PUBLIC "-//W3C//DTD SVG 20010904//EN"
 "http://www.w3.org/TR/2001/REC-SVG-20010904/DTD/svg10.dtd">
<svg version="1.0" xmlns="http://www.w3.org/2000/svg"
 width="640.000000pt" height="427.000000pt" viewBox="0 0 640.000000 427.000000"
 preserveAspectRatio="xMidYMid meet">
<metadata>
Created by potrace 1.16, written by Peter Selinger 2001-2019
</metadata>
<g transform="translate(0.000000,427.000000) scale(0.100000,-0.100000)"
fill="#000000" stroke="none">
<path d="M0 2135 l0 -2135 3200 0 3200 0 0 2135 0 2135 -1158 0 c-1097 0
-1159 -1 -1159 -17 1 -94 -2 -103 -32 -103 -49 0 -80 -17 -147 -82 -67 -64
-104 -128 -104 -180 0 -16 -13 -55 -29 -87 -17 -32 -41 -99 -55 -148 -14 -50
-34 -111 -45 -137 -11 -25 -25 -85 -31 -133 -7 -49 -19 -126 -27 -173 -9 -47
-19 -132 -23 -190 -4 -58 -13 -121 -20 -140 -7 -19 -16 -80 -20 -135 -7 -99
-8 -101 -85 -255 -43 -85 -89 -176 -101 -201 -13 -26 -30 -87 -38 -137 -8 -50
-19 -99 -24 -109 -22 -42 -33 -127 -36 -268 -2 -134 -4 -150 -20 -149 -12 2
-15 -3 -11 -20 5 -15 4 -17 -3 -7 -5 7 -14 11 -20 8 -5 -4 -10 7 -10 26 -3 98
-5 117 -11 117 -18 0 -32 -131 -27 -240 3 -72 2 -107 -4 -95 -8 18 -9 17 -9
-7 -1 -34 -6 -34 -46 -3 -21 15 -35 36 -39 58 -6 34 -20 50 -63 75 -43 23 -97
9 -105 -28 -3 -16 -36 -45 -43 -38 -2 2 -1 15 2 28 6 22 7 23 14 4 7 -18 8
-17 8 4 1 12 -3 22 -7 22 -13 0 -14 71 -2 101 8 17 17 26 26 22 8 -3 14 0 14
6 0 6 -5 11 -11 11 -9 0 -10 31 -6 113 3 61 2 105 -2 97 -3 -9 -12 -15 -20
-15 -14 0 -23 42 -22 99 0 34 -16 69 -30 61 -5 -4 -9 1 -9 9 0 9 -5 16 -10 16
-7 0 -7 6 0 20 6 11 7 20 3 20 -4 0 -2 5 5 12 7 7 12 23 12 38 -1 23 -2 23
-14 8 -10 -13 -15 -15 -24 -6 -15 15 -16 32 -2 23 6 -3 10 3 10 15 0 12 3 19
8 17 4 -3 7 10 7 28 0 18 -3 31 -6 29 -21 -12 -41 57 -28 94 10 30 -13 116
-25 91 -3 -8 -3 6 0 31 6 48 -10 48 -19 0 -3 -15 -5 -10 -4 13 1 22 -4 41 -12
46 -10 7 -10 20 3 71 14 54 15 74 4 140 -7 47 -16 76 -23 74 -6 -3 -17 17 -24
43 -8 27 -21 58 -29 70 -7 12 -12 28 -9 35 4 8 6 6 6 -4 1 -10 6 -18 11 -18 6
0 10 -6 11 -12 0 -7 9 -31 20 -53 l19 -40 -4 55 c-6 67 -35 147 -48 128 -6
-11 -8 -11 -8 0 0 7 -12 24 -27 38 -20 19 -22 23 -7 18 10 -4 25 -15 31 -23
25 -32 -10 53 -38 92 -20 28 -28 33 -33 21 -3 -8 -2 -13 3 -10 5 3 16 -5 25
-19 21 -31 21 -47 0 -17 -8 12 -22 22 -30 22 -8 0 -17 7 -20 15 -4 8 -12 15
-19 15 -13 0 -25 43 -25 87 0 18 4 24 15 19 8 -3 15 -1 15 4 0 6 -6 10 -14 10
-23 0 -28 34 -27 189 1 173 -25 579 -39 617 -6 14 -13 60 -17 100 l-6 74 -38
0 c-41 0 -49 -10 -24 -30 8 -7 15 -29 15 -50 0 -24 -5 -40 -15 -44 -21 -8 -19
-26 3 -27 16 0 16 -1 0 -7 -13 -5 -15 -11 -8 -22 5 -8 10 -30 10 -48 0 -20 4
-31 10 -27 6 3 10 -1 10 -10 0 -9 -4 -14 -9 -10 -5 3 -11 -3 -14 -12 -3 -12
-7 -7 -13 17 l-9 35 -6 -55 c-4 -30 -5 -3 -2 60 3 63 5 128 4 143 -1 17 3 26
9 22 5 -3 10 1 10 9 0 9 -4 16 -9 16 -5 0 -13 9 -16 20 -6 20 -15 20 -1171 20
l-1164 0 0 -2135z"/>
</g>
</svg>
