<svg xmlns="http://www.w3.org/2000/svg" width="20" height="20" viewBox="0 0 20 20">
  <g id="Iconly_Bulk_Tick_Square" data-name="Iconly/Bulk/Tick Square" opacity="0.996">
    <g id="Tick_Square" data-name="Tick Square">
      <path id="Fill_1" data-name="Fill 1" d="M14.34,0H5.67C2.28,0,0,2.38,0,5.92v8.17C0,17.62,2.28,20,5.67,20h8.67C17.73,20,20,17.62,20,14.09V5.92C20,2.38,17.73,0,14.34,0" fill="#de0322" opacity="0"/>
      <path id="Fill_4" data-name="Fill 4" d="M4.694,9.388a1.26,1.26,0,0,1-.894-.37L.371,5.589A1.264,1.264,0,0,1,2.158,3.8L4.694,6.336,10.659.371A1.264,1.264,0,0,1,12.447,2.16L5.589,9.018a1.26,1.26,0,0,1-.894.37" transform="translate(3.591 5.306)" fill="#de0322"/>
    </g>
  </g>
</svg>
