<svg xmlns="http://www.w3.org/2000/svg" xmlns:xlink="http://www.w3.org/1999/xlink" width="48" height="48" viewBox="0 0 48 48"><defs><style>.a{fill:#fff;}.b{fill:#918888;stroke:#908887;stroke-width:0.3px;}.c{filter:url(#a);}</style><filter id="a" x="0" y="0" width="48" height="48" filterUnits="userSpaceOnUse"><feOffset dy="2" input="SourceAlpha"/><feGaussianBlur stdDeviation="2" result="b"/><feFlood flood-opacity="0.078"/><feComposite operator="in" in2="b"/><feComposite in="SourceGraphic"/></filter></defs><g transform="translate(6 4)"><g class="c" transform="matrix(1, 0, 0, 1, -6, -4)"><circle class="a" cx="18" cy="18" r="18" transform="translate(6 4)"/></g><g transform="translate(7.183 8)"><path class="b" d="M28.64,13.812a3.629,3.629,0,0,0-5.121,0,1.894,1.894,0,0,0-.282.329L18,11.251a3.662,3.662,0,0,0,.235-1.245A3.173,3.173,0,0,0,18,8.761l5.215-2.913a4.09,4.09,0,0,0,.282.329,3.617,3.617,0,0,0,6.178-2.56,3.617,3.617,0,1,0-7.235,0,3.962,3.962,0,0,0,.188,1.174L17.413,7.728c-.07-.094-.164-.188-.235-.282a3.621,3.621,0,0,0-5.121,5.121,3.543,3.543,0,0,0,2.56,1.057,3.583,3.583,0,0,0,2.56-1.057,2.488,2.488,0,0,0,.235-.282L22.651,15.2a3.844,3.844,0,0,0-.188,1.174,3.617,3.617,0,1,0,6.178-2.56ZM24.389,1.926a2.375,2.375,0,0,1,1.715-.7,2.518,2.518,0,0,1,1.715.7,2.375,2.375,0,0,1,.7,1.715,2.518,2.518,0,0,1-.7,1.715,2.375,2.375,0,0,1-1.715.7,2.518,2.518,0,0,1-1.715-.7,1.76,1.76,0,0,1-.352-.47c-.023-.047-.023-.07-.047-.117-.023-.023-.047-.07-.07-.094a2.474,2.474,0,0,1-.235-1.034A2.249,2.249,0,0,1,24.389,1.926Zm-8.057,9.795a2.375,2.375,0,0,1-1.715.7,2.518,2.518,0,0,1-1.715-.7,2.375,2.375,0,0,1-.7-1.715,2.415,2.415,0,0,1,.7-1.715,2.375,2.375,0,0,1,1.715-.7,2.518,2.518,0,0,1,1.715.7,2.375,2.375,0,0,1,.7,1.715A2.518,2.518,0,0,1,16.332,11.721ZM27.795,18.11a2.375,2.375,0,0,1-1.715.7,2.518,2.518,0,0,1-1.715-.7,2.375,2.375,0,0,1-.7-1.715,2.474,2.474,0,0,1,.235-1.034.324.324,0,0,0,.07-.094c.023-.047.047-.07.047-.117a2.234,2.234,0,0,1,.352-.47,2.415,2.415,0,0,1,1.715-.7,2.518,2.518,0,0,1,1.715.7,2.375,2.375,0,0,1,.7,1.715A2.518,2.518,0,0,1,27.795,18.11Z" transform="translate(-11)"/></g></g></svg>