<svg id="Tick_Square" data-name="Tick Square" xmlns="http://www.w3.org/2000/svg" width="20" height="20" viewBox="0 0 20 20">
  <path id="Fill_1" data-name="Fill 1" d="M14.34,0H5.67C2.28,0,0,2.38,0,5.92v8.17C0,17.62,2.28,20,5.67,20h8.67C17.73,20,20,17.62,20,14.09V5.92C20,2.38,17.73,0,14.34,0" fill="#de0322" opacity="0.4"/>
  <path id="Fill_4" data-name="Fill 4" d="M4.227,8.454a1.135,1.135,0,0,1-.806-.333L.334,5.033a1.139,1.139,0,0,1,1.61-1.611L4.227,5.706,9.6.334a1.139,1.139,0,0,1,1.61,1.611L5.033,8.121a1.135,1.135,0,0,1-.806.333" transform="translate(4.228 5.773)" fill="#de0322"/>
</svg>
