<svg xmlns="http://www.w3.org/2000/svg" width="14.606" height="19.176" viewBox="0 0 14.606 19.176">
  <g id="hourglass" transform="translate(-61)">
    <g id="Group_9156" data-name="Group 9156" transform="translate(61)">
      <path id="Path_947" data-name="Path 947" d="M71.324,7.6a8.224,8.224,0,0,0,3.147-6.472h1.135V0H61V1.124h1.135A8.224,8.224,0,0,0,65.283,7.6c.853.778,1.335,1.253,1.335,1.992s-.483,1.215-1.335,1.992a8.224,8.224,0,0,0-3.147,6.472H61v1.124H75.606V18.052H74.471a8.224,8.224,0,0,0-3.147-6.472c-.853-.778-1.335-1.253-1.335-1.992S70.471,8.373,71.324,7.6Zm-3.583,7.218c-.174.036-.956.077-1.124.146l-2.83.42a7.665,7.665,0,0,1,2.251-2.969c.875-.8,1.7-1.552,1.7-2.823Zm2.826-2.4a7.666,7.666,0,0,1,2.251,2.969l-3.86-.566c-.167-.069.08-.979-.093-5.226C68.865,10.859,69.692,11.613,70.567,12.411Zm-6.8-8.665a8.325,8.325,0,0,1-.508-2.622H73.346a8.324,8.324,0,0,1-.508,2.622c-.251.654-2.515,4.16-4.254,4.839a1.006,1.006,0,0,1-.842,0,17.178,17.178,0,0,1-2.613-2.563" transform="translate(-61)" fill="#de0322" opacity="0.399"/>
      <path id="Path_948" data-name="Path 948" d="M64.924,4.879H72.4s-2.266,3.642-3.888,3.51S64.924,4.879,64.924,4.879Z" transform="translate(-61.337 0.31)" fill="#de0322"/>
      <path id="Path_950" data-name="Path 950" d="M64.468,4.663l9.894-.092S74.151,6,73.894,7.115a34.978,34.978,0,0,1-4.583.691c-1.3-.173-3.086-.419-4.5-.691A23.352,23.352,0,0,1,64.468,4.663Z" transform="translate(76.682 22.543) rotate(180)" fill="#de0322"/>
      <path id="Path_951" data-name="Path 951" d="M-.24.44.864.264,1,7.432H-.24Z" transform="translate(7 8.07)" fill="#de0322"/>
    </g>
  </g>
</svg>
