<svg xmlns="http://www.w3.org/2000/svg" width="13.44" height="13.44" viewBox="0 0 13.44 13.44">
  <g id="More_Circle" data-name="More Circle" transform="translate(0 0)">
    <path id="Stroke_1" data-name="Stroke 1" d="M5.97,0A5.97,5.97,0,1,1,0,5.97,5.971,5.971,0,0,1,5.97,0Z" transform="translate(0.75 0.75)" fill="none" stroke="#de0322" stroke-linecap="round" stroke-linejoin="round" stroke-miterlimit="10" stroke-width="1.5"/>
    <g id="Group_7" data-name="Group 7" transform="translate(2.747 2.743)">
      <g id="Path_47" data-name="Path 47" transform="translate(0 3.197)" fill="none" stroke-linecap="round">
        <path d="M.723,0h6.5a.751.751,0,0,1,.723.777.751.751,0,0,1-.723.777H.723A.751.751,0,0,1,0,.777.751.751,0,0,1,.723,0Z" stroke="none"/>
        <path d="M 0.7225303649902344 -3.576278686523438e-06 L 7.225310325622559 -3.576278686523438e-06 C 7.624350547790527 -3.576278686523438e-06 7.947840213775635 0.3480364084243774 7.947840213775635 0.7773563861846924 C 7.947840213775635 1.206676363945007 7.624350547790527 1.554716348648071 7.225310325622559 1.554716348648071 L 0.7225303649902344 1.554716348648071 C 0.3234901428222656 1.554716348648071 4.76837158203125e-07 1.206676363945007 4.76837158203125e-07 0.7773563861846924 C 4.76837158203125e-07 0.3480364084243774 0.3234901428222656 -3.576278686523438e-06 0.7225303649902344 -3.576278686523438e-06 Z" stroke="none" fill="#de0322"/>
      </g>
      <g id="Path_48" data-name="Path 48" transform="translate(4.751) rotate(90)" fill="none" stroke-linecap="round">
        <path d="M.723,0h6.5a.751.751,0,0,1,.723.777.751.751,0,0,1-.723.777H.723A.751.751,0,0,1,0,.777.751.751,0,0,1,.723,0Z" stroke="none"/>
        <path d="M 0.7225303649902344 -3.576278686523438e-06 L 7.225310325622559 -3.576278686523438e-06 C 7.624350547790527 -3.576278686523438e-06 7.947840213775635 0.3480364084243774 7.947840213775635 0.7773563861846924 C 7.947840213775635 1.206676363945007 7.624350547790527 1.554716348648071 7.225310325622559 1.554716348648071 L 0.7225303649902344 1.554716348648071 C 0.3234901428222656 1.554716348648071 4.76837158203125e-07 1.206676363945007 4.76837158203125e-07 0.7773563861846924 C 4.76837158203125e-07 0.3480364084243774 0.3234901428222656 -3.576278686523438e-06 0.7225303649902344 -3.576278686523438e-06 Z" stroke="none" fill="#de0322"/>
      </g>
    </g>
  </g>
</svg>
