<svg xmlns="http://www.w3.org/2000/svg" width="182" height="43.368" viewBox="0 0 182 43.368"><defs><style>.a{fill:#6e6e6e;}.b{fill:#fff;}</style></defs><g transform="translate(-0.56 -0.559)"><g transform="translate(0.56 0.559)"><g transform="translate(0)"><rect class="a" width="182" height="43.368" rx="7.382"/></g><g transform="translate(58.755 6.452)"><path class="b" d="M97.026,33.711,96.4,35.782H95.02l2.342-7.308h1.7l2.375,7.308h-1.432l-.661-2.071ZM99.119,32.7l-.575-1.8c-.141-.445-.26-.943-.369-1.366h-.022c-.108.423-.217.932-.347,1.366l-.563,1.8Z" transform="translate(-95.02 -28.073)"/><path class="b" d="M106.5,31.393l.856,2.678c.152.466.26.889.358,1.322h.033c.1-.433.217-.845.358-1.322l.845-2.678h1.4l-2.017,5.28h-1.311l-1.963-5.28Z" transform="translate(-98.084 -28.964)"/><path class="b" d="M118.37,35.353a7.1,7.1,0,0,0,.087,1.268h-1.2l-.1-.586h-.033a1.93,1.93,0,0,1-1.561.705,1.567,1.567,0,0,1-1.659-1.573c0-1.322,1.182-2.005,3.133-1.995v-.087c0-.347-.141-.921-1.073-.921a2.789,2.789,0,0,0-1.42.39l-.26-.868a3.8,3.8,0,0,1,1.909-.466,1.978,1.978,0,0,1,2.179,2.233Zm-1.3-1.312c-.943-.011-1.843.184-1.843.987a.7.7,0,0,0,.759.758,1.1,1.1,0,0,0,1.052-.727.9.9,0,0,0,.033-.292Z" transform="translate(-100.787 -28.912)"/><path class="b" d="M123.676,29.666a.755.755,0,1,1,.011,0Zm-.661,6.039v-5.28h1.334v5.28Z" transform="translate(-103.547 -27.996)"/><path class="b" d="M127.73,27.9h1.334v7.709H127.73Z" transform="translate(-105.01 -27.896)"/><path class="b" d="M136.364,35.353a7.173,7.173,0,0,0,.086,1.268h-1.2l-.1-.586h-.033a1.929,1.929,0,0,1-1.561.705,1.567,1.567,0,0,1-1.659-1.573c0-1.322,1.182-2.005,3.133-1.995v-.087c0-.347-.14-.921-1.073-.921a2.789,2.789,0,0,0-1.42.39l-.26-.868a3.8,3.8,0,0,1,1.908-.466,1.978,1.978,0,0,1,2.18,2.233Zm-1.3-1.312c-.943-.011-1.843.184-1.843.987a.7.7,0,0,0,.758.758,1.1,1.1,0,0,0,1.052-.727.9.9,0,0,0,.033-.292Z" transform="translate(-106.282 -28.912)"/><path class="b" d="M141.023,27.9h1.334v3.156h.022a1.912,1.912,0,0,1,1.691-.845c1.291,0,2.212,1.073,2.2,2.678,0,1.9-1.2,2.841-2.4,2.841a1.818,1.818,0,0,1-1.67-.911h-.022l-.065.792h-1.138c.021-.358.044-.943.044-1.475Zm1.334,5.53a1.479,1.479,0,0,0,.032.315,1.219,1.219,0,0,0,1.182.933c.835,0,1.344-.661,1.344-1.735,0-.932-.445-1.691-1.334-1.691a1.239,1.239,0,0,0-1.182.976,1.6,1.6,0,0,0-.043.347Z" transform="translate(-109.056 -27.896)"/><path class="b" d="M150.857,27.9h1.334v7.709h-1.334Z" transform="translate(-112.073 -27.896)"/><path class="b" d="M156.35,34.355a1.435,1.435,0,0,0,1.626,1.366,4.252,4.252,0,0,0,1.464-.239l.2.911a4.739,4.739,0,0,1-1.843.336,2.5,2.5,0,0,1-2.722-2.667,2.614,2.614,0,0,1,2.581-2.84,2.3,2.3,0,0,1,2.276,2.569,3.4,3.4,0,0,1-.042.564Zm2.32-.933a1.135,1.135,0,0,0-1.1-1.29,1.3,1.3,0,0,0-1.225,1.29Z" transform="translate(-113.36 -28.912)"/><path class="b" d="M170.372,36.741a2.553,2.553,0,0,1-2.646-2.721,2.607,2.607,0,0,1,2.733-2.8,2.533,2.533,0,0,1,2.623,2.71,2.613,2.613,0,0,1-2.7,2.808Zm.043-.965c.758,0,1.291-.737,1.291-1.81,0-.824-.37-1.778-1.279-1.778-.944,0-1.323.922-1.323,1.8,0,1.019.51,1.789,1.3,1.789Z" transform="translate(-117.225 -28.912)"/><path class="b" d="M177.68,32.913c0-.608-.022-1.117-.044-1.573h1.16l.065.792h.033a1.938,1.938,0,0,1,1.691-.911c.922,0,1.876.6,1.876,2.266v3.133h-1.334V33.64c0-.759-.283-1.334-1.009-1.334a1.119,1.119,0,0,0-1.04.781,1.231,1.231,0,0,0-.065.423v3.112H177.68Z" transform="translate(-120.252 -28.912)"/><path class="b" d="M192.523,29.442V30.8h1.268v1h-1.268v2.321c0,.65.174.976.683.976a1.751,1.751,0,0,0,.52-.054l.022,1.008a2.913,2.913,0,0,1-.965.141,1.527,1.527,0,0,1-1.149-.433,2.08,2.08,0,0,1-.422-1.486V31.795h-.749v-1h.749v-.986Z" transform="translate(-124.169 -28.368)"/><path class="b" d="M197.393,27.9h1.334V31.04h.022a1.76,1.76,0,0,1,.661-.6,1.879,1.879,0,0,1,.922-.238c.9,0,1.843.6,1.843,2.287v3.112h-1.334V32.634c0-.759-.282-1.345-1.02-1.345a1.113,1.113,0,0,0-1.04.748,1.208,1.208,0,0,0-.054.4v3.166h-1.334Z" transform="translate(-126.286 -27.896)"/><path class="b" d="M207.8,34.355a1.435,1.435,0,0,0,1.626,1.366,4.252,4.252,0,0,0,1.463-.239l.2.911a4.739,4.739,0,0,1-1.843.336,2.5,2.5,0,0,1-2.722-2.667,2.614,2.614,0,0,1,2.581-2.84,2.3,2.3,0,0,1,2.276,2.569,3.4,3.4,0,0,1-.042.564Zm2.32-.933a1.135,1.135,0,0,0-1.095-1.29,1.3,1.3,0,0,0-1.225,1.29Z" transform="translate(-129.073 -28.912)"/></g><g transform="translate(13.718 6.025)"><path class="b" d="M65.471,45.542a6.5,6.5,0,0,1,3.1-5.458,6.659,6.659,0,0,0-5.248-2.838c-2.207-.231-4.349,1.323-5.471,1.323-1.147,0-2.882-1.3-4.746-1.262a6.99,6.99,0,0,0-5.88,3.588c-2.542,4.4-.646,10.872,1.789,14.432,1.219,1.742,2.644,3.688,4.507,3.619,1.823-.076,2.5-1.161,4.705-1.161,2.182,0,2.821,1.161,4.723,1.118,1.957-.032,3.188-1.751,4.363-3.51a14.319,14.319,0,0,0,2-4.066,6.284,6.284,0,0,1-3.838-5.784" transform="translate(-46.016 -30.316)"/><path class="b" d="M66.967,31.869a6.393,6.393,0,0,0,1.465-4.589,6.51,6.51,0,0,0-4.215,2.182,6.09,6.09,0,0,0-1.505,4.42,5.39,5.39,0,0,0,4.255-2.012" transform="translate(-51.105 -27.28)"/><g transform="translate(44.241 13.228)"><path class="b" d="M106.442,61.536H103.9L102.51,57.16H97.674l-1.327,4.375H93.873l4.8-14.891h2.958Zm-4.35-6.21-1.258-3.888q-.2-.594-.752-2.8h-.044q-.222.951-.708,2.8l-1.237,3.888Z" transform="translate(-93.873 -46.423)"/><path class="b" d="M125.172,57.763a6.1,6.1,0,0,1-1.48,4.331,4.328,4.328,0,0,1-3.29,1.413,3.3,3.3,0,0,1-3.051-1.525h-.042v5.655h-2.388V56.061q0-1.722-.088-3.534h2.1l.133,1.7h.045a4.242,4.242,0,0,1,6.792-.42,5.92,5.92,0,0,1,1.27,3.954m-2.43.088a4.428,4.428,0,0,0-.707-2.585A2.445,2.445,0,0,0,119.96,54.2a2.477,2.477,0,0,0-1.6.586,2.723,2.723,0,0,0-.94,1.538,3.11,3.11,0,0,0-.109.727v1.791a2.866,2.866,0,0,0,.715,1.976,2.382,2.382,0,0,0,1.868.806,2.433,2.433,0,0,0,2.1-1.037,4.559,4.559,0,0,0,.752-2.74" transform="translate(-100.275 -48.152)"/><path class="b" d="M142.951,57.763a6.1,6.1,0,0,1-1.481,4.331,4.325,4.325,0,0,1-3.291,1.413,3.292,3.292,0,0,1-3.047-1.525h-.044v5.655H132.7V56.061q0-1.722-.088-3.534h2.1l.133,1.7h.046a4.242,4.242,0,0,1,6.792-.42,5.923,5.923,0,0,1,1.268,3.954m-2.428.088a4.418,4.418,0,0,0-.708-2.585,2.443,2.443,0,0,0-2.075-1.061,2.483,2.483,0,0,0-1.6.586,2.719,2.719,0,0,0-.937,1.538,2.994,2.994,0,0,0-.112.727v1.791a2.857,2.857,0,0,0,.717,1.976,2.375,2.375,0,0,0,1.868.806,2.436,2.436,0,0,0,2.1-1.037,4.583,4.583,0,0,0,.752-2.74" transform="translate(-105.705 -48.152)"/><path class="b" d="M163.314,57.261a3.964,3.964,0,0,1-1.324,3.093,5.855,5.855,0,0,1-4.054,1.3,7.118,7.118,0,0,1-3.861-.927l.553-1.989a6.543,6.543,0,0,0,3.45.949,3.264,3.264,0,0,0,2.1-.606,1.992,1.992,0,0,0,.749-1.627,2.08,2.08,0,0,0-.617-1.527,5.758,5.758,0,0,0-2.057-1.151q-3.91-1.462-3.908-4.271a3.775,3.775,0,0,1,1.37-3.008,5.406,5.406,0,0,1,3.645-1.175,7.232,7.232,0,0,1,3.379.708l-.6,1.944a5.887,5.887,0,0,0-2.851-.684,2.882,2.882,0,0,0-1.965.618,1.775,1.775,0,0,0-.6,1.348,1.815,1.815,0,0,0,.683,1.457,7.694,7.694,0,0,0,2.165,1.15,7.35,7.35,0,0,1,2.828,1.811,3.8,3.8,0,0,1,.906,2.585" transform="translate(-112.259 -46.325)"/><path class="b" d="M175.855,53.237h-2.629v5.214q0,1.989,1.393,1.988a4.332,4.332,0,0,0,1.059-.109l.065,1.811a5.357,5.357,0,0,1-1.854.265,2.859,2.859,0,0,1-2.21-.86,4.232,4.232,0,0,1-.8-2.9V53.237h-1.569V51.447h1.569V49.482l2.341-.708v2.673h2.629Z" transform="translate(-116.914 -47.073)"/><path class="b" d="M191.187,57.807a5.888,5.888,0,0,1-1.414,4.065,5.05,5.05,0,0,1-3.932,1.634,4.8,4.8,0,0,1-3.767-1.569,5.7,5.7,0,0,1-1.4-3.952,5.828,5.828,0,0,1,1.447-4.088,5,5,0,0,1,3.9-1.592,4.909,4.909,0,0,1,3.8,1.568,5.659,5.659,0,0,1,1.37,3.933m-2.476.077a4.835,4.835,0,0,0-.641-2.548,2.355,2.355,0,0,0-2.141-1.285,2.391,2.391,0,0,0-2.188,1.285,4.934,4.934,0,0,0-.638,2.594,4.832,4.832,0,0,0,.638,2.546,2.406,2.406,0,0,0,2.167,1.284,2.38,2.38,0,0,0,2.14-1.307,4.836,4.836,0,0,0,.663-2.57" transform="translate(-120.382 -48.152)"/><path class="b" d="M204.448,54.625a4.3,4.3,0,0,0-.75-.065,2.265,2.265,0,0,0-1.946.951,3.584,3.584,0,0,0-.6,2.12v5.633h-2.384l.02-7.355q0-1.857-.088-3.381h2.078l.088,2.056h.064a3.678,3.678,0,0,1,1.194-1.7,2.888,2.888,0,0,1,1.725-.575,3.929,3.929,0,0,1,.6.042Z" transform="translate(-125.89 -48.152)"/><path class="b" d="M218.137,57.377a5.754,5.754,0,0,1-.086,1.083h-7.156a3.119,3.119,0,0,0,1.037,2.431,3.543,3.543,0,0,0,2.343.749,7.929,7.929,0,0,0,2.893-.507l.374,1.657a8.973,8.973,0,0,1-3.6.664,5.21,5.21,0,0,1-3.921-1.47A5.433,5.433,0,0,1,208.6,58.04,6.154,6.154,0,0,1,209.922,54a4.568,4.568,0,0,1,3.753-1.721A4.007,4.007,0,0,1,217.192,54a5.816,5.816,0,0,1,.945,3.381m-2.275-.619a3.232,3.232,0,0,0-.462-1.833,2.089,2.089,0,0,0-1.9-.995,2.269,2.269,0,0,0-1.9.972,3.534,3.534,0,0,0-.705,1.855Z" transform="translate(-128.91 -48.142)"/></g></g></g></g></svg>