<svg xmlns="http://www.w3.org/2000/svg" width="56.011" height="40.986" viewBox="0 0 56.011 40.986"><defs><style>.a{fill:rgba(222,3,34,0.08);}.b,.d{fill:#de0322;}.c{fill:rgba(222,3,34,0.4);}.d{opacity:0.404;}.e{fill:none;stroke:#707070;}</style></defs><g transform="translate(23.387 16.718)"><circle class="a" cx="11.5" cy="11.5" r="11.5" transform="translate(0 1.267)"/><path class="b" d="M523.506,273.773a8.909,8.909,0,0,1-1.093-1.62A2.776,2.776,0,0,1,525,268.372a6.87,6.87,0,0,1,1.915.15,3.85,3.85,0,0,1,2.881,3.2c.026.133.059.265.094.425,1.009,0,2.005,0,3,0a.982.982,0,0,1,1.109.763c.686,1.758,1.369,3.517,2.064,5.3.3-.506.55-.995.858-1.445a8.085,8.085,0,0,1,3.24-2.794.409.409,0,0,0,.261-.569q-.957-3.748-1.876-7.507c-.074-.3-.19-.393-.489-.387-.844.018-1.688.01-2.532,0a.95.95,0,0,1-1.054-.959.94.94,0,0,1,1.051-.914c1.12-.005,2.241,0,3.361,0,.851,0,1.073.17,1.293.99.019.072.044.143.077.251a3.366,3.366,0,0,1,2.931.719,3.266,3.266,0,0,1,1.107,1.918c.32,1.636-.54,3.007-2.432,3.839l.462,1.884a8.133,8.133,0,0,1,3.451.056,8.515,8.515,0,0,1,3.3,1.556.966.966,0,0,1,.33,1.394.951.951,0,0,1-1.452.124,6.473,6.473,0,0,0-6.353-.971,6.548,6.548,0,0,0-4.281,5.905c-.031.942-.322,1.226-1.263,1.227-1.519,0-3.039.009-4.558-.005a.479.479,0,0,0-.552.391,4.233,4.233,0,0,1-8.045-.023.442.442,0,0,0-.517-.368c-.629.018-1.258.011-1.888,0-.794-.009-1.15-.377-1.111-1.183a9.424,9.424,0,0,1,3.93-7.431C523.412,273.846,523.508,273.772,523.506,273.773Zm11.424,6.853a1.31,1.31,0,0,0-.034-.188c-.792-2.047-1.58-4.1-2.392-6.134a.574.574,0,0,0-.437-.268q-1.611-.035-3.222-.01a7.573,7.573,0,0,0-7.513,6.6Zm-6.981-8.492c-.033-.168-.043-.259-.07-.345a2.489,2.489,0,0,0-3.235-1.449.953.953,0,0,0-.534.982.884.884,0,0,0,.821.8C525.922,272.155,526.914,272.134,527.95,272.134Zm-3.173,10.429a2.337,2.337,0,0,0,2.28,1.381,2.3,2.3,0,0,0,2.011-1.381Zm15.933-15.8.675,2.71a1.417,1.417,0,0,0,1.073-1.742A1.39,1.39,0,0,0,540.709,266.761Z" transform="translate(-516.958 -263.641)"/><path class="b" d="M743.3,420.535a4.251,4.251,0,1,1,4.272-4.213A4.257,4.257,0,0,1,743.3,420.535Zm-2.317-4.216a2.353,2.353,0,1,0,2.346-2.38A2.346,2.346,0,0,0,740.985,416.319Z" transform="translate(-716.392 -398.344)"/><path class="c" d="M152.308,398.521s1.754-7.032,7.189-7.147h0l3.073,7.9Z" transform="translate(-143.265 -381.446)"/><path class="c" d="M158.756,398.348s-3.242-5.521-.324-5.8,3.7.546,3.7.546l1.236,3.219Z" transform="translate(-133.021 -377.309)"/></g><g transform="translate(3.146 5.922)"><path class="b" d="M9.391,27.391H5.478A2.351,2.351,0,0,1,3.13,25.043V23.478H1.565a.783.783,0,0,1-.782-.783V13.3A2.35,2.35,0,0,1,3.13,10.956h.19l.671-2.347H.783a.783.783,0,0,1,0-1.566H4.44L5.966,1.7A2.372,2.372,0,0,1,8.224,0H26.21a2.372,2.372,0,0,1,2.258,1.7l1.526,5.34h3.659a.783.783,0,0,1,0,1.566h-3.21l.669,2.347H31.3a2.331,2.331,0,0,1,1.674.7,11.322,11.322,0,0,0-2.412-.259,11.148,11.148,0,0,0-4.9,1.122H3.13a.783.783,0,0,0-.782.783v8.609H12.521V18.782A.783.783,0,0,1,13.3,18h7.011a11.2,11.2,0,0,0-.575,1.565H14.087v2.348h5.248c-.016.24-.024.488-.024.74,0,.274.01.552.03.825h-7.6v1.565A2.351,2.351,0,0,1,9.391,27.391ZM4.7,23.478v1.565a.783.783,0,0,0,.782.783H9.391a.784.784,0,0,0,.783-.783V23.478ZM8.224,1.565a.787.787,0,0,0-.753.568L4.95,10.956H29.483L26.963,2.133a.787.787,0,0,0-.753-.568ZM7.435,20.347a2.739,2.739,0,1,1,2.739-2.739A2.742,2.742,0,0,1,7.435,20.347Zm0-3.913a1.174,1.174,0,1,0,1.174,1.174A1.175,1.175,0,0,0,7.435,16.434Z"/><path class="d" d="M139.053,376l-2.923,9.437L158.562,376Z" transform="translate(-131.472 -374.67)"/></g><path class="e" d="M128.568,369.014" transform="translate(-128.568 -369.014)"/></svg>