<svg xmlns="http://www.w3.org/2000/svg" xmlns:xlink="http://www.w3.org/1999/xlink" width="36" height="36" viewBox="0 0 36 36"><defs><style>.a{fill:#fff;}.b,.c{fill:none;stroke-linecap:round;stroke-linejoin:round;stroke-miterlimit:10;stroke-width:1.5px;}.b{stroke:#de0322;}.c{stroke:#918888;}.d{fill:#918888;}.e{filter:url(#a);}</style><filter id="a" x="0" y="0" width="36" height="36" filterUnits="userSpaceOnUse"><feOffset input="SourceAlpha"/><feGaussianBlur stdDeviation="1" result="b"/><feFlood flood-opacity="0.059"/><feComposite operator="in" in2="b"/><feComposite in="SourceGraphic"/></filter></defs><g transform="translate(-215 -228)"><g class="e" transform="matrix(1, 0, 0, 1, 215, 228)"><circle class="a" cx="15" cy="15" r="15" transform="translate(3 3)"/></g><g transform="translate(224.75 238.654)"><path class="b" d="M13.278,2.953h0a.859.859,0,0,1-.776-.484c-.256-.534-.582-1.217-.774-1.589A1.5,1.5,0,0,0,10.344,0H6.156A1.5,1.5,0,0,0,4.772.88C4.58,1.251,4.254,1.934,4,2.469a.86.86,0,0,1-.776.484h0A3.2,3.2,0,0,0,0,6.128v5.217A3.2,3.2,0,0,0,3.222,14.52H13.278A3.2,3.2,0,0,0,16.5,11.345V6.128A3.2,3.2,0,0,0,13.278,2.953Z"/><path class="c" d="M0,2.8A2.835,2.835,0,0,0,5.67,2.8,2.835,2.835,0,0,0,0,2.8Z" transform="translate(5.415 5.627)"/><path class="d" d="M.8,1.754a.979.979,0,0,1-.267-.069.9.9,0,0,1-.287-.194A.89.89,0,0,1,0,.879.843.843,0,0,1,.073.533a.894.894,0,0,1,.21-.3A1.022,1.022,0,0,1,.555.062.922.922,0,0,1,1.52.251.846.846,0,0,1,1.689.48l.02.051a.845.845,0,0,1,.074.348.885.885,0,0,1-.8.874l-.088,0Z" transform="translate(11.818 4.614)"/></g></g></svg>