<svg xmlns="http://www.w3.org/2000/svg" width="45.467" height="44" viewBox="0 0 45.467 44"><defs><style>.a,.b{fill:#de0322;}.a{opacity:0.403;}.c{fill:none;stroke:rgba(222,3,34,0.4);stroke-linecap:round;}</style></defs><g transform="translate(0 0)"><path class="a" d="M3.869,0A3.869,3.869,0,1,1,0,3.869,3.869,3.869,0,0,1,3.869,0Z" transform="translate(32.795 3.467)"/><path class="a" d="M0,14.146H16.97L24.8,0,13,6.626Z" transform="translate(29.392 41.665) rotate(180)"/><path class="b" d="M481.467,480h-.733a.733.733,0,0,0,0,1.467h.733a.733.733,0,0,0,0-1.467Z" transform="translate(-436.733 -437.467)"/><path class="b" d="M344.733,352a.733.733,0,0,0-.733.733v9.625a.733.733,0,1,0,1.467,0v-9.625A.733.733,0,0,0,344.733,352Z" transform="translate(-313.2 -321.2)"/><path class="b" d="M51.052,317.414a.735.735,0,0,0-1.038,0l-1.765,1.766-8.072-14.8a.733.733,0,0,0-.643-.382H20.467a.733.733,0,0,0-.644.382l-8.072,14.8-1.765-1.766a.734.734,0,0,0-1.038,1.038l1.682,1.681h-1.9a.733.733,0,0,0,0,1.467H49.8a.733.733,0,0,0,0-1.467h-.43l1.682-1.681A.735.735,0,0,0,51.052,317.414ZM12.9,320.133l8-14.667H38.3l-8,14.667Zm19.067,0,7.564-13.868L47.1,320.133Z" transform="translate(-8 -277.6)"/><path class="b" d="M37.4,123h9.533a3.667,3.667,0,0,0,.429-7.308,5.5,5.5,0,0,0-9.607-1.477q-.178-.014-.355-.014a4.4,4.4,0,0,0,0,8.8Zm0-7.333a2.942,2.942,0,0,1,.565.055.734.734,0,0,0,.766-.335,4.034,4.034,0,0,1,7.361,1.184.737.737,0,0,0,.747.565l.095,0a2.2,2.2,0,0,1,0,4.4H37.4a2.933,2.933,0,0,1,0-5.867Z" transform="translate(-30.708 -103.199)"/><path class="b" d="M364.4,56.8a4.4,4.4,0,1,0-4.4-4.4A4.4,4.4,0,0,0,364.4,56.8Zm0-7.333a2.933,2.933,0,1,1-2.933,2.933A2.933,2.933,0,0,1,364.4,49.467Z" transform="translate(-327.733 -45.067)"/><path class="b" d="M400.733,18.2a.733.733,0,0,0,.733-.733v-.733a.733.733,0,0,0-1.467,0v.733A.733.733,0,0,0,400.733,18.2Z" transform="translate(-364.067 -16)"/><path class="b" d="M400,152.733v.733a.733.733,0,0,0,1.467,0v-.733a.733.733,0,0,0-1.467,0Z" transform="translate(-364.067 -139.533)"/><path class="b" d="M464,88.733a.733.733,0,0,0,.733.733h.733a.733.733,0,0,0,0-1.467h-.733A.733.733,0,0,0,464,88.733Z" transform="translate(-422.2 -81.4)"/><path class="b" d="M328.733,89.467h.733a.733.733,0,0,0,0-1.467h-.733a.733.733,0,1,0,0,1.467Z" transform="translate(-298.667 -81.4)"/><path class="b" d="M445.99,39.073a.731.731,0,0,0,.519-.215l.519-.519A.733.733,0,0,0,445.99,37.3l-.518.519a.733.733,0,0,0,.519,1.252Z" transform="translate(-405.175 -35.155)"/><path class="b" d="M349.821,133.472l-.519.519a.733.733,0,0,0,1.037,1.037l.519-.519a.733.733,0,0,0-1.037-1.037Z" transform="translate(-317.822 -122.508)"/><path class="b" d="M446.508,133.471a.733.733,0,1,0-1.037,1.037l.519.518a.733.733,0,0,0,1.037-1.037Z" transform="translate(-405.174 -122.508)"/><path class="b" d="M349.819,38.858a.733.733,0,1,0,1.037-1.037l-.519-.518A.733.733,0,1,0,349.3,38.34Z" transform="translate(-317.82 -35.155)"/><path class="c" d="M-193.105,638.519c.533,0,3.21.5,3.535,1.575s.709-2.118,2.24-2.144" transform="translate(217.314 -619.639)"/><path class="c" d="M-193.105,638.519c.533,0,3.21.5,3.535,1.575s.709-2.118,2.24-2.144" transform="translate(219.876 -615.795)"/></g></svg>