<svg xmlns="http://www.w3.org/2000/svg" width="45.631" height="37.863" viewBox="0 0 45.631 37.863"><defs><style>.a,.i{fill:none;stroke:#de0322;}.b,.c,.d{fill:#de0322;}.c{opacity:0.402;}.d{opacity:0.405;}.e{fill:#f5f5f5;}.f{fill:#f57c00;}.g{fill:rgba(222,3,34,0.4);}.h{fill:#fbdbdf;}.i{stroke-linecap:round;stroke-width:0.75px;}</style></defs><g transform="translate(0 0.521)"><g transform="translate(7.592)"><path class="a" d="M25.065,29.88,16.5,12.565V10.755h.007l.333-2.4A5.645,5.645,0,0,1,18,5.659,8.067,8.067,0,0,0,19.26.724a.326.326,0,0,0-.181-.277L18.248.033a.327.327,0,0,0-.4.091A6.791,6.791,0,0,1,14.04,2.188a6.743,6.743,0,0,1-2.906,0A6.791,6.791,0,0,1,7.325.123a.328.328,0,0,0-.4-.091L6.094.447a.327.327,0,0,0-.181.277A8.067,8.067,0,0,0,7.171,5.659,5.646,5.646,0,0,1,8.335,8.352l.333,2.4h.007v1.811L.108,29.88a1.021,1.021,0,0,0,.754,1.462,78,78,0,0,0,11.724,1.01,78,78,0,0,0,11.724-1.01A1.021,1.021,0,0,0,25.065,29.88Zm0,0" transform="translate(-0.001 0.001)"/><path class="b" d="M137.262,170.211h7.824v1.811h-7.824Zm0,0" transform="translate(-128.588 -159.456)"/><path class="b" d="M238.281,170.211h1.44v1.811h-1.44Zm0,0" transform="translate(-223.225 -159.456)"/><g transform="translate(15.057 0)"><path class="b" d="M241.225,5.66a5.646,5.646,0,0,0-1.165,2.693l-.332,2.4h-1.447l.367-2.652a6.231,6.231,0,0,1,1.286-2.972A8.625,8.625,0,0,0,241.333,0a.321.321,0,0,1,.139.033l.831.414a.325.325,0,0,1,.181.277A8.061,8.061,0,0,1,241.225,5.66Zm0,0" transform="translate(-238.281)"/><path class="b" d="M247.568,217.634l-9.286-18.77h1.44l8.567,17.315A1.021,1.021,0,0,1,247.568,217.634Zm0,0" transform="translate(-238.281 -186.297)"/></g></g><g transform="translate(30.908 15.679) rotate(19)"><g transform="translate(0 0)"><path class="c" d="M7.005,0a.527.527,0,0,1-.125.324L5.52,1.905,4.9,1.474a.78.78,0,0,0-1.033.132L2.5,3.195a1.563,1.563,0,0,0-.366,1.212l.158,1.248L.384,7.869A.5.5,0,0,1,0,8.046L2.336,0Z" transform="translate(7.265 3.634)"/><path class="d" d="M4.669,3.3H0L2.281,0a.485.485,0,0,1,.138.125L4.565,2.961A.513.513,0,0,1,4.669,3.3Z" transform="translate(9.6 0.337)"/><path class="c" d="M2.635,2.961.489.125A.485.485,0,0,0,.351,0L0,.508,1.857,2.961a.513.513,0,0,1,.1.335h.779A.513.513,0,0,0,2.635,2.961Z" transform="translate(11.53 0.337)"/><path class="e" d="M4.617.078l-2.281,3.3L0,0H4.35A.5.5,0,0,1,4.617.078Z" transform="translate(7.265 0.26)"/><path class="e" d="M4.617,0,2.281,3.374,0,.078A.5.5,0,0,1,.267,0Z" transform="translate(2.647 0.26)"/><path class="c" d="M4.67,3.3H0a.513.513,0,0,1,.1-.335L2.251.125A.485.485,0,0,1,2.388,0Z" transform="translate(0.259 0.337)"/><path class="c" d="M7.005,8.046a.5.5,0,0,1-.384-.176L.125.324A.527.527,0,0,1,0,0H4.669Z" transform="translate(0.259 3.634)"/><path class="c" d="M4.672,3.374H0L2.336,0Z" transform="translate(4.929 0.26)"/><path class="c" d="M4.672,0,2.336,8.046,0,0Z" transform="translate(4.929 3.634)"/><circle class="f" cx="0.519" cy="0.519" r="0.519" transform="translate(11.332 6.25)"/><path class="b" d="M14.8,7.355a1.82,1.82,0,0,0-.767-1.264l-.868-.6,1.172-1.363a.793.793,0,0,0,.031-.986L12.227.305A.808.808,0,0,0,11.615,0h-8.7A.809.809,0,0,0,2.3.305L.156,3.143a.793.793,0,0,0,.032.984l6.5,7.545a.765.765,0,0,0,1.162,0L9.371,9.9,9.9,14.08a.519.519,0,0,0,.582.45l4.635-.588a.519.519,0,0,0,.45-.58ZM13.9,3.374H10.1L11.912.75ZM7.265,10.748,5.274,3.893H9.255Zm0-10.033L9.1,3.374H5.424ZM4.929,3.178,3.089.519h3.68ZM7.76.519h3.68L9.6,3.178ZM2.617.75,4.434,3.374H.632ZM.671,3.893H4.734L6.8,11.013Zm7.058,7.12L9.8,3.893h4.063l-1.118,1.3-.427-.3a1.034,1.034,0,0,0-1.378.175L9.566,6.658A1.819,1.819,0,0,0,9.14,8.073L9.283,9.2Zm2.688,3L9.654,8.009A1.3,1.3,0,0,1,9.959,7l1.37-1.588a.518.518,0,0,1,.689-.087l1.723,1.2a1.3,1.3,0,0,1,.548.9l.762,6.006Z"/><path class="b" d="M.3,1.394a.772.772,0,0,0,.475.164.808.808,0,0,0,.1-.006A.779.779,0,1,0,.3,1.394ZM.746.521l.033,0A.259.259,0,1,1,.62.984a.256.256,0,0,1-.1-.172A.26.26,0,0,1,.746.521Z" transform="translate(11.073 5.991)"/><path class="b" d="M2.277,2.226a1.5,1.5,0,0,0-.918-.166c-.418.054-.8-.138-.838-.417s.288-.56.707-.614a.781.781,0,0,1,.807.313A.26.26,0,0,0,2.5,1.118,1.216,1.216,0,0,0,1.423.505L1.388.225A.26.26,0,0,0,.873.29L.909.569a1.13,1.13,0,0,0-.9,1.14,1.191,1.191,0,0,0,1.418.867.978.978,0,0,1,.6.1.394.394,0,0,1,.086.681.978.978,0,0,1-.552.247A.78.78,0,0,1,.75,3.293a.26.26,0,1,0-.467.225,1.216,1.216,0,0,0,1.08.613l.036.281a.26.26,0,0,0,.257.227l.033,0a.26.26,0,0,0,.225-.29l-.038-.28a1.425,1.425,0,0,0,.593-.336.908.908,0,0,0-.191-1.505Z" transform="translate(10.949 8.314)"/></g></g><path class="g" d="M227.026,381.334l7.813,19.566,7.975-1.169-9.668-18.4Z" transform="translate(-210.055 -368.936)"/><ellipse class="h" cx="9.5" cy="9" rx="9.5" ry="9" transform="translate(0 19.342)"/><g transform="translate(3.943 15.865)"><path class="i" d="M5.635,0A3.024,3.024,0,0,0,2.614,3.021v.6H1.66a.911.911,0,0,0-.9.831l-.75,9.013A1.51,1.51,0,0,0,1.51,15.1H9.759a1.51,1.51,0,0,0,1.505-1.636l-.752-9.013a.911.911,0,0,0-.9-.831H8.656v-.6A3.024,3.024,0,0,0,5.635,0ZM3.218,3.021a2.417,2.417,0,1,1,4.834,0v.6H3.218ZM9.61,4.229a.3.3,0,0,1,.3.277l.751,9.013a.906.906,0,0,1-.9.982H1.51a.906.906,0,0,1-.9-.982l.752-9.013a.3.3,0,0,1,.3-.277h.954v.906a.3.3,0,0,0,.6,0V4.229H8.053v.906a.3.3,0,1,0,.6,0V4.229Z"/></g></g></svg>