<svg xmlns="http://www.w3.org/2000/svg" xmlns:xlink="http://www.w3.org/1999/xlink" width="51" height="50" viewBox="0 0 51 50"><defs><style>.a{fill:none;}.b{clip-path:url(#a);}.c{fill:#de0332;}.d{fill:rgba(222,3,34,0.08);}</style><clipPath id="a"><rect class="a" width="51" height="50" transform="translate(0.093 0)"/></clipPath></defs><g transform="translate(-0.093 0)"><g class="b" transform="translate(0 0)"><path class="c" d="M290.215,200.725a.819.819,0,0,0,1.1.357,70.1,70.1,0,0,1,7.234-3.219.818.818,0,0,0-.494-1.56,70.108,70.108,0,0,0-7.483,3.322.818.818,0,0,0-.358,1.1" transform="translate(-261.562 -177.928)"/><path class="c" d="M290.945,98.772a.816.816,0,0,0,.37-.089,70.091,70.091,0,0,1,7.234-3.219.818.818,0,0,0-.494-1.56,70.12,70.12,0,0,0-7.483,3.322.817.817,0,0,0,.372,1.546" transform="translate(-261.562 -85.34)"/><path class="c" d="M48.239,12.264a.817.817,0,0,0-.818.818V44.968a2.456,2.456,0,0,1-2.453,2.453H25.346V45.54A24.1,24.1,0,0,1,32.7,44.151a42.168,42.168,0,0,1,12.007,1.593.818.818,0,0,0,1.075-.776V8.994a.816.816,0,0,0-.64-.8s-.641-.143-1.737-.344a.818.818,0,0,0-.3,1.608c.418.077.768.145,1.038.2V43.882A46.179,46.179,0,0,0,32.7,42.516a25.686,25.686,0,0,0-8.144,1.567,19.155,19.155,0,0,0-7.39-1.567,55.094,55.094,0,0,0-12.264,1.4V9.627A53.815,53.815,0,0,1,17.17,8.176,17.728,17.728,0,0,1,23.71,9.524V41.7a.818.818,0,0,0,1.239.7,93.6,93.6,0,0,1,15.372-7.283.818.818,0,0,0,.559-.776V.818A.819.819,0,0,0,39.775.052,86.99,86.99,0,0,0,26.547,6.665a.818.818,0,0,0,.867,1.387A87.377,87.377,0,0,1,39.245,2.013V33.754a91.629,91.629,0,0,0-13.9,6.524V8.994a.818.818,0,0,0-.452-.732A18.932,18.932,0,0,0,17.17,6.541,53.058,53.058,0,0,0,3.863,8.208a.817.817,0,0,0-.593.786V44.968a.817.817,0,0,0,.818.818.806.806,0,0,0,.224-.032,52.522,52.522,0,0,1,12.858-1.6A17.69,17.69,0,0,1,23.71,45.5v1.922H4.088a2.456,2.456,0,0,1-2.453-2.453V13.082a.818.818,0,0,0-1.635,0V44.968a4.093,4.093,0,0,0,4.088,4.088h40.88a4.093,4.093,0,0,0,4.088-4.088V13.082a.818.818,0,0,0-.818-.818" transform="translate(0.766 -0.467)"/><path class="c" d="M290.215,149.525a.819.819,0,0,0,1.1.357,70.1,70.1,0,0,1,7.234-3.219.818.818,0,0,0-.494-1.56,70.1,70.1,0,0,0-7.483,3.322.818.818,0,0,0-.358,1.1" transform="translate(-261.562 -131.633)"/><path class="c" d="M290.215,251.924a.819.819,0,0,0,1.1.357,70.1,70.1,0,0,1,7.234-3.219.818.818,0,0,0-.494-1.56,70.117,70.117,0,0,0-7.483,3.322.818.818,0,0,0-.358,1.1" transform="translate(-261.562 -224.221)"/><path class="c" d="M96.964,154.1c-5.049-1.185-10.786.325-11.027.389a.818.818,0,0,0,.211,1.607.831.831,0,0,0,.213-.028c.055-.015,5.578-1.468,10.231-.377a.817.817,0,1,0,.373-1.592" transform="translate(-76.389 -139.39)"/><path class="c" d="M96.964,205.3c-5.049-1.184-10.786.325-11.027.389a.818.818,0,0,0,.211,1.607.827.827,0,0,0,.213-.028c.055-.015,5.578-1.468,10.231-.377a.817.817,0,1,0,.373-1.592" transform="translate(-76.389 -185.687)"/><path class="c" d="M290.215,303.124a.819.819,0,0,0,1.1.357,70.1,70.1,0,0,1,7.234-3.219.818.818,0,0,0-.494-1.56,70.1,70.1,0,0,0-7.483,3.322.818.818,0,0,0-.358,1.1" transform="translate(-261.562 -270.516)"/><path class="c" d="M96.964,256.5c-5.049-1.184-10.786.324-11.027.389a.818.818,0,0,0,.211,1.608.832.832,0,0,0,.213-.029c.055-.016,5.578-1.468,10.231-.377a.817.817,0,1,0,.373-1.592" transform="translate(-76.389 -231.98)"/><path class="c" d="M96.964,358.894c-5.049-1.185-10.786.325-11.027.389a.818.818,0,0,0,.211,1.608.829.829,0,0,0,.213-.029c.055-.016,5.578-1.468,10.231-.377a.817.817,0,1,0,.373-1.592" transform="translate(-76.389 -324.565)"/><path class="c" d="M96.964,307.694c-5.049-1.185-10.786.324-11.027.389a.818.818,0,0,0,.211,1.608.832.832,0,0,0,.213-.029c.055-.016,5.578-1.468,10.231-.377a.817.817,0,1,0,.373-1.592" transform="translate(-76.389 -278.27)"/><ellipse class="d" cx="13" cy="13.5" rx="13" ry="13.5" transform="translate(21.093 19)"/></g></g></svg>