<svg xmlns="http://www.w3.org/2000/svg" width="24" height="24" viewBox="0 0 24 24"><defs><style>.a,.b{fill:#de0322;}.b{opacity:0.4;}.c,.d{fill:#fff;}.d{opacity:0.602;}</style></defs><g transform="translate(-23 -458.904)"><g transform="translate(23 458.904)"><g transform="translate(3 2)"><path class="a" d="M5.127,12.743A4.776,4.776,0,0,1,0,7.613V0H18V7.674c0,3.138-1.976,5.069-5.137,5.069Z" transform="translate(0 7.257)"/><path class="b" d="M0,5.767A15.855,15.855,0,0,1,.155,3.64,4.591,4.591,0,0,1,4.541,0h8.911a4.639,4.639,0,0,1,4.386,3.64,15.892,15.892,0,0,1,.154,2.127Z" transform="translate(0.003 1.49)"/><path class="a" d="M.761,4.59a.747.747,0,0,0,.761-.77V.771A.748.748,0,0,0,.761,0,.748.748,0,0,0,0,.771V3.82a.747.747,0,0,0,.761.77" transform="translate(4.544 0)"/><path class="a" d="M.761,4.59a.753.753,0,0,0,.761-.77V.771A.754.754,0,0,0,.761,0,.748.748,0,0,0,0,.771V3.82a.747.747,0,0,0,.761.77" transform="translate(11.934 0)"/></g></g><g transform="translate(31.167 469.083)"><path class="c" d="M4.332,0C2,0,0,.368,0,1.842S1.983,3.7,4.332,3.7s4.332-.368,4.332-1.842S6.681,0,4.332,0" transform="translate(0 7.136)"/><path class="d" d="M2.866,5.733A2.866,2.866,0,1,0,0,2.866,2.856,2.856,0,0,0,2.866,5.733" transform="translate(1.465)"/></g></g></svg>