<svg xmlns="http://www.w3.org/2000/svg" width="15.223" height="15.392" viewBox="0 0 15.223 15.392"><defs><style>.a{fill:none;stroke:#1a1a1a;stroke-linecap:round;stroke-linejoin:round;stroke-miterlimit:10;stroke-width:1.2px;}</style></defs><g transform="translate(0.6 0.744)"><g transform="translate(-0.75 -0.75)"><path class="a" d="M6.508,0H3.724A3.611,3.611,0,0,0,0,3.915V10.1a3.608,3.608,0,0,0,3.724,3.915h6.569A3.608,3.608,0,0,0,14.019,10.1v-3" transform="translate(0.75 0.779)"/><path class="a" d="M.543,6.083,6.106.519a1.776,1.776,0,0,1,2.51,0l.906.906a1.774,1.774,0,0,1,0,2.51l-5.59,5.59A1.616,1.616,0,0,1,2.789,10H0L.07,7.184A1.616,1.616,0,0,1,.543,6.083Z" transform="translate(4.732 0.75)"/><path class="a" d="M0,0,3.4,3.4" transform="translate(9.993 2.129)"/></g></g></svg>