<svg xmlns="http://www.w3.org/2000/svg" width="41.563" height="39.35" viewBox="0 0 41.563 39.35"><defs><style>.a,.c,.e{fill:#de0322;}.a,.e{stroke:#de0322;}.a{stroke-width:0.2px;}.b{fill:#f198a4;}.d{fill:#fae5e7;}.e{stroke-width:0.5px;}</style></defs><g transform="translate(0.1 0.1)"><path class="a" d="M29.5,40.057a1.132,1.132,0,0,0-.158-.475,1.132,1.132,0,0,0,.158-.566v-17.4a1.132,1.132,0,0,0-1.132-1.132H3.39a1.132,1.132,0,0,0-1.132,1.132v17.4a1.132,1.132,0,0,0,.158.566,1.132,1.132,0,0,0-.153.475L0,48.059v.153a1.132,1.132,0,0,0,1.132,1.132h29.5a1.132,1.132,0,0,0,1.132-1.132ZM3.39,21.612H28.366v17.4H3.39ZM13.5,48.212,13.809,46h4.182l.255,2.213Zm5.886,0-.272-2.332a1.132,1.132,0,0,0-1.132-1.03H13.815a1.132,1.132,0,0,0-1.132,1.024L12.366,48.2H1.149l2.219-7.923v-.153h25l2.264,8.065Z" transform="translate(0 -20.48)"/><g transform="translate(4.737 2.23)"><path class="b" d="M312.72,413.723l20.274-13.349v13.349Z" transform="translate(-311.779 -399.396)"/><path class="c" d="M88.676,52H67.526a.566.566,0,0,0-.566.566V66.641a.566.566,0,0,0,.566.566h21.15a.566.566,0,0,0,.566-.566V52.566A.566.566,0,0,0,88.676,52ZM68.092,66.081V53.132H88.11V66.081Z" transform="translate(-66.96 -52)"/></g><g transform="translate(4.205 21.323)"><g transform="translate(0 0)"><path class="c" d="M82.22,307.12H60.006a.566.566,0,1,0,0,1.132H82.22a.566.566,0,1,0,0-1.132Z" transform="translate(-59.44 -307.12)"/></g></g><circle class="d" cx="11.471" cy="11.471" r="11.471" transform="translate(17.599 14.912)"/><g transform="translate(25.878 14.668)"><g transform="translate(0)"><path class="b" d="M312.72,422.629l12.886-22.255v22.255Z" transform="translate(-311.398 -399.068)"/><path class="e" d="M91.656.71,91.631.678A2.3,2.3,0,0,0,89.994,0H79.287A2.314,2.314,0,0,0,76.98,2.307V22.018a2.314,2.314,0,0,0,2.314,2.314H90a2.31,2.31,0,0,0,2.314-2.312V2.309A2.3,2.3,0,0,0,91.656.71ZM91.42,22.018A1.421,1.421,0,0,1,90,23.437H79.287a1.425,1.425,0,0,1-1.421-1.419V2.309A1.426,1.426,0,0,1,79.287.888H90a1.416,1.416,0,0,1,1,.418l.021.019a1.414,1.414,0,0,1,.4.984Z" transform="translate(-76.98 0)"/></g><g transform="translate(6.014 18.562)"><g transform="translate(0 0)"><circle class="c" cx="1.651" cy="1.651" r="1.651"/></g></g></g></g></svg>