<svg xmlns="http://www.w3.org/2000/svg" width="20.62" height="19.93" viewBox="0 0 20.62 19.93"><defs><style>.a{fill:none;stroke:#1a1a1a;stroke-linecap:round;stroke-linejoin:round;stroke-miterlimit:10;stroke-width:1.5px;}</style></defs><g transform="translate(0.769 0.787)"><path class="a" d="M9.3,18.244a35.078,35.078,0,0,1-6.048-4.791A12.284,12.284,0,0,1,.375,8.783C-.706,5.365.556,1.452,4.089.294a5.92,5.92,0,0,1,5.448.934h0A5.929,5.929,0,0,1,14.985.294c3.532,1.158,4.8,5.071,3.723,8.489a12.284,12.284,0,0,1-2.879,4.67,35.078,35.078,0,0,1-6.048,4.791l-.236.149Z"/><path class="a" d="M0,0A2.453,2.453,0,0,1,1.691,2.136" transform="matrix(0.996, 0.087, -0.087, 0.996, 14.212, 3.721)"/></g></svg>