<svg xmlns="http://www.w3.org/2000/svg" width="22.624" height="21.934" viewBox="0 0 22.624 21.934"><defs><style>.a{fill:none;stroke:#918888;stroke-linecap:round;stroke-linejoin:round;stroke-miterlimit:10;stroke-width:1.5px;}</style></defs><g transform="translate(0.771 0.791)"><path class="a" d="M10.276,20.227a38.776,38.776,0,0,1-6.681-5.312A13.628,13.628,0,0,1,.414,9.738C-.78,5.948.615,1.61,4.517.326a6.522,6.522,0,0,1,6.019,1.035h0A6.532,6.532,0,0,1,16.556.326c3.9,1.284,5.307,5.623,4.113,9.412a13.628,13.628,0,0,1-3.18,5.177,38.776,38.776,0,0,1-6.681,5.312l-.261.166Z" transform="translate(0 0)"/><path class="a" d="M0,0A2.453,2.453,0,0,1,1.691,2.136" transform="matrix(0.996, 0.087, -0.087, 0.996, 15.212, 4.721)"/></g></svg>