<svg xmlns="http://www.w3.org/2000/svg" width="19.692" height="17.308" viewBox="0 0 19.692 17.308"><defs><style>.a,.b{fill:#de0322;}.b{opacity:0.4;}</style></defs><g transform="translate(0 -31)"><path class="a" d="M18.538,40.337v-.683a8.692,8.692,0,0,0-17.385,0v.683A1.728,1.728,0,0,0,0,41.962v4.615a1.733,1.733,0,0,0,1.731,1.731H4.038a.577.577,0,0,0,.577-.577V40.808a.577.577,0,0,0-.577-.577H2.308v-.577a7.539,7.539,0,0,1,15.077,0v.577H15.654a.577.577,0,0,0-.577.577v6.923a.577.577,0,0,0,.577.577h2.308a1.733,1.733,0,0,0,1.731-1.731V41.962A1.728,1.728,0,0,0,18.538,40.337Z" transform="translate(0 0)"/><path class="b" d="M3.815,7.729A3.826,3.826,0,0,0,7.63,3.865a3.815,3.815,0,1,0-7.63,0A3.826,3.826,0,0,0,3.815,7.729" transform="translate(6.131 40.435)"/></g></svg>