<svg xmlns="http://www.w3.org/2000/svg" width="24" height="24" viewBox="0 0 24 24"><defs><style>.a,.b{fill:#de0322;}.a{opacity:0.4;}</style></defs><g transform="translate(2 2)"><path class="a" d="M0,4.447A4.492,4.492,0,0,1,4.525,0H9.486A4.481,4.481,0,0,1,14,4.437V15.553A4.492,4.492,0,0,1,9.474,20H4.515A4.481,4.481,0,0,1,0,15.563V4.447Z"/><path class="b" d="M12.98,3.134,10.135.225a.736.736,0,0,0-1.061,0,.785.785,0,0,0,0,1.089l1.559,1.593H.75a.77.77,0,0,0,0,1.54h9.885L9.076,6.042a.785.785,0,0,0,0,1.089.735.735,0,0,0,1.061,0L12.98,4.225a.784.784,0,0,0,0-1.091" transform="translate(6.799 6.321)"/></g></svg>