<svg id="Iconly_Bulk_Plus" data-name="Iconly/Bulk/Plus" xmlns="http://www.w3.org/2000/svg" width="20" height="20" viewBox="0 0 20 20">
  <g id="Plus">
    <path id="Path_34200" d="M14.667,0H5.333C1.929,0,0,1.929,0,5.333v9.333C0,18.062,1.92,20,5.333,20h9.333C18.071,20,20,18.062,20,14.667V5.333C20,1.929,18.071,0,14.667,0Z" fill="#de0322" opacity="0.4"/>
    <path id="Path_34201" d="M9.488,6.1H6.156v3.3a.972.972,0,0,1-1.943,0V6.1H.881a.973.973,0,0,1,0-1.936H4.2V.873a.983.983,0,0,1,1.953,0V4.166H9.488a.973.973,0,0,1,0,1.936Z" transform="translate(4.815 4.815)" fill="#de0322"/>
  </g>
</svg>
