<svg xmlns="http://www.w3.org/2000/svg" width="136.914" height="34.01" viewBox="0 0 136.914 34.01"><defs><style>.a{fill:#de0322;}.b{fill:#1a1a1a;}</style></defs><g transform="translate(-1341.439 -101.423)"><g transform="translate(1341.439 101.423)"><g transform="translate(13.042 14.623)"><circle class="a" cx="1.989" cy="1.989" r="1.989"/></g><g transform="translate(0 2.315)"><path class="a" d="M1371.891,114.364c-3.157-1.49-6.328-2.951-9.493-4.425a3.56,3.56,0,0,0-1.634-.358,3.7,3.7,0,0,0-1.813.585c-1.328.8-4.542,2.731-8.834,5.375a2.52,2.52,0,0,0-.225.121l-7.272,4.407a2.461,2.461,0,0,0-.827,3.371l10.091,16.654a2.462,2.462,0,0,0,3.371.827l7.272-4.406a2.531,2.531,0,0,0,.265-.189c2.947-1.767,5.885-3.549,8.829-5.322a3.409,3.409,0,0,0,1.758-2.91c.166-3.487.336-6.975.482-10.463A3.224,3.224,0,0,0,1371.891,114.364ZM1354,128.655a10.36,10.36,0,0,1-1.968-2.368h0l5.376,8.872-2.6,1.578-8.046-13.278h0l-.018-.03,7.041-4.267a5.186,5.186,0,0,1,5.471,8.811,7.228,7.228,0,0,0,5.415-.856l1.615,2.665A10.377,10.377,0,0,1,1354,128.655Zm15.493-7.193a2.934,2.934,0,1,1,.989-4.03A2.934,2.934,0,0,1,1369.5,121.462Z" transform="translate(-1341.439 -109.58)"/></g><g transform="translate(26.536)"><path d="M1445.685,102.217c-2.042-1.7-5.683-.585-8.286,2.543a11.421,11.421,0,0,0-.758,1.021.546.546,0,0,0,.912.6,10.234,10.234,0,0,1,.683-.922c2.138-2.568,5.23-3.669,6.748-2.4s1,4.506-1.138,7.072a9.669,9.669,0,0,1-1.982,1.809l-1.082.613a6.393,6.393,0,0,1-.666.268,4.323,4.323,0,0,1-1.551.237,1.815,1.815,0,1,0-.413,1.06,4.425,4.425,0,0,0,1,.02,5.881,5.881,0,0,0,1.309-.28,10.317,10.317,0,0,0,6.442-7.738A4.137,4.137,0,0,0,1445.685,102.217Z" transform="translate(-1434.926 -101.423)"/></g></g><g transform="translate(1387.012 107.923)"><path class="b" d="M1510.315,139.488l-3.066-5.265h-2.264v5.265H1502V124.322h6.066a5.03,5.03,0,0,1,5.048,5.027,4.615,4.615,0,0,1-.8,2.611,5.014,5.014,0,0,1-2.123,1.809l3.357,5.72Zm-5.329-12.371V131.6h3.077a1.9,1.9,0,0,0,1.451-.661,2.271,2.271,0,0,0,.607-1.592,2.234,2.234,0,0,0-.607-1.582,1.918,1.918,0,0,0-1.451-.65Z" transform="translate(-1501.996 -124.322)"/><path class="b" d="M1547.436,145.387q.563,2.037,3.055,2.037a2.859,2.859,0,0,0,2.427-1.083l2.253,1.3a5.374,5.374,0,0,1-4.723,2.318,5.828,5.828,0,0,1-4.311-1.625,5.716,5.716,0,0,1,4.1-9.815,5.166,5.166,0,0,1,3.932,1.647,5.719,5.719,0,0,1,1.549,4.073,6.536,6.536,0,0,1-.108,1.148Zm-.043-2.167h5.525a2.623,2.623,0,0,0-.986-1.647,2.828,2.828,0,0,0-1.7-.542,2.942,2.942,0,0,0-1.863.574A2.744,2.744,0,0,0,1547.393,143.221Z" transform="translate(-1532.443 -134.489)"/><path class="b" d="M1596.866,138.519a3.923,3.923,0,0,1,2.936,1.192,4.524,4.524,0,0,1,1.159,3.293v6.651h-2.8v-6.3a2.22,2.22,0,0,0-.585-1.657,2.131,2.131,0,0,0-1.56-.574,2.3,2.3,0,0,0-1.734.672,2.793,2.793,0,0,0-.65,2.015v5.85h-2.795V138.822h2.795v1.213A3.61,3.61,0,0,1,1596.866,138.519Z" transform="translate(-1565.625 -134.489)"/><path class="b" d="M1638.731,134.622h-2.448v4.507a1.07,1.07,0,0,0,.282.823,1.293,1.293,0,0,0,.824.292,12.061,12.061,0,0,0,1.343-.011v2.535q-2.882.325-4.062-.542a3.605,3.605,0,0,1-1.181-3.1v-4.507H1631.6v-2.687h1.885v-2.188l2.794-.845v3.033h2.448Z" transform="translate(-1594.815 -127.602)"/><path class="b" d="M1668.474,138.673a4.914,4.914,0,0,1,3.889,1.7,5.916,5.916,0,0,1,1.484,4.019q0,.239-.043.672h-9.511a3.883,3.883,0,0,0,1.4,2.611,4.455,4.455,0,0,0,2.914.964,4.26,4.26,0,0,0,2.134-.509,3.43,3.43,0,0,0,1.354-1.332l1.257.737a5.145,5.145,0,0,1-1.95,1.82,5.8,5.8,0,0,1-2.816.672,5.628,5.628,0,0,1-4.16-1.6,5.519,5.519,0,0,1-1.6-4.073,5.579,5.579,0,0,1,1.582-4.052A5.434,5.434,0,0,1,1668.474,138.673Zm0,1.387a4.055,4.055,0,0,0-4.181,3.618h8.081a4.04,4.04,0,0,0-1.321-2.665A3.827,3.827,0,0,0,1668.474,140.06Z" transform="translate(-1617.171 -134.6)"/><path class="b" d="M1717.362,138.933h1.43v10.833h-1.43v-2.123a4.849,4.849,0,0,1-4.377,2.383,5.368,5.368,0,0,1-3.953-1.647,5.781,5.781,0,0,1,0-8.059,5.367,5.367,0,0,1,3.953-1.647,4.85,4.85,0,0,1,4.377,2.383Zm-7.3,8.46a4.315,4.315,0,0,0,6.066,0,4.369,4.369,0,0,0,0-6.088,4.316,4.316,0,0,0-6.066,0,4.369,4.369,0,0,0,0,6.088Z" transform="translate(-1649.095 -134.6)"/><path class="b" d="M1757.718,141.742a1.309,1.309,0,0,0,.658,1.151,5.891,5.891,0,0,0,1.591.692l1.862.532a3.343,3.343,0,0,1,1.573.963,2.589,2.589,0,0,1,.642,1.825,2.741,2.741,0,0,1-1.094,2.253,4.415,4.415,0,0,1-2.827.867,4.857,4.857,0,0,1-2.654-.693,3.707,3.707,0,0,1-1.527-1.8l1.213-.715a2.537,2.537,0,0,0,1.094,1.332,3.5,3.5,0,0,0,1.874.488,3.442,3.442,0,0,0,1.777-.422,1.415,1.415,0,0,0,.715-1.31,1.34,1.34,0,0,0-.65-1.169,5.646,5.646,0,0,0-1.582-.7l-1.863-.532a3.451,3.451,0,0,1-1.581-.948,2.485,2.485,0,0,1-.65-1.787,2.779,2.779,0,0,1,1.051-2.21,3.969,3.969,0,0,1,2.654-.888,4.432,4.432,0,0,1,2.318.6,3.659,3.659,0,0,1,1.473,1.614l-1.191.693a2.521,2.521,0,0,0-2.6-1.516,2.873,2.873,0,0,0-1.6.437A1.4,1.4,0,0,0,1757.718,141.742Z" transform="translate(-1683.861 -134.6)"/><path class="b" d="M1795.5,139.588h1.516l-4.637,11.829a5.883,5.883,0,0,1-1.787,2.524,3.6,3.6,0,0,1-2.589.812v-1.343q1.946.216,2.962-2.255l.275-.7-4.84-10.867h1.517l4.055,9Z" transform="translate(-1705.672 -135.255)"/></g></g></svg>